<?xml version="1.0" standalone="no"?>
<!DOCTYPE svg PUBLIC "-//W3C//DTD SVG 1.1//EN" "http://www.w3.org/Graphics/SVG/1.1/DTD/svg11.dtd" >
<svg>
<metadata>
Created by FontForge 20090622 at Thu Sep 17 00:59:01 2015
 By deploy user
Generated in 2013 by FontLab Studio. Copyright info pending.
</metadata>
<defs>
<font id="CircularPro-BookItalic" horiz-adv-x="560" >
  <font-face 
    font-family="Circular Pro Book Italic"
    font-weight="450"
    font-style="italic"
    font-stretch="normal"
    units-per-em="1000"
    panose-1="2 11 6 4 2 1 1 2 1 2"
    ascent="809"
    descent="-191"
    x-height="481"
    cap-height="709"
    bbox="-131 -233 1544 1021"
    underline-thickness="80"
    underline-position="-115"
    slope="-12"
    unicode-range="U+000D-U+FEFF"
  />
<missing-glyph horiz-adv-x="555" 
d="M5 0v709h545v-709h-545zM84 79h387v551h-387v-551z" />
    <glyph glyph-name="f_f" unicode="ff" horiz-adv-x="618" 
d="M617 643q-67 0 -84 -77l-18 -85h109l-18 -83h-109l-84 -398h-97l84 398h-189l-84 -398h-97l84 398h-81l18 83h81l21 100q31 148 172 148q43 0 64 -14l-18 -80q-20 8 -40 8q-67 0 -84 -77l-18 -85h189l21 100q31 148 172 148q43 0 64 -14l-18 -80q-20 8 -40 8z" />
    <glyph glyph-name="f_f_i" unicode="ffi" horiz-adv-x="870" 
d="M738 659q0 31 23 52.5t51 21.5q27 0 44 -17.5t17 -42.5q0 -30 -23 -52t-51 -22q-27 0 -44 17.5t-17 42.5zM617 643q-67 0 -84 -77l-18 -85h300l-103 -481h-94l85 398h-206l-84 -398h-97l84 398h-189l-84 -398h-97l84 398h-81l18 83h81l21 100q31 148 172 148q43 0 64 -14
l-18 -80q-20 8 -40 8q-67 0 -84 -77l-18 -85h189l21 100q31 148 172 148q43 0 64 -14l-18 -80q-20 8 -40 8z" />
    <glyph glyph-name="f_f_l" unicode="ffl" horiz-adv-x="875" 
d="M617 643q-67 0 -84 -77l-18 -85h212l52 243h94l-154 -724h-94l85 398h-213l-84 -398h-97l84 398h-189l-84 -398h-97l84 398h-81l18 83h81l21 100q31 148 172 148q43 0 64 -14l-18 -80q-20 8 -40 8q-67 0 -84 -77l-18 -85h189l21 100q31 148 172 148q43 0 64 -14l-18 -80
q-20 8 -40 8z" />
    <glyph glyph-name="f_i" unicode="fi" horiz-adv-x="591" 
d="M211 398l-84 -398h-97l84 398h-81l18 83h81l21 100q31 148 172 148q43 0 64 -14l-18 -80q-20 8 -40 8q-67 0 -84 -77l-18 -85h307l-103 -481h-94l85 398h-213zM459 659q0 31 23 52.5t51 21.5q27 0 44 -17.5t17 -42.5q0 -30 -23 -52t-51 -22q-27 0 -44 17.5t-17 42.5z" />
    <glyph glyph-name="f_l" unicode="fl" horiz-adv-x="590" 
d="M331 643q-67 0 -84 -77l-18 -85h213l52 243h94l-154 -724h-94l85 398h-214l-84 -398h-97l84 398h-81l18 83h81l21 100q31 148 172 148q43 0 64 -14l-18 -80q-20 8 -40 8z" />
    <glyph glyph-name=".notdef" horiz-adv-x="555" 
d="M5 0v709h545v-709h-545zM84 79h387v551h-387v-551z" />
    <glyph glyph-name=".null" horiz-adv-x="0" 
 />
    <glyph glyph-name=".null" horiz-adv-x="0" 
 />
    <glyph glyph-name="uni000D" unicode="&#xd;" horiz-adv-x="261" 
 />
    <glyph glyph-name="space" unicode=" " horiz-adv-x="261" 
 />
    <glyph glyph-name="exclam" unicode="!" horiz-adv-x="304" 
d="M85 203l79 506h120l-132 -506h-67zM25 53q0 30 21 51.5t51 21.5q27 0 43.5 -16.5t16.5 -41.5q0 -30 -21.5 -51.5t-49.5 -21.5q-27 0 -44 16.5t-17 41.5z" />
    <glyph glyph-name="quotedbl" unicode="&#x22;" horiz-adv-x="400" 
d="M125 393h-35v198q0 28 18 48t48 20q25 0 40.5 -15t15.5 -38q0 -14 -7 -32zM298 393h-35v198q0 28 18 48t48 20q25 0 40.5 -15t15.5 -38q0 -14 -7 -32z" />
    <glyph glyph-name="numbersign" unicode="#" horiz-adv-x="718" 
d="M84 405v76h144l36 167h84l-36 -167h142l36 167h84l-36 -167h135v-76h-151l-34 -160h136v-76h-153l-36 -169h-84l36 169h-142l-36 -169h-84l36 169h-126v76h143l34 160h-128zM296 405l-34 -160h142l34 160h-142z" />
    <glyph glyph-name="dollar" unicode="$" horiz-adv-x="565" 
d="M156 -117l23 111q-81 19 -122.5 78.5t-41.5 130.5q0 4 1 13l89 15q-1 -9 -1 -17q0 -47 23 -85.5t69 -53.5l47 218l-23 12q-116 60 -116 166q0 81 62 136t155 56l22 103h76l-24 -113q71 -19 105.5 -70.5t34.5 -103.5l-85 -17q0 18 -4.5 35.5t-22 40t-46.5 33.5l-46 -221
l15 -7q126 -66 126 -168q0 -78 -62 -134t-157 -56l-21 -102h-76zM195 482q0 -61 64 -94l3 -2l42 196q-47 -3 -78 -31.5t-31 -68.5zM378 168q0 52 -67 90l-40 -190q49 5 77.5 31.5t29.5 68.5z" />
    <glyph glyph-name="percent" unicode="%" horiz-adv-x="768" 
d="M208 422q34 0 59.5 25.5t25.5 65.5q0 30 -19 48.5t-51 18.5q-33 0 -58 -26t-25 -63q0 -30 18.5 -49.5t49.5 -19.5zM200 344q-62 0 -102.5 40.5t-40.5 100.5q0 71 51.5 122.5t123.5 51.5q61 0 102.5 -41.5t41.5 -101.5q0 -72 -54 -122t-122 -50zM549 74q34 0 59.5 25.5
t25.5 65.5q0 30 -19 48.5t-51 18.5q-33 0 -58 -26t-25 -63q0 -30 18.5 -49.5t49.5 -19.5zM541 -4q-62 0 -102.5 40.5t-40.5 100.5q0 71 51.5 122.5t123.5 51.5q61 0 102.5 -41.5t41.5 -101.5q0 -72 -54 -122t-122 -50zM732 648l-604 -648h-97l606 648h95z" />
    <glyph glyph-name="ampersand" unicode="&#x26;" horiz-adv-x="680" 
d="M589 0h-114l-62 88l-9 -8q-50 -44 -97 -65.5t-104 -21.5q-84 0 -137 51t-53 125q0 75 43.5 124.5t123.5 92.5l18 10l-14 19q-50 70 -50 129q0 86 58.5 133t135.5 47q79 0 125.5 -44.5t46.5 -110.5q0 -33 -11.5 -61t-34.5 -49.5t-42.5 -35.5t-49.5 -31l-34 -19l107 -154
l207 179l-29 -136l-129 -112zM113 175q0 -44 29 -68.5t72 -24.5q62 0 145 71l5 4l-119 170l-45 -25q-47 -26 -67 -55t-20 -72zM281 440l37 20q48 25 66.5 51t18.5 58t-22.5 51.5t-57.5 19.5q-33 0 -62.5 -23.5t-29.5 -68.5q0 -36 26 -74z" />
    <glyph glyph-name="quotesingle" unicode="'" horiz-adv-x="217" 
d="M125 393h-35v198q0 28 18 48t48 20q25 0 40.5 -15t15.5 -38q0 -14 -7 -32z" />
    <glyph glyph-name="parenleft" unicode="(" horiz-adv-x="285" 
d="M37 201q0 175 78 329.5t225 256.5l45 -61q-121 -88 -193.5 -219.5t-72.5 -300.5q0 -162 89 -315l-67 -37q-104 162 -104 347z" />
    <glyph glyph-name="parenright" unicode=")" horiz-adv-x="285" 
d="M248 432q0 -176 -78.5 -326.5t-224.5 -256.5l-45 60q122 89 194 219.5t72 301.5q0 161 -88 315l66 37q104 -164 104 -350z" />
    <glyph glyph-name="asterisk" unicode="*" horiz-adv-x="433" 
d="M325 709l-26 -134l130 42l9 -72l-132 -43l62 -103l-65 -46l-63 109l-101 -108l-56 46l103 106l-116 41l35 70l114 -43l21 135h85z" />
    <glyph glyph-name="plus" unicode="+" horiz-adv-x="567" 
d="M316 248v-197h-82v197h-187v79h187v195h82v-195h188v-79h-188z" />
    <glyph glyph-name="comma" unicode="," horiz-adv-x="282" 
d="M11 55q0 32 23 54t57 22q33 0 54.5 -22t21.5 -60q0 -80 -57 -142.5t-140 -66.5l11 54q41 7 74 37t41 67q-8 -4 -23 -4q-26 0 -44 16.5t-18 44.5z" />
    <glyph glyph-name="hyphen" unicode="-" horiz-adv-x="358" 
d="M291 246h-271l17 82h271z" />
    <glyph glyph-name="period" unicode="." horiz-adv-x="262" 
d="M70 -5q-29 0 -47 18t-18 43q0 32 23 55t55 23q29 0 46.5 -18t17.5 -44q0 -32 -23 -54.5t-54 -22.5z" />
    <glyph glyph-name="slash" unicode="/" horiz-adv-x="459" 
d="M539 724l-518 -739h-96l517 739h97z" />
    <glyph glyph-name="zero" unicode="0" horiz-adv-x="604" 
d="M127 239q0 -77 33 -121t101 -44q52 0 93 34.5t63.5 89t33.5 110t11 107.5q0 159 -134 159q-53 0 -94 -34t-63 -87t-33 -108t-11 -106zM254 -15q-112 0 -168 73t-56 182q0 73 19 146t55 136t96 102t135 39q115 0 169.5 -71.5t54.5 -179.5q0 -105 -33.5 -200.5t-105 -161
t-166.5 -65.5z" />
    <glyph glyph-name="one" unicode="1" horiz-adv-x="341" 
d="M174 0h-97l100 468h-142l13 63q60 5 107.5 36t69.5 81h86z" />
    <glyph glyph-name="two" unicode="2" horiz-adv-x="539" 
d="M-30 0q21 192 209 282l121 58q60 29 89.5 61.5t29.5 76.5q0 43 -27.5 72t-82.5 29q-64 0 -102.5 -42.5t-38.5 -115.5v-8l-95 8v7q0 99 65 167t175 68q100 0 152.5 -49.5t52.5 -125.5q0 -144 -166 -223l-144 -68q-80 -38 -106 -106h354l-19 -91h-467z" />
    <glyph glyph-name="three" unicode="3" horiz-adv-x="541" 
d="M215 312l-37 91l231 156h-316l18 89h437l-23 -113l-218 -146q65 -6 111 -53t46 -121q0 -93 -68 -161.5t-177 -68.5q-104 0 -163.5 60t-59.5 141q0 19 2 29l96 11q-2 -9 -2 -27q0 -53 32.5 -90.5t92.5 -37.5q63 0 104.5 38t41.5 99q0 55 -35 81.5t-82 26.5q-17 0 -31 -4z
" />
    <glyph glyph-name="four" unicode="4" horiz-adv-x="588" 
d="M-5 146l24 116l371 386h127l-90 -411h121l-19 -91h-121l-28 -146h-95l28 146h-318zM332 237l67 305l-292 -305h225z" />
    <glyph glyph-name="five" unicode="5" horiz-adv-x="535" 
d="M-5 191q0 7 1 10l95 18q-1 -6 -1 -16q0 -55 32 -93.5t95 -38.5q59 0 101.5 40t42.5 109q0 53 -32 85t-87 32q-61 0 -105 -36l-88 56l139 291h347l-19 -90h-277l-78 -162q41 24 100 24q89 0 144.5 -50.5t55.5 -138.5q0 -103 -70 -174.5t-176 -71.5q-99 0 -159.5 57.5
t-60.5 148.5z" />
    <glyph glyph-name="six" unicode="6" horiz-adv-x="559" 
d="M562 631l-36 -77q-52 24 -115 24q-100 0 -169 -55.5t-95 -151.5q56 58 152 58q93 0 148 -52.5t55 -138.5q0 -114 -76.5 -183.5t-180.5 -69.5q-92 0 -156 64t-64 177q0 115 45 213.5t134 161t205 62.5q101 0 153 -32zM275 345q-64 0 -106 -42t-42 -106q0 -55 36 -90.5
t90 -35.5q60 0 104 41.5t44 111.5q0 56 -34 88.5t-92 32.5z" />
    <glyph glyph-name="seven" unicode="7" horiz-adv-x="483" 
d="M538 648l-20 -94q-31 -21 -58.5 -43t-79 -73t-93 -107t-86.5 -144.5t-74 -186.5h-102q21 81 53.5 155.5t68 129t73.5 101.5t71.5 77.5t60.5 52.5t43 32l16 10h-365l19 90h473z" />
    <glyph glyph-name="eight" unicode="8" horiz-adv-x="556" 
d="M289 370q58 0 96.5 33t38.5 86q0 39 -28.5 66.5t-76.5 27.5q-64 0 -101.5 -33.5t-37.5 -86.5q0 -39 29.5 -66t79.5 -27zM104 167q0 -46 34.5 -73.5t91.5 -27.5q61 0 102.5 34t41.5 88q0 45 -31.5 74t-90.5 29q-64 0 -106 -34t-42 -90zM472 187q0 -91 -71 -146.5
t-179 -55.5q-105 0 -161 50t-56 125q0 63 42.5 111t118.5 64q-33 13 -57.5 50t-24.5 78q0 90 68 145t166 55q95 0 149 -46t54 -116q0 -62 -38.5 -108.5t-107.5 -64.5q46 -15 71.5 -54t25.5 -87z" />
    <glyph glyph-name="nine" unicode="9" 
d="M147 429q0 -55 34 -88t90 -33q63 0 103 41t40 105q0 55 -35 89t-87 34q-58 0 -101.5 -39.5t-43.5 -108.5zM-20 38l40 76q59 -41 140 -41q101 0 167 61.5t76 160.5q-47 -71 -155 -71q-84 0 -142.5 53.5t-58.5 141.5q0 110 75 177t178 67q98 0 159 -61t61 -179
q0 -194 -94 -316t-266 -122q-117 0 -180 53z" />
    <glyph glyph-name="colon" unicode=":" horiz-adv-x="290" 
d="M75 -5q-29 0 -47 18t-18 43q0 32 23 55t55 23q29 0 46.5 -18t17.5 -44q0 -32 -23 -54.5t-54 -22.5zM153 347q-29 0 -47 18t-18 43q0 32 23 55t55 23q29 0 46.5 -18t17.5 -44q0 -32 -23 -54.5t-54 -22.5z" />
    <glyph glyph-name="semicolon" unicode=";" horiz-adv-x="290" 
d="M3 55q0 31 22 52t54 21t52.5 -21t20.5 -58q0 -77 -54.5 -137t-134.5 -64l11 52q40 7 71 36t39 64q-8 -4 -22 -4q-25 0 -42 16t-17 43zM153 347q-29 0 -47 18t-18 43q0 32 23 55t55 23q29 0 46.5 -18t17.5 -44q0 -32 -23 -54.5t-54 -22.5z" />
    <glyph glyph-name="less" unicode="&#x3c;" horiz-adv-x="492" 
d="M25 244v85l412 206v-95l-310 -153l310 -153v-95z" />
    <glyph glyph-name="equal" unicode="=" horiz-adv-x="618" 
d="M65 346v77h463v-77h-463zM65 151v79h463v-79h-463z" />
    <glyph glyph-name="greater" unicode="&#x3e;" horiz-adv-x="492" 
d="M437 329v-85l-412 -205v95l312 153l-312 153v95z" />
    <glyph glyph-name="question" unicode="?" horiz-adv-x="502" 
d="M243 203h-86q10 126 120 191l51 30q78 46 78 117q0 40 -28 67.5t-79 27.5q-70 0 -107 -45.5t-37 -111.5l-95 13q4 103 71.5 167.5t177.5 64.5q93 0 145.5 -48.5t52.5 -119.5q0 -127 -141 -207l-54 -31q-64 -37 -69 -115zM118 53q0 30 21 51.5t51 21.5q27 0 43.5 -16.5
t16.5 -41.5q0 -30 -21.5 -51.5t-49.5 -21.5q-27 0 -44 16.5t-17 41.5z" />
    <glyph glyph-name="at" unicode="@" horiz-adv-x="816" 
d="M435 -47q-176 0 -288 105.5t-112 274.5q0 171 113 281t275 110q153 0 255.5 -93.5t102.5 -233.5q0 -111 -55.5 -185.5t-134.5 -74.5q-80 0 -98 62q-46 -64 -120 -64q-68 0 -110.5 47t-42.5 124q0 99 59 166t141 67q34 0 65 -16t42 -46l9 49h79l-54 -251q-3 -15 -3 -28
q0 -41 38 -41q42 0 75 57.5t33 132.5q0 111 -77.5 183t-202.5 72q-133 0 -220 -88.5t-87 -230.5q0 -134 85.5 -220t232.5 -86q117 0 205 70l41 -54q-43 -40 -111.5 -64.5t-134.5 -24.5zM505 370q0 45 -22 69.5t-62 24.5q-52 0 -85.5 -45t-33.5 -103q0 -108 85 -108
q51 0 83.5 45.5t34.5 116.5z" />
    <glyph glyph-name="A" unicode="A" horiz-adv-x="654" 
d="M485 0l-32 198h-297l-115 -198h-111l423 709h108l123 -709h-99zM388 599l-179 -310h229z" />
    <glyph glyph-name="B" unicode="B" horiz-adv-x="603" 
d="M165 709h214q88 0 136 -45t48 -117q0 -65 -39 -117.5t-103 -70.5q45 -15 74 -53.5t29 -89.5q0 -92 -68.5 -154t-173.5 -62h-267zM197 399h115q68 0 110 37.5t42 95.5q0 43 -28 67t-81 24h-110zM131 86h137q67 0 111 38t44 96q0 44 -28 69.5t-86 25.5h-130z" />
    <glyph glyph-name="C" unicode="C" horiz-adv-x="719" 
d="M417 724q121 0 194 -63t93 -162l-93 -27q-15 71 -68 116.5t-136 45.5q-125 0 -198.5 -96.5t-73.5 -230.5q0 -108 56 -170.5t153 -62.5q157 0 228 160l86 -35q-44 -101 -127 -157.5t-196 -56.5q-132 0 -216 88.5t-84 227.5q0 100 33 182.5t87.5 133.5t122 79t139.5 28z
" />
    <glyph glyph-name="D" unicode="D" horiz-adv-x="691" 
d="M131 87h145q51 0 100 21.5t90 62t66 105.5t25 144q0 98 -57.5 150t-159.5 52h-95zM276 0h-261l150 709h193q136 0 216.5 -77t80.5 -206q0 -101 -32.5 -184t-86.5 -134.5t-121 -79.5t-139 -28z" />
    <glyph glyph-name="E" unicode="E" horiz-adv-x="576" 
d="M441 0h-426l150 709h426l-19 -91h-328l-46 -218h297l-20 -92h-297l-46 -217h328z" />
    <glyph glyph-name="F" unicode="F" horiz-adv-x="561" 
d="M113 0h-98l150 709h426l-19 -91h-328l-49 -228h297l-19 -92h-297z" />
    <glyph glyph-name="G" unicode="G" horiz-adv-x="740" 
d="M408 634q-124 0 -199 -96t-75 -231q0 -108 56.5 -170.5t154.5 -62.5q80 0 147 50t88 135h-246l18 88h339l-73 -347h-76l8 80q-82 -95 -214 -95q-127 0 -214 86.5t-87 229.5q0 100 33 182.5t88 133.5t122.5 79t139.5 28q121 0 194 -63t93 -162l-93 -27q-15 71 -68 116.5
t-136 45.5z" />
    <glyph glyph-name="H" unicode="H" horiz-adv-x="708" 
d="M543 0h-98l66 315h-332l-66 -315h-98l150 709h98l-64 -303h332l64 303h98z" />
    <glyph glyph-name="I" unicode="I" horiz-adv-x="280" 
d="M115 0h-100l150 709h100z" />
    <glyph glyph-name="J" unicode="J" horiz-adv-x="544" 
d="M440 709h99l-110 -513q-21 -98 -77 -154t-146 -56q-93 0 -144.5 53t-51.5 138q0 30 8 67l5 23l100 15l-11 -52q-5 -20 -5 -47q0 -50 26 -79.5t76 -29.5q95 0 122 124z" />
    <glyph glyph-name="K" unicode="K" horiz-adv-x="662" 
d="M465 0l-176 334l-130 -114l-46 -220h-98l150 709h98l-73 -344l392 344h135l-355 -312l214 -397h-111z" />
    <glyph glyph-name="L" unicode="L" horiz-adv-x="538" 
d="M438 0h-423l150 709h98l-131 -617h325z" />
    <glyph glyph-name="M" unicode="M" horiz-adv-x="926" 
d="M761 0h-97l115 543l-345 -543h-74l-133 540l-115 -540h-97l150 709h115l140 -570l361 570h130z" />
    <glyph glyph-name="N" unicode="N" horiz-adv-x="738" 
d="M573 0h-102l-236 574l-122 -574h-98l150 709h117l225 -554l118 554h98z" />
    <glyph glyph-name="O" unicode="O" horiz-adv-x="753" 
d="M35 294q0 102 33 186t87 136t120.5 80t136.5 28q139 0 222.5 -85t83.5 -225q0 -102 -33 -185.5t-87 -135.5t-120 -80t-136 -28q-139 0 -223 85t-84 224zM618 404q0 108 -59 169t-153 61q-84 0 -147 -48t-93.5 -122t-30.5 -160q0 -108 59 -168.5t153 -60.5q84 0 147 47.5
t93.5 121.5t30.5 160z" />
    <glyph glyph-name="P" unicode="P" horiz-adv-x="588" 
d="M165 709h225q91 0 144.5 -50.5t53.5 -129.5q0 -106 -75 -170.5t-186 -64.5h-152l-62 -294h-98zM374 622h-129l-52 -241h134q72 0 117 38t45 104q0 45 -30 72t-85 27z" />
    <glyph glyph-name="Q" unicode="Q" horiz-adv-x="757" 
d="M35 294q0 102 33 186t87 136t120.5 80t136.5 28q139 0 222.5 -85t83.5 -225q0 -214 -135 -335l78 -105l-72 -49l-77 103q-83 -43 -170 -43q-139 0 -223 85t-84 224zM346 252l72 49l110 -148q90 96 90 251q0 108 -59 169t-153 61q-84 0 -147 -48t-93.5 -122t-30.5 -160
q0 -108 59 -168.5t153 -60.5q59 0 111 26z" />
    <glyph glyph-name="R" unicode="R" horiz-adv-x="615" 
d="M412 0l-111 294h-126l-62 -294h-98l150 709h230q90 0 142.5 -50.5t52.5 -129.5q0 -89 -52.5 -149.5t-137.5 -78.5l116 -301h-104zM193 381h139q71 0 115 38t44 104q0 45 -29 72t-83 27h-134z" />
    <glyph glyph-name="S" unicode="S" horiz-adv-x="581" 
d="M264 73q61 1 98.5 31.5t37.5 79.5q0 69 -76 103l-94 42q-129 57 -129 183q0 89 68.5 150.5t169.5 61.5q61 0 108.5 -20t73 -51.5t38 -64.5t12.5 -65l-93 -18q0 18 -5.5 37t-19 42t-45.5 38t-77 15q-55 0 -92.5 -32.5t-37.5 -79.5q0 -67 66 -98l97 -45q138 -65 138 -187
q0 -86 -67 -148t-171 -62q-128 0 -193.5 71t-65.5 165q0 8 1 15l99 17q-1 -9 -1 -20q0 -67 40 -113.5t120 -46.5z" />
    <glyph glyph-name="T" unicode="T" horiz-adv-x="566" 
d="M612 619h-220l-131 -619h-98l131 619h-229l19 90h547z" />
    <glyph glyph-name="U" unicode="U" horiz-adv-x="666" 
d="M562 709h99l-104 -493q-23 -110 -94 -170.5t-175 -60.5q-107 0 -169.5 55.5t-62.5 155.5q0 38 8 74l93 439h94l-92 -451q-6 -28 -6 -54q0 -60 35 -94t105 -34q65 0 108.5 39t58.5 110z" />
    <glyph glyph-name="V" unicode="V" horiz-adv-x="608" 
d="M173 709l80 -583l325 583h105l-406 -709h-97l-105 709h98z" />
    <glyph glyph-name="W" unicode="W" horiz-adv-x="952" 
d="M495 709h103l63 -561l252 561h99l-327 -709h-97l-63 575l-280 -575h-100l-55 709h95l39 -555z" />
    <glyph glyph-name="X" unicode="X" horiz-adv-x="627" 
d="M299 270l-232 -270h-122l311 356l-162 353h107l123 -275l235 275h123l-315 -361l161 -348h-108z" />
    <glyph glyph-name="Y" unicode="Y" horiz-adv-x="611" 
d="M257 305l-162 404h103l123 -311l228 311h117l-313 -410l-62 -299h-98z" />
    <glyph glyph-name="Z" unicode="Z" horiz-adv-x="614" 
d="M499 0h-529l20 96l510 523h-389l19 90h514l-20 -93l-512 -525h406z" />
    <glyph glyph-name="bracketleft" unicode="[" horiz-adv-x="288" 
d="M176 -148h-193l198 933h193l-16 -75h-116l-166 -784h116z" />
    <glyph glyph-name="backslash" unicode="\" horiz-adv-x="429" 
d="M278 -15l-213 739h86l213 -739h-86z" />
    <glyph glyph-name="bracketright" unicode="]" horiz-adv-x="288" 
d="M91 -148h-192l16 74h115l166 784h-116l16 75h193z" />
    <glyph glyph-name="asciicircum" unicode="^" horiz-adv-x="556" 
d="M249 710h83l194 -356h-99l-136 258l-137 -258h-99z" />
    <glyph glyph-name="underscore" unicode="_" horiz-adv-x="532" 
d="M-60 -79v79h512v-79h-512z" />
    <glyph glyph-name="grave" unicode="`" horiz-adv-x="208" 
d="M159 543l-94 146h112l56 -146h-74z" />
    <glyph glyph-name="a" unicode="a" horiz-adv-x="567" 
d="M266 414q-74 0 -117.5 -66t-43.5 -146q0 -59 29 -95t85 -36q69 0 114 63t45 156q0 55 -28 89.5t-84 34.5zM424 481h93l-75 -356q-11 -50 -11 -109q0 -8 1 -16h-89q-2 10 -2 28t2 33q-59 -71 -143 -71q-90 0 -140 59.5t-50 151.5q0 120 71 207t180 87q56 0 94 -21.5
t56 -53.5z" />
    <glyph glyph-name="b" unicode="b" horiz-adv-x="564" 
d="M83 0h-93l153 724h93l-60 -283q52 54 145 54q90 0 138.5 -59t48.5 -149q0 -128 -71.5 -214t-184.5 -86q-52 0 -93.5 25t-58.5 67zM286 412q-64 0 -110.5 -58t-46.5 -149q0 -58 31 -95t86 -39q68 0 117 55.5t49 150.5q0 64 -33 99.5t-93 35.5z" />
    <glyph glyph-name="c" unicode="c" horiz-adv-x="498" 
d="M468 344l-87 -30q-10 43 -39.5 70.5t-79.5 27.5q-66 0 -114 -53.5t-48 -150.5q0 -64 36 -101.5t95 -37.5q89 0 134 91l80 -35q-72 -140 -218 -140q-101 0 -161.5 62.5t-60.5 159.5q0 126 76 207.5t187 81.5q89 0 136.5 -44.5t63.5 -107.5z" />
    <glyph glyph-name="d" unicode="d" horiz-adv-x="567" 
d="M266 414q-74 0 -117.5 -66t-43.5 -146q0 -59 29 -95t85 -36q69 0 114 63t45 156q0 55 -28 89.5t-84 34.5zM343 61q-24 -31 -62 -51t-81 -20q-90 0 -140 59.5t-50 151.5q0 120 71 207t180 87q56 0 94 -21.5t56 -53.5l64 304h93l-126 -599q-11 -50 -11 -109q0 -8 1 -16h-89
q-2 10 -2 28q0 16 2 33z" />
    <glyph glyph-name="e" unicode="e" horiz-adv-x="528" 
d="M118 290h256q2 8 2 20q0 42 -26 72.5t-81 30.5q-57 0 -97 -36t-54 -87zM459 214h-354q-1 -7 -1 -17q0 -58 35 -93.5t87 -35.5q97 0 142 80l71 -46q-27 -50 -83 -83.5t-128 -33.5q-94 0 -156 57.5t-62 161.5q0 131 79 211.5t185 80.5q95 0 147 -53t52 -141q0 -43 -14 -88z
" />
    <glyph glyph-name="f" unicode="f" horiz-adv-x="332" 
d="M331 643q-67 0 -84 -77l-18 -85h109l-18 -83h-109l-84 -398h-97l84 398h-81l18 83h81l21 100q31 148 172 148q43 0 64 -14l-18 -80q-20 8 -40 8z" />
    <glyph glyph-name="g" unicode="g" horiz-adv-x="565" 
d="M378 293q0 46 -30 81t-88 35q-66 0 -109.5 -48t-43.5 -130q0 -56 30.5 -92.5t88.5 -36.5q69 0 110.5 51.5t41.5 139.5zM-47 -29l89 21v-7q0 -47 29.5 -77.5t86.5 -30.5q135 0 169 166l8 39q-17 -26 -50.5 -42.5t-77.5 -16.5q-90 0 -142.5 57t-52.5 145q0 113 69 189.5
t176 76.5q106 0 149 -74l13 64h96l-90 -435q-53 -251 -271 -251q-95 0 -148 52t-53 124z" />
    <glyph glyph-name="h" unicode="h" horiz-adv-x="555" 
d="M409 0h-94l62 291q4 17 4 37q0 40 -22.5 62t-65.5 22q-53 0 -87.5 -38.5t-46.5 -93.5l-60 -280h-94l154 724h94l-60 -283q48 54 138 54q67 0 107.5 -39t40.5 -105q0 -19 -5 -46z" />
    <glyph glyph-name="i" unicode="i" horiz-adv-x="257" 
d="M125 659q0 31 23 52.5t51 21.5q27 0 44 -17.5t17 -42.5q0 -30 -23 -52t-51 -22q-27 0 -44 17.5t-17 42.5zM99 0h-94l103 481h94z" />
    <glyph glyph-name="j" unicode="j" horiz-adv-x="256" 
d="M-8 -57l116 538h93l-119 -560q-13 -60 -51.5 -93t-93.5 -33q-43 0 -68 14l16 75q18 -6 37 -6q31 0 46.5 15t23.5 50zM125 659q0 31 23 52.5t51 21.5q27 0 44 -17.5t17 -42.5q0 -30 -23 -52t-51 -22q-27 0 -44 17.5t-17 42.5z" />
    <glyph glyph-name="k" unicode="k" horiz-adv-x="527" 
d="M336 0l-109 228l-98 -80l-31 -148h-93l154 724h93l-94 -440l239 197h140l-238 -194l142 -287h-105z" />
    <glyph glyph-name="l" unicode="l" horiz-adv-x="255" 
d="M99 0h-94l154 724h94z" />
    <glyph glyph-name="m" unicode="m" horiz-adv-x="828" 
d="M390 0h-94l64 302q4 22 4 32q0 36 -20.5 57.5t-62.5 21.5q-48 0 -78.5 -33t-42.5 -90l-62 -290h-93l84 396q12 53 12 85h92q0 -20 -5 -50q53 64 139 64q43 0 74 -21t46 -56q61 77 165 77q59 0 99.5 -36.5t40.5 -101.5q0 -18 -5 -45l-67 -312h-93l64 302q4 22 4 33
q0 34 -21 56t-62 22q-47 0 -77.5 -33.5t-42.5 -88.5z" />
    <glyph glyph-name="n" unicode="n" horiz-adv-x="555" 
d="M409 0h-94l62 291q4 20 4 37q0 40 -22.5 62t-65.5 22q-53 0 -87.5 -38.5t-46.5 -93.5l-60 -280h-94l84 396q12 54 12 85h92q0 -20 -6 -53q50 67 149 67q64 0 103.5 -39.5t39.5 -104.5q0 -19 -5 -46z" />
    <glyph glyph-name="o" unicode="o" horiz-adv-x="541" 
d="M267 412q-66 0 -113.5 -54.5t-47.5 -148.5q0 -64 33 -102t89 -38q66 0 114 55t48 149q0 63 -33 101t-90 38zM486 275q0 -122 -75 -206t-187 -84q-99 0 -156.5 64t-57.5 158q0 124 75 206.5t188 82.5q100 0 156.5 -63t56.5 -158z" />
    <glyph glyph-name="p" unicode="p" horiz-adv-x="565" 
d="M291 409q-65 0 -112.5 -55t-47.5 -149q0 -63 32 -98.5t88 -35.5q65 0 113.5 56t48.5 150q0 64 -31.5 98t-90.5 34zM173 426q54 68 153 68q90 0 136.5 -57.5t46.5 -148.5q0 -130 -70 -215.5t-182 -85.5q-50 0 -93.5 23.5t-64.5 63.5l-56 -264h-93l125 586q12 57 12 85h92
q0 -26 -6 -55z" />
    <glyph glyph-name="q" unicode="q" horiz-adv-x="565" 
d="M515 481l-142 -671h-93l50 236q-54 -56 -130 -56q-91 0 -143 60.5t-52 150.5q0 120 71.5 206.5t180.5 86.5q55 0 94.5 -20.5t58.5 -51.5l12 59h93zM262 412q-74 0 -118 -64.5t-44 -145.5q0 -58 31 -94.5t90 -36.5q68 0 112.5 61.5t44.5 152.5q0 58 -29 92.5t-87 34.5z
" />
    <glyph glyph-name="r" unicode="r" horiz-adv-x="364" 
d="M347 384q-18 3 -34 3q-61 0 -105 -39t-61 -120l-49 -228h-93l84 396q12 59 12 85h92q0 -44 -9 -75q51 83 158 83q13 0 27 -2z" />
    <glyph glyph-name="s" unicode="s" horiz-adv-x="441" 
d="M-10 150l83 19q1 -44 29.5 -74t75.5 -30q37 0 57 19t20 45q0 36 -45 57l-70 32q-86 39 -86 122q0 64 48.5 110t127.5 46q45 0 79 -14t52.5 -36.5t28 -44.5t11.5 -44l-84 -23q-13 83 -96 83q-35 0 -55.5 -18.5t-20.5 -44.5q0 -37 38 -54l66 -30q100 -45 100 -134
q0 -56 -44.5 -103.5t-131.5 -47.5q-90 0 -136.5 51.5t-46.5 113.5z" />
    <glyph glyph-name="t" unicode="t" horiz-adv-x="337" 
d="M59 101q0 20 4 37l55 258h-88l18 85h14q83 0 99 78l16 74h86l-33 -152h97l-18 -85h-97l-53 -253q-3 -13 -3 -23q0 -43 54 -43q16 0 32 2l-16 -77q-18 -7 -51 -7q-53 0 -84.5 28t-31.5 78z" />
    <glyph glyph-name="u" unicode="u" horiz-adv-x="544" 
d="M318 56q-23 -32 -59 -49t-72 -17q-73 0 -114 42t-41 113q0 27 6 55l60 281h94l-59 -279q-5 -27 -5 -46q0 -86 85 -86q51 0 84.5 37t44.5 93l59 281h93l-75 -356q-11 -50 -11 -109q0 -8 1 -16h-90q-2 10 -2 28q0 15 1 28z" />
    <glyph glyph-name="v" unicode="v" horiz-adv-x="482" 
d="M497 481l-285 -481h-91l-86 481h97l53 -368l206 368h106z" />
    <glyph glyph-name="w" unicode="w" horiz-adv-x="768" 
d="M349 481h99l46 -359l181 359h103l-255 -481h-97l-48 364l-190 -364h-99l-49 481h90l31 -358z" />
    <glyph glyph-name="x" unicode="x" horiz-adv-x="495" 
d="M215 174l-159 -174h-121l235 246l-126 235h103l86 -167l152 167h120l-227 -238l131 -243h-103z" />
    <glyph glyph-name="y" unicode="y" horiz-adv-x="504" 
d="M78 -190h-108l181 273l-118 398h102l85 -302l188 302h111z" />
    <glyph glyph-name="z" unicode="z" horiz-adv-x="473" 
d="M359 0h-389l18 84l327 312h-252l18 85h372l-18 -85l-327 -311h269z" />
    <glyph glyph-name="braceleft" unicode="{" horiz-adv-x="353" 
d="M28 274l18 87q48 0 84 24t47 76l29 138q21 102 69 144t141 42h23l-16 -75h-14q-58 0 -85.5 -25t-38.5 -80l-35 -165q-11 -51 -44 -83t-85 -39q35 -9 56.5 -35t21.5 -65q0 -14 -3 -31l-31 -146q-5 -20 -5 -43q0 -72 85 -72h13l-16 -74h-14q-148 0 -148 125q0 29 7 60
l30 138q3 15 3 28q0 71 -92 71z" />
    <glyph glyph-name="bar" unicode="|" horiz-adv-x="262" 
d="M65 -148h-82l198 933h82z" />
    <glyph glyph-name="braceright" unicode="}" horiz-adv-x="354" 
d="M310 360l-18 -87q-110 0 -131 -98l-30 -138q-20 -94 -73 -139.5t-145 -45.5h-14l16 74h12q104 0 128 115l35 164q20 93 129 116q-38 7 -60 32.5t-22 60.5q0 12 3 26l35 165q6 27 6 46q0 31 -18.5 45t-62.5 14h-19l16 75h23q142 0 142 -116q0 -28 -7 -57l-34 -151
q-4 -20 -4 -28q0 -37 26 -55t67 -18z" />
    <glyph glyph-name="asciitilde" unicode="~" horiz-adv-x="640" 
d="M498 351l57 -46q-56 -93 -150 -93q-47 0 -97 27l-46 25q-28 15 -54 15q-54 0 -96 -57l-57 46q58 95 152 95q49 0 95 -26l46 -25q28 -16 57 -16q58 0 93 55z" />
    <glyph glyph-name="uni00A0" unicode="&#xa0;" horiz-adv-x="261" 
 />
    <glyph glyph-name="exclamdown" unicode="&#xa1;" horiz-adv-x="254" 
d="M154 288l-79 -506h-120l132 506h67zM214 438q0 -30 -21 -51.5t-51 -21.5q-27 0 -43.5 16.5t-16.5 41.5q0 30 21.5 51.5t49.5 21.5q27 0 44 -16.5t17 -41.5z" />
    <glyph glyph-name="cent" unicode="&#xa2;" horiz-adv-x="554" 
d="M170 0l19 92q-67 20 -105.5 74.5t-38.5 126.5q0 116 70.5 192.5t174.5 81.5l17 81h76l-19 -88q105 -26 135 -137l-86 -29q-14 61 -66 82l-66 -311q76 7 117 83l78 -33q-30 -58 -83.5 -95.5t-129.5 -37.5l-17 -82h-76zM138 294q0 -88 69 -118l65 307q-58 -10 -96 -58.5
t-38 -130.5z" />
    <glyph glyph-name="sterling" unicode="&#xa3;" horiz-adv-x="597" 
d="M64 273l18 86h74q-11 59 -11 88q0 92 58.5 154t152.5 62q83 0 131.5 -42.5t48.5 -116.5q0 -19 -4 -33l-93 -14q3 17 3 32q0 37 -23.5 62.5t-66.5 25.5q-50 0 -80.5 -32.5t-30.5 -91.5q0 -25 13 -94h193l-18 -86h-167q-3 -61 -38.5 -110.5t-95.5 -75.5h210q49 0 80 31
t39 79l88 -18q-15 -84 -69.5 -131.5t-133.5 -47.5h-342l20 104q70 20 106.5 65.5t39.5 103.5h-102z" />
    <glyph glyph-name="currency" unicode="&#xa4;" horiz-adv-x="579" 
d="M73 239q0 65 37 120l-75 78l60 59l75 -78q54 35 116 35q60 0 111 -31l72 74l60 -59l-70 -73q41 -57 41 -125t-39 -123l68 -71l-59 -59l-70 72q-52 -33 -114 -33q-64 0 -119 37l-73 -76l-59 59l73 76q-35 54 -35 118zM156 239q0 -58 37.5 -95t92.5 -37t91.5 37t36.5 95
q0 57 -36.5 94t-91.5 37t-92.5 -37t-37.5 -94z" />
    <glyph glyph-name="yen" unicode="&#xa5;" horiz-adv-x="583" 
d="M73 306l15 71h122l-106 271h110l92 -262l194 262h113l-213 -271h122l-15 -71h-169l-17 -80h169l-16 -72h-168l-32 -154h-97l32 154h-169l16 72h168l17 80h-168z" />
    <glyph glyph-name="brokenbar" unicode="&#xa6;" horiz-adv-x="262" 
d="M179 386h-82l84 399h82zM65 -148h-82l85 399h82z" />
    <glyph glyph-name="section" unicode="&#xa7;" horiz-adv-x="567" 
d="M4 -8l92 8q-5 -23 -5 -39q0 -45 25.5 -71.5t76.5 -26.5q45 0 78 28t33 76q0 45 -41 75l-91 65q-50 36 -77.5 71.5t-27.5 82.5q0 56 36 93.5t79 51.5q-62 50 -62 127q0 85 65 138t151 53q90 0 138 -46t48 -116q0 -23 -4 -43l-93 -9q5 23 5 40q0 44 -25.5 70t-74.5 26
q-46 0 -80 -28.5t-34 -74.5q0 -44 43 -75l90 -65q34 -25 53.5 -42t36 -46.5t16.5 -61.5q0 -56 -36 -97t-78 -53q61 -52 61 -126q0 -87 -65 -139.5t-152 -52.5q-88 0 -136.5 46t-48.5 116q0 24 4 45zM316 307l-87 64q-25 -7 -47 -33t-22 -60q0 -43 45 -75l87 -64
q24 6 47 32.5t23 59.5q0 41 -46 76z" />
    <glyph glyph-name="dieresis" unicode="&#xa8;" horiz-adv-x="352" 
d="M65 614q0 26 19 45.5t45 19.5q23 0 38 -15.5t15 -37.5q0 -27 -20 -45t-46 -18q-22 0 -36.5 15t-14.5 36zM260 614q0 26 19 45.5t45 19.5q23 0 38 -15.5t15 -37.5q0 -27 -20 -45t-46 -18q-22 0 -36.5 15t-14.5 36z" />
    <glyph glyph-name="copyright" unicode="&#xa9;" horiz-adv-x="826" 
d="M40 355q0 153 106.5 261t257.5 108q152 0 259.5 -108.5t107.5 -260.5q0 -153 -107.5 -261.5t-259.5 -108.5q-151 0 -257.5 108.5t-106.5 261.5zM118 355q0 -126 83 -211.5t203 -85.5t203 85.5t83 211.5t-83 211t-203 85t-203 -85t-83 -211zM593 441l-71 -25
q-8 35 -32.5 58t-65.5 23q-54 0 -93.5 -44t-39.5 -123q0 -52 29.5 -83t78.5 -31q73 0 110 74l65 -29q-58 -114 -179 -114q-83 0 -132.5 51t-49.5 131q0 103 62.5 170t153.5 67q73 0 112 -37t52 -88z" />
    <glyph glyph-name="ordfeminine" unicode="&#xaa;" horiz-adv-x="463" 
d="M242 592q-49 0 -77.5 -43t-28.5 -96q0 -39 19.5 -62.5t56.5 -23.5q44 0 74 40.5t30 102.5q0 37 -19 59.5t-55 22.5zM349 648h73l-53 -256q-7 -32 -7 -61v-22h-70q-1 7 -1 21q0 11 1 22q-39 -50 -97 -50q-63 0 -98.5 42.5t-35.5 107.5q0 86 50 146t126 60q74 0 104 -52z
" />
    <glyph glyph-name="guillemotleft" unicode="&#xab;" horiz-adv-x="477" 
d="M206 99h-93l-98 194l171 188h103l-176 -197zM399 99h-93l-98 194l171 188h103l-176 -197z" />
    <glyph glyph-name="logicalnot" unicode="&#xac;" horiz-adv-x="618" 
d="M523 149h-84v195h-379v82h463v-277z" />
    <glyph glyph-name="uni00AD" unicode="&#xad;" horiz-adv-x="358" 
d="M291 246h-271l17 82h271z" />
    <glyph glyph-name="registered" unicode="&#xae;" horiz-adv-x="826" 
d="M40 355q0 153 106.5 261t257.5 108q152 0 259.5 -108.5t107.5 -260.5q0 -153 -107.5 -261.5t-259.5 -108.5q-151 0 -257.5 108.5t-106.5 261.5zM118 355q0 -126 83 -211.5t203 -85.5t203 85.5t83 211.5t-83 211t-203 85t-203 -85t-83 -211zM368 367h53q41 0 65 19.5
t24 56.5q0 51 -63 51h-50zM457 157l-59 149h-42l-31 -149h-73l85 401h132q51 0 83 -33.5t32 -78.5q0 -52 -32.5 -88.5t-85.5 -45.5l65 -155h-74z" />
    <glyph glyph-name="macron" unicode="&#xaf;" horiz-adv-x="330" 
d="M338 577h-273l17 81h273z" />
    <glyph glyph-name="degree" unicode="&#xb0;" horiz-adv-x="399" 
d="M206 426q34 0 59.5 25.5t25.5 65.5q0 30 -19 48.5t-51 18.5q-33 0 -58 -26t-25 -63q0 -30 18.5 -49.5t49.5 -19.5zM198 348q-62 0 -102.5 40.5t-40.5 100.5q0 71 51.5 122.5t123.5 51.5q61 0 102.5 -41.5t41.5 -101.5q0 -72 -54 -122t-122 -50z" />
    <glyph glyph-name="plusminus" unicode="&#xb1;" horiz-adv-x="592" 
d="M324 309v-134h-82v134h-177v77h177v136h82v-136h178v-77h-178zM65 51v79h437v-79h-437z" />
    <glyph glyph-name="twosuperior" unicode="&#xb2;" horiz-adv-x="381" 
d="M170 510l63 28q57 25 57 65q0 19 -13.5 33.5t-37.5 14.5q-30 0 -48 -19.5t-18 -57.5h-75q0 67 39.5 104t103.5 37q60 0 93.5 -31.5t33.5 -76.5q0 -84 -96 -125l-76 -33q-31 -13 -42 -40h184l-14 -65h-274q12 118 120 166z" />
    <glyph glyph-name="threesuperior" unicode="&#xb3;" horiz-adv-x="425" 
d="M198 515l-26 60l114 69h-160l14 65h260l-14 -74l-114 -67q36 -7 60.5 -35t24.5 -64q0 -54 -40 -93t-107 -39q-57 0 -96 31.5t-39 83.5q0 9 2 19l69 5q-1 -4 -1 -11q0 -25 18 -43.5t46 -18.5q31 0 51.5 17t20.5 47q0 24 -17.5 38t-41.5 14q-14 0 -24 -4z" />
    <glyph glyph-name="acute" unicode="&#xb4;" horiz-adv-x="279" 
d="M304 689l-155 -146h-84l115 146h124z" />
    <glyph glyph-name="mu" unicode="&#xb5;" horiz-adv-x="577" 
d="M65 -190v671h95v-289q0 -54 26.5 -89t82.5 -35t85 33.5t29 89.5v290h94v-392q0 -49 5 -89h-90q-4 22 -4 58q-19 -36 -58 -54.5t-84 -18.5q-49 0 -87 20v-195h-94z" />
    <glyph glyph-name="paragraph" unicode="&#xb6;" horiz-adv-x="626" 
d="M381 628l-176 -829h-83l111 522h-9q-70 0 -117 45.5t-47 113.5q0 105 81.5 167t189.5 62h340l-17 -81h-97l-176 -829h-83l176 829h-93z" />
    <glyph glyph-name="periodcentered" unicode="&#xb7;" horiz-adv-x="272" 
d="M55 276q0 32 23 55t55 23q29 0 46.5 -18t17.5 -44q0 -32 -23 -54.5t-54 -22.5q-29 0 -47 18t-18 43z" />
    <glyph glyph-name="cedilla" unicode="&#xb8;" horiz-adv-x="294" 
d="M70 14h84l-79 -66q33 -4 50.5 -24.5t17.5 -47.5q0 -39 -32.5 -65.5t-82.5 -26.5q-48 0 -81 22t-43 49l52 32q21 -48 71 -48q19 0 32.5 9t13.5 26q0 15 -11.5 24t-31.5 9q-9 0 -14 -1l-22 42z" />
    <glyph glyph-name="onesuperior" unicode="&#xb9;" horiz-adv-x="290" 
d="M176 344h-77l56 250h-80l10 51q36 1 63.5 18.5t38.5 45.5h68z" />
    <glyph glyph-name="ordmasculine" unicode="&#xba;" horiz-adv-x="455" 
d="M243 591q-44 0 -75 -36.5t-31 -96.5q0 -42 22 -67t58 -25q43 0 75 36t32 98q0 42 -21.5 66.5t-59.5 24.5zM400 502q0 -85 -53 -144t-133 -59q-70 0 -111.5 44.5t-41.5 111.5q0 88 54 146t133 58q71 0 111.5 -45t40.5 -112z" />
    <glyph glyph-name="guillemotright" unicode="&#xbb;" horiz-adv-x="492" 
d="M48 481h93l98 -194l-171 -188h-103l176 197zM256 481h93l98 -194l-171 -188h-103l176 197z" />
    <glyph glyph-name="onequarter" unicode="&#xbc;" horiz-adv-x="796" 
d="M369 76l16 85l206 204h88l-48 -224h65l-14 -65h-64l-1 -6q-6 -25 -15 -70h-76l16 76h-173zM555 141l31 137l-138 -137h107zM190 283h-77l56 250h-80l10 51q36 1 63.5 18.5t38.5 45.5h68zM716 648l-604 -648h-97l606 648h95z" />
    <glyph glyph-name="onehalf" unicode="&#xbd;" horiz-adv-x="815" 
d="M716 648l-604 -648h-97l606 648h95zM190 283h-77l56 250h-80l10 51q36 1 63.5 18.5t38.5 45.5h68zM547 166l63 28q57 25 57 65q0 19 -13.5 33.5t-37.5 14.5q-30 0 -48 -19.5t-18 -57.5h-75q0 67 39.5 104t103.5 37q60 0 93.5 -31.5t33.5 -76.5q0 -84 -96 -125l-76 -33
q-31 -13 -42 -40h184l-14 -65h-274q12 118 120 166z" />
    <glyph glyph-name="threequarters" unicode="&#xbe;" horiz-adv-x="884" 
d="M457 76l16 85l206 204h88l-48 -224h65l-14 -65h-64l-1 -6q-6 -25 -15 -70h-76l16 76h-173zM643 141l31 137l-138 -137h107zM804 648l-604 -648h-97l606 648h95zM178 454l-26 60l114 69h-160l14 65h260l-14 -74l-114 -67q36 -7 60.5 -35t24.5 -64q0 -54 -40 -93t-107 -39
q-57 0 -96 31.5t-39 83.5q0 9 2 19l69 5q-1 -4 -1 -11q0 -25 18 -43.5t46 -18.5q31 0 51.5 17t20.5 47q0 24 -17.5 38t-41.5 14q-14 0 -24 -4z" />
    <glyph glyph-name="questiondown" unicode="&#xbf;" horiz-adv-x="457" 
d="M201 288h86q-10 -126 -120 -191l-51 -30q-75 -43 -75 -117q0 -40 27 -67.5t80 -27.5q70 0 107 45.5t37 111.5l95 -13q-4 -103 -71.5 -167.5t-177.5 -64.5q-92 0 -145 49t-53 119q0 129 138 207l54 31q64 36 69 115zM326 438q0 -30 -21 -51.5t-51 -21.5q-27 0 -43.5 16.5
t-16.5 41.5q0 30 21.5 51.5t49.5 21.5q27 0 44 -16.5t17 -41.5z" />
    <glyph glyph-name="Agrave" unicode="&#xc0;" horiz-adv-x="654" 
d="M485 0l-32 198h-297l-115 -198h-111l423 709h108l123 -709h-99zM388 599l-179 -310h229zM373 759l-107 119h118l75 -119h-86z" />
    <glyph glyph-name="Aacute" unicode="&#xc1;" horiz-adv-x="654" 
d="M485 0l-32 198h-297l-115 -198h-111l423 709h108l123 -709h-99zM388 599l-179 -310h229zM616 878l-153 -119h-97l119 119h131z" />
    <glyph glyph-name="Acircumflex" unicode="&#xc2;" horiz-adv-x="654" 
d="M485 0l-32 198h-297l-115 -198h-111l423 709h108l123 -709h-99zM388 599l-179 -310h229zM323 759h-87l135 119h120l90 -119h-83l-74 64z" />
    <glyph glyph-name="Atilde" unicode="&#xc3;" horiz-adv-x="654" 
d="M485 0l-32 198h-297l-115 -198h-111l423 709h108l123 -709h-99zM388 599l-179 -310h229zM586 881q-21 -126 -113 -126q-36 0 -70 24l-12 8q-21 14 -38 14q-31 0 -39 -44h-70q7 64 38 95t76 31q36 0 70 -24l12 -8q21 -14 38 -14q31 0 39 44h69z" />
    <glyph glyph-name="Adieresis" unicode="&#xc4;" horiz-adv-x="654" 
d="M215 813q0 28 19 46.5t47 18.5q23 0 37.5 -15t14.5 -37q0 -28 -19.5 -47t-45.5 -19q-23 0 -38 15t-15 38zM503 813q0 28 19 46.5t47 18.5q23 0 37.5 -15t14.5 -37q0 -28 -19.5 -47t-45.5 -19q-23 0 -38 15t-15 38zM485 0l-32 198h-297l-115 -198h-111l423 709h108
l123 -709h-99zM388 599l-179 -310h229z" />
    <glyph glyph-name="Aring" unicode="&#xc5;" horiz-adv-x="654" 
d="M410 811q-21 0 -38.5 -15.5t-17.5 -39.5q0 -22 13 -34.5t35 -12.5q23 0 40 15.5t17 39.5q0 20 -13.5 33.5t-35.5 13.5zM388 599l-179 -310h229zM485 0l-32 198h-297l-115 -198h-111l396 663q-42 32 -42 84q0 57 41 95t93 38q48 0 80.5 -32.5t32.5 -77.5q0 -32 -17 -61.5
t-45 -47.5l115 -661h-99z" />
    <glyph glyph-name="AE" unicode="&#xc6;" horiz-adv-x="1019" 
d="M575 91h328l-19 -91h-426l40 191h-281l-163 -191h-124l615 709h489l-19 -91h-328l-46 -218h297l-20 -92h-297zM292 279h225l74 350z" />
    <glyph glyph-name="Ccedilla" unicode="&#xc7;" horiz-adv-x="719" 
d="M231 -52l48 42q-110 18 -177 102.5t-67 208.5q0 100 33 182.5t87.5 133.5t122 79t139.5 28q121 0 194 -63t93 -162l-93 -27q-15 71 -68 116.5t-136 45.5q-125 0 -198.5 -96.5t-73.5 -230.5q0 -108 56 -170.5t153 -62.5q157 0 228 160l86 -35q-42 -96 -119.5 -152
t-181.5 -61l-45 -38q33 -4 50.5 -24.5t17.5 -47.5q0 -39 -32.5 -65.5t-82.5 -26.5q-47 0 -80 22.5t-44 48.5l52 32q21 -48 71 -48q19 0 32.5 9t13.5 26q0 15 -12.5 24t-30.5 9q-9 0 -14 -1z" />
    <glyph glyph-name="Egrave" unicode="&#xc8;" horiz-adv-x="576" 
d="M441 0h-426l150 709h426l-19 -91h-328l-46 -218h297l-20 -92h-297l-46 -217h328zM367 759l-107 119h118l75 -119h-86z" />
    <glyph glyph-name="Eacute" unicode="&#xc9;" horiz-adv-x="576" 
d="M441 0h-426l150 709h426l-19 -91h-328l-46 -218h297l-20 -92h-297l-46 -217h328zM562 878l-153 -119h-97l119 119h131z" />
    <glyph glyph-name="Ecircumflex" unicode="&#xca;" horiz-adv-x="576" 
d="M441 0h-426l150 709h426l-19 -91h-328l-46 -218h297l-20 -92h-297l-46 -217h328zM302 759h-87l135 119h120l90 -119h-83l-74 64z" />
    <glyph glyph-name="Edieresis" unicode="&#xcb;" horiz-adv-x="576" 
d="M221 813q0 28 19 46.5t47 18.5q23 0 37.5 -15t14.5 -37q0 -28 -19.5 -47t-45.5 -19q-23 0 -38 15t-15 38zM451 813q0 28 19 46.5t47 18.5q23 0 37.5 -15t14.5 -37q0 -28 -19.5 -47t-45.5 -19q-23 0 -38 15t-15 38zM441 0h-426l150 709h426l-19 -91h-328l-46 -218h297
l-20 -92h-297l-46 -217h328z" />
    <glyph glyph-name="Igrave" unicode="&#xcc;" horiz-adv-x="280" 
d="M196 759l-107 119h118l75 -119h-86zM115 0h-100l150 709h100z" />
    <glyph glyph-name="Iacute" unicode="&#xcd;" horiz-adv-x="280" 
d="M428 878l-153 -119h-97l119 119h131zM115 0h-100l150 709h100z" />
    <glyph glyph-name="Icircumflex" unicode="&#xce;" horiz-adv-x="280" 
d="M138 759h-87l135 119h120l90 -119h-83l-74 64zM115 0h-100l150 709h100z" />
    <glyph glyph-name="Idieresis" unicode="&#xcf;" horiz-adv-x="280" 
d="M102 813q0 25 17 42t43 17q20 0 33 -13.5t13 -32.5q0 -26 -17.5 -43t-41.5 -17q-20 0 -33.5 13.5t-13.5 33.5zM257 813q0 25 17 42t43 17q20 0 33 -13.5t13 -32.5q0 -26 -17.5 -43t-41.5 -17q-20 0 -33.5 13.5t-13.5 33.5zM115 0h-100l150 709h100z" />
    <glyph glyph-name="Eth" unicode="&#xd0;" horiz-adv-x="690" 
d="M15 320l17 82h68l65 307h193q136 0 216.5 -77t80.5 -206q0 -101 -32.5 -184t-86.5 -134.5t-121 -79.5t-139 -28h-261l67 320h-67zM131 87h145q51 0 100 21.5t90 62t66 105.5t25 144q0 99 -56.5 150.5t-160.5 51.5h-95l-47 -220h150l-17 -82h-151z" />
    <glyph glyph-name="Ntilde" unicode="&#xd1;" horiz-adv-x="738" 
d="M639 881q-21 -126 -113 -126q-36 0 -70 24l-12 8q-21 14 -38 14q-31 0 -39 -44h-70q7 64 38 95t76 31q36 0 70 -24l12 -8q21 -14 38 -14q31 0 39 44h69zM573 0h-102l-236 574l-122 -574h-98l150 709h117l225 -554l118 554h98z" />
    <glyph glyph-name="Ograve" unicode="&#xd2;" horiz-adv-x="753" 
d="M35 294q0 102 33 186t87 136t120.5 80t136.5 28q139 0 222.5 -85t83.5 -225q0 -102 -33 -185.5t-87 -135.5t-120 -80t-136 -28q-139 0 -223 85t-84 224zM618 404q0 108 -59 169t-153 61q-84 0 -147 -48t-93.5 -122t-30.5 -160q0 -108 59 -168.5t153 -60.5q84 0 147 47.5
t93.5 121.5t30.5 160zM411 759l-107 119h118l75 -119h-86z" />
    <glyph glyph-name="Oacute" unicode="&#xd3;" horiz-adv-x="753" 
d="M35 294q0 102 33 186t87 136t120.5 80t136.5 28q139 0 222.5 -85t83.5 -225q0 -102 -33 -185.5t-87 -135.5t-120 -80t-136 -28q-139 0 -223 85t-84 224zM618 404q0 108 -59 169t-153 61q-84 0 -147 -48t-93.5 -122t-30.5 -160q0 -108 59 -168.5t153 -60.5q84 0 147 47.5
t93.5 121.5t30.5 160zM639 878l-153 -119h-97l119 119h131z" />
    <glyph glyph-name="Ocircumflex" unicode="&#xd4;" horiz-adv-x="753" 
d="M35 294q0 102 33 186t87 136t120.5 80t136.5 28q139 0 222.5 -85t83.5 -225q0 -102 -33 -185.5t-87 -135.5t-120 -80t-136 -28q-139 0 -223 85t-84 224zM618 404q0 108 -59 169t-153 61q-84 0 -147 -48t-93.5 -122t-30.5 -160q0 -108 59 -168.5t153 -60.5q84 0 147 47.5
t93.5 121.5t30.5 160zM349 759h-87l135 119h120l90 -119h-83l-74 64z" />
    <glyph glyph-name="Otilde" unicode="&#xd5;" horiz-adv-x="753" 
d="M626 881q-21 -126 -113 -126q-36 0 -70 24l-12 8q-21 14 -38 14q-31 0 -39 -44h-70q7 64 38 95t76 31q36 0 70 -24l12 -8q21 -14 38 -14q31 0 39 44h69zM35 294q0 102 33 186t87 136t120.5 80t136.5 28q139 0 222.5 -85t83.5 -225q0 -102 -33 -185.5t-87 -135.5t-120 -80
t-136 -28q-139 0 -223 85t-84 224zM618 404q0 108 -59 169t-153 61q-84 0 -147 -48t-93.5 -122t-30.5 -160q0 -108 59 -168.5t153 -60.5q84 0 147 47.5t93.5 121.5t30.5 160z" />
    <glyph glyph-name="Odieresis" unicode="&#xd6;" horiz-adv-x="753" 
d="M230 813q0 28 19 46.5t47 18.5q23 0 37.5 -15t14.5 -37q0 -28 -19.5 -47t-45.5 -19q-23 0 -38 15t-15 38zM550 813q0 28 19 46.5t47 18.5q23 0 37.5 -15t14.5 -37q0 -28 -19.5 -47t-45.5 -19q-23 0 -38 15t-15 38zM35 294q0 102 33 186t87 136t120.5 80t136.5 28
q139 0 222.5 -85t83.5 -225q0 -102 -33 -185.5t-87 -135.5t-120 -80t-136 -28q-139 0 -223 85t-84 224zM618 404q0 108 -59 169t-153 61q-84 0 -147 -48t-93.5 -122t-30.5 -160q0 -108 59 -168.5t153 -60.5q84 0 147 47.5t93.5 121.5t30.5 160z" />
    <glyph glyph-name="multiply" unicode="&#xd7;" horiz-adv-x="540" 
d="M101 56l-56 56l169 175l-168 175l57 57l167 -174l167 174l57 -56l-169 -175l170 -176l-56 -57l-170 175z" />
    <glyph glyph-name="Oslash" unicode="&#xd8;" horiz-adv-x="753" 
d="M35 294q0 102 33 186t87 136t120.5 80t136.5 28q125 0 206 -70l77 77l59 -57l-82 -83q46 -74 46 -177q0 -102 -33 -185.5t-87 -135.5t-120 -80t-136 -28q-124 0 -204 68l-73 -74l-59 57l78 78q-49 75 -49 180zM135 304q0 -66 23 -115l391 395q-56 50 -143 50
q-84 0 -147 -48t-93.5 -122t-30.5 -160zM618 404q0 64 -21 112l-389 -393q54 -48 139 -48q84 0 147 47.5t93.5 121.5t30.5 160z" />
    <glyph glyph-name="Ugrave" unicode="&#xd9;" horiz-adv-x="666" 
d="M562 709h99l-104 -493q-23 -110 -94 -170.5t-175 -60.5q-107 0 -169.5 55.5t-62.5 155.5q0 38 8 74l93 439h94l-92 -451q-6 -28 -6 -54q0 -60 35 -94t105 -34q65 0 108.5 39t58.5 110zM391 759l-107 119h118l75 -119h-86z" />
    <glyph glyph-name="Uacute" unicode="&#xda;" horiz-adv-x="666" 
d="M562 709h99l-104 -493q-23 -110 -94 -170.5t-175 -60.5q-107 0 -169.5 55.5t-62.5 155.5q0 38 8 74l93 439h94l-92 -451q-6 -28 -6 -54q0 -60 35 -94t105 -34q65 0 108.5 39t58.5 110zM588 878l-153 -119h-97l119 119h131z" />
    <glyph glyph-name="Ucircumflex" unicode="&#xdb;" horiz-adv-x="666" 
d="M562 709h99l-104 -493q-23 -110 -94 -170.5t-175 -60.5q-107 0 -169.5 55.5t-62.5 155.5q0 38 8 74l93 439h94l-92 -451q-6 -28 -6 -54q0 -60 35 -94t105 -34q65 0 108.5 39t58.5 110zM329 759h-87l135 119h120l90 -119h-83l-74 64z" />
    <glyph glyph-name="Udieresis" unicode="&#xdc;" horiz-adv-x="666" 
d="M257 813q0 28 19 46.5t47 18.5q23 0 37.5 -15t14.5 -37q0 -28 -19.5 -47t-45.5 -19q-23 0 -38 15t-15 38zM467 813q0 28 19 46.5t47 18.5q23 0 37.5 -15t14.5 -37q0 -28 -19.5 -47t-45.5 -19q-23 0 -38 15t-15 38zM562 709h99l-104 -493q-23 -110 -94 -170.5t-175 -60.5
q-107 0 -169.5 55.5t-62.5 155.5q0 38 8 74l93 439h94l-92 -451q-6 -28 -6 -54q0 -60 35 -94t105 -34q65 0 108.5 39t58.5 110z" />
    <glyph glyph-name="Yacute" unicode="&#xdd;" horiz-adv-x="611" 
d="M257 305l-162 404h103l123 -311l228 311h117l-313 -410l-62 -299h-98zM566 878l-153 -119h-97l119 119h131z" />
    <glyph glyph-name="Thorn" unicode="&#xde;" horiz-adv-x="594" 
d="M350 483h-134l-52 -241h139q72 0 117 38t45 104q0 45 -30 72t-85 27zM113 0h-98l150 709h98l-30 -139h133q91 0 144.5 -50.5t53.5 -129.5q0 -106 -75 -170.5t-186 -64.5h-157z" />
    <glyph glyph-name="germandbls" unicode="&#xdf;" horiz-adv-x="572" 
d="M359 329q0 -17 33 -44l28 -23q70 -57 70 -126q0 -57 -43 -104t-124 -47q-64 0 -108.5 37t-44.5 97q0 17 2 26l87 13q-3 -10 -3 -21q0 -29 16.5 -51.5t54.5 -22.5q35 0 52 19.5t17 41.5q0 14 -5.5 25.5t-12 18t-20.5 19.5l-25 21q-70 58 -70 119q0 77 78 117l35 18
q76 39 76 95q0 33 -28.5 58.5t-77.5 25.5t-87.5 -33.5t-53.5 -106.5l-106 -501h-94l108 516q21 104 86 156t153 52q91 0 143 -47t52 -115q0 -111 -121 -169l-31 -15q-36 -18 -36 -49z" />
    <glyph glyph-name="agrave" unicode="&#xe0;" horiz-adv-x="567" 
d="M262 543l-94 146h112l56 -146h-74zM266 414q-74 0 -117.5 -66t-43.5 -146q0 -59 29 -95t85 -36q69 0 114 63t45 156q0 55 -28 89.5t-84 34.5zM424 481h93l-75 -356q-11 -50 -11 -109q0 -8 1 -16h-89q-2 10 -2 28t2 33q-59 -71 -143 -71q-90 0 -140 59.5t-50 151.5
q0 120 71 207t180 87q56 0 94 -21.5t56 -53.5z" />
    <glyph glyph-name="aacute" unicode="&#xe1;" horiz-adv-x="567" 
d="M488 689l-155 -146h-84l115 146h124zM266 414q-74 0 -117.5 -66t-43.5 -146q0 -59 29 -95t85 -36q69 0 114 63t45 156q0 55 -28 89.5t-84 34.5zM424 481h93l-75 -356q-11 -50 -11 -109q0 -8 1 -16h-89q-2 10 -2 28t2 33q-59 -71 -143 -71q-90 0 -140 59.5t-50 151.5
q0 120 71 207t180 87q56 0 94 -21.5t56 -53.5z" />
    <glyph glyph-name="acircumflex" unicode="&#xe2;" horiz-adv-x="567" 
d="M221 545h-90l131 139h113l71 -139h-85l-52 81zM266 414q-74 0 -117.5 -66t-43.5 -146q0 -59 29 -95t85 -36q69 0 114 63t45 156q0 55 -28 89.5t-84 34.5zM424 481h93l-75 -356q-11 -50 -11 -109q0 -8 1 -16h-89q-2 10 -2 28t2 33q-59 -71 -143 -71q-90 0 -140 59.5
t-50 151.5q0 120 71 207t180 87q56 0 94 -21.5t56 -53.5z" />
    <glyph glyph-name="atilde" unicode="&#xe3;" horiz-adv-x="567" 
d="M216 554h-70q7 64 38 95t76 31q34 0 68 -24l12 -8q21 -14 36 -14q31 0 39 44h69q-21 -126 -113 -126q-34 0 -68 24l-12 8q-21 14 -36 14q-31 0 -39 -44zM266 414q-74 0 -117.5 -66t-43.5 -146q0 -59 29 -95t85 -36q69 0 114 63t45 156q0 55 -28 89.5t-84 34.5zM424 481
h93l-75 -356q-11 -50 -11 -109q0 -8 1 -16h-89q-2 10 -2 28t2 33q-59 -71 -143 -71q-90 0 -140 59.5t-50 151.5q0 120 71 207t180 87q56 0 94 -21.5t56 -53.5z" />
    <glyph glyph-name="adieresis" unicode="&#xe4;" horiz-adv-x="567" 
d="M156 614q0 26 19 45.5t45 19.5q23 0 38 -15.5t15 -37.5q0 -27 -20 -45t-46 -18q-22 0 -36.5 15t-14.5 36zM351 614q0 26 19 45.5t45 19.5q23 0 38 -15.5t15 -37.5q0 -27 -20 -45t-46 -18q-22 0 -36.5 15t-14.5 36zM266 414q-74 0 -117.5 -66t-43.5 -146q0 -59 29 -95
t85 -36q69 0 114 63t45 156q0 55 -28 89.5t-84 34.5zM424 481h93l-75 -356q-11 -50 -11 -109q0 -8 1 -16h-89q-2 10 -2 28t2 33q-59 -71 -143 -71q-90 0 -140 59.5t-50 151.5q0 120 71 207t180 87q56 0 94 -21.5t56 -53.5z" />
    <glyph glyph-name="aring" unicode="&#xe5;" horiz-adv-x="567" 
d="M321 750q43 0 73 -29.5t30 -70.5q0 -46 -36 -82.5t-84 -36.5q-44 0 -74.5 28.5t-30.5 69.5q0 52 37 86.5t85 34.5zM263 637q0 -19 11.5 -30.5t31.5 -11.5q22 0 37 14t15 36q0 18 -12.5 30t-31.5 12q-20 0 -35.5 -14t-15.5 -36zM266 414q-74 0 -117.5 -66t-43.5 -146
q0 -59 29 -95t85 -36q69 0 114 63t45 156q0 55 -28 89.5t-84 34.5zM424 481h93l-75 -356q-11 -50 -11 -109q0 -8 1 -16h-89q-2 10 -2 28t2 33q-59 -71 -143 -71q-90 0 -140 59.5t-50 151.5q0 120 71 207t180 87q56 0 94 -21.5t56 -53.5z" />
    <glyph glyph-name="ae" unicode="&#xe6;" horiz-adv-x="853" 
d="M313 284q47 2 47 50q0 34 -28 58.5t-81 24.5q-43 0 -76 -23t-44 -61l-81 26q20 63 79 100t133 37q112 0 160 -74q74 74 177 74q95 0 147 -53t52 -141q0 -43 -14 -88h-354q-1 -7 -1 -17q0 -58 35 -93.5t87 -35.5q97 0 142 80l71 -46q-27 -50 -83 -83.5t-128 -33.5
q-63 0 -112.5 27.5t-75.5 78.5q-71 -106 -195 -106q-80 0 -126 39t-46 100q0 67 50.5 110t124.5 45zM95 129q0 -31 24 -48.5t59 -17.5q53 0 100 37.5t59 115.5l-158 -7q-35 -2 -59.5 -22t-24.5 -58zM594 413q-57 0 -97 -36t-54 -87h256q2 8 2 20q0 42 -26 72.5t-81 30.5z
" />
    <glyph glyph-name="ccedilla" unicode="&#xe7;" horiz-adv-x="498" 
d="M116 -52l50 44q-75 18 -118 76t-43 139q0 126 76 207.5t187 81.5q89 0 136.5 -44.5t63.5 -107.5l-87 -30q-10 43 -39.5 70.5t-79.5 27.5q-66 0 -114 -53.5t-48 -150.5q0 -64 36 -101.5t95 -37.5q89 0 134 91l80 -35q-69 -132 -204 -140l-44 -37q33 -4 50.5 -24.5
t17.5 -47.5q0 -39 -32.5 -65.5t-82.5 -26.5q-47 0 -80 22.5t-44 48.5l52 32q21 -48 71 -48q19 0 32.5 9t13.5 26q0 15 -12.5 24t-30.5 9q-9 0 -14 -1z" />
    <glyph glyph-name="egrave" unicode="&#xe8;" horiz-adv-x="528" 
d="M281 543l-94 146h112l56 -146h-74zM118 290h256q2 8 2 20q0 42 -26 72.5t-81 30.5q-57 0 -97 -36t-54 -87zM459 214h-354q-1 -7 -1 -17q0 -58 35 -93.5t87 -35.5q97 0 142 80l71 -46q-27 -50 -83 -83.5t-128 -33.5q-94 0 -156 57.5t-62 161.5q0 131 79 211.5t185 80.5
q95 0 147 -53t52 -141q0 -43 -14 -88z" />
    <glyph glyph-name="eacute" unicode="&#xe9;" horiz-adv-x="528" 
d="M469 689l-155 -146h-84l115 146h124zM118 290h256q2 8 2 20q0 42 -26 72.5t-81 30.5q-57 0 -97 -36t-54 -87zM459 214h-354q-1 -7 -1 -17q0 -58 35 -93.5t87 -35.5q97 0 142 80l71 -46q-27 -50 -83 -83.5t-128 -33.5q-94 0 -156 57.5t-62 161.5q0 131 79 211.5t185 80.5
q95 0 147 -53t52 -141q0 -43 -14 -88z" />
    <glyph glyph-name="ecircumflex" unicode="&#xea;" horiz-adv-x="528" 
d="M230 545h-90l131 139h113l71 -139h-85l-52 81zM118 290h256q2 8 2 20q0 42 -26 72.5t-81 30.5q-57 0 -97 -36t-54 -87zM459 214h-354q-1 -7 -1 -17q0 -58 35 -93.5t87 -35.5q97 0 142 80l71 -46q-27 -50 -83 -83.5t-128 -33.5q-94 0 -156 57.5t-62 161.5q0 131 79 211.5
t185 80.5q95 0 147 -53t52 -141q0 -43 -14 -88z" />
    <glyph glyph-name="edieresis" unicode="&#xeb;" horiz-adv-x="528" 
d="M152 614q0 26 19 45.5t45 19.5q23 0 38 -15.5t15 -37.5q0 -27 -20 -45t-46 -18q-22 0 -36.5 15t-14.5 36zM347 614q0 26 19 45.5t45 19.5q23 0 38 -15.5t15 -37.5q0 -27 -20 -45t-46 -18q-22 0 -36.5 15t-14.5 36zM118 290h256q2 8 2 20q0 42 -26 72.5t-81 30.5
q-57 0 -97 -36t-54 -87zM459 214h-354q-1 -7 -1 -17q0 -58 35 -93.5t87 -35.5q97 0 142 80l71 -46q-27 -50 -83 -83.5t-128 -33.5q-94 0 -156 57.5t-62 161.5q0 131 79 211.5t185 80.5q95 0 147 -53t52 -141q0 -43 -14 -88z" />
    <glyph glyph-name="igrave" unicode="&#xec;" horiz-adv-x="257" 
d="M99 0h-94l103 481h94zM130 543l-94 146h112l56 -146h-74z" />
    <glyph glyph-name="iacute" unicode="&#xed;" horiz-adv-x="257" 
d="M358 689l-155 -146h-84l115 146h124zM99 0h-94l103 481h94z" />
    <glyph glyph-name="icircumflex" unicode="&#xee;" horiz-adv-x="257" 
d="M99 0h-94l103 481h94zM98 545h-90l131 139h113l71 -139h-85l-52 81z" />
    <glyph glyph-name="idieresis" unicode="&#xef;" horiz-adv-x="257" 
d="M99 0h-94l103 481h94zM59 615q0 24 16.5 42t41.5 18q21 0 35 -13.5t14 -34.5q0 -25 -17.5 -41.5t-41.5 -16.5q-22 0 -35 13t-13 33zM200 615q0 24 16.5 42t41.5 18q22 0 35.5 -13.5t13.5 -34.5q0 -25 -17.5 -41.5t-41.5 -16.5q-22 0 -35 13t-13 33z" />
    <glyph glyph-name="eth" unicode="&#xf0;" horiz-adv-x="541" 
d="M529 612l-102 -38q65 -99 65 -233q0 -154 -72.5 -255.5t-196.5 -101.5q-98 0 -155.5 61t-57.5 154q0 108 69.5 188.5t178.5 80.5q49 0 88.5 -19t57.5 -50q-13 83 -59 145l-123 -46l-25 65l96 36q-43 38 -101 58l38 72q83 -28 150 -97l122 46zM390 257q0 60 -36.5 95
t-92.5 35q-63 0 -110 -50t-47 -138q0 -54 33 -93t90 -39q63 0 113 50.5t50 139.5z" />
    <glyph glyph-name="ntilde" unicode="&#xf1;" horiz-adv-x="555" 
d="M228 554h-70q7 64 38 95t76 31q34 0 68 -24l12 -8q21 -14 36 -14q31 0 39 44h69q-21 -126 -113 -126q-34 0 -68 24l-12 8q-21 14 -36 14q-31 0 -39 -44zM409 0h-94l62 291q4 20 4 37q0 40 -22.5 62t-65.5 22q-53 0 -87.5 -38.5t-46.5 -93.5l-60 -280h-94l84 396
q12 54 12 85h92q0 -20 -6 -53q50 67 149 67q64 0 103.5 -39.5t39.5 -104.5q0 -19 -5 -46z" />
    <glyph glyph-name="ograve" unicode="&#xf2;" horiz-adv-x="541" 
d="M270 543l-94 146h112l56 -146h-74zM267 412q-66 0 -113.5 -54.5t-47.5 -148.5q0 -64 33 -102t89 -38q66 0 114 55t48 149q0 63 -33 101t-90 38zM486 275q0 -122 -75 -206t-187 -84q-99 0 -156.5 64t-57.5 158q0 124 75 206.5t188 82.5q100 0 156.5 -63t56.5 -158z" />
    <glyph glyph-name="oacute" unicode="&#xf3;" horiz-adv-x="541" 
d="M487 689l-155 -146h-84l115 146h124zM267 412q-66 0 -113.5 -54.5t-47.5 -148.5q0 -64 33 -102t89 -38q66 0 114 55t48 149q0 63 -33 101t-90 38zM486 275q0 -122 -75 -206t-187 -84q-99 0 -156.5 64t-57.5 158q0 124 75 206.5t188 82.5q100 0 156.5 -63t56.5 -158z" />
    <glyph glyph-name="ocircumflex" unicode="&#xf4;" horiz-adv-x="541" 
d="M235 545h-90l131 139h113l71 -139h-85l-52 81zM267 412q-66 0 -113.5 -54.5t-47.5 -148.5q0 -64 33 -102t89 -38q66 0 114 55t48 149q0 63 -33 101t-90 38zM486 275q0 -122 -75 -206t-187 -84q-99 0 -156.5 64t-57.5 158q0 124 75 206.5t188 82.5q100 0 156.5 -63
t56.5 -158z" />
    <glyph glyph-name="otilde" unicode="&#xf5;" horiz-adv-x="541" 
d="M201 554h-70q7 64 38 95t76 31q34 0 68 -24l12 -8q21 -14 36 -14q31 0 39 44h69q-21 -126 -113 -126q-34 0 -68 24l-12 8q-21 14 -36 14q-31 0 -39 -44zM267 412q-66 0 -113.5 -54.5t-47.5 -148.5q0 -64 33 -102t89 -38q66 0 114 55t48 149q0 63 -33 101t-90 38zM486 275
q0 -122 -75 -206t-187 -84q-99 0 -156.5 64t-57.5 158q0 124 75 206.5t188 82.5q100 0 156.5 -63t56.5 -158z" />
    <glyph glyph-name="odieresis" unicode="&#xf6;" horiz-adv-x="541" 
d="M161 614q0 26 19 45.5t45 19.5q23 0 38 -15.5t15 -37.5q0 -27 -20 -45t-46 -18q-22 0 -36.5 15t-14.5 36zM356 614q0 26 19 45.5t45 19.5q23 0 38 -15.5t15 -37.5q0 -27 -20 -45t-46 -18q-22 0 -36.5 15t-14.5 36zM267 412q-66 0 -113.5 -54.5t-47.5 -148.5
q0 -64 33 -102t89 -38q66 0 114 55t48 149q0 63 -33 101t-90 38zM486 275q0 -122 -75 -206t-187 -84q-99 0 -156.5 64t-57.5 158q0 124 75 206.5t188 82.5q100 0 156.5 -63t56.5 -158z" />
    <glyph glyph-name="divide" unicode="&#xf7;" horiz-adv-x="567" 
d="M198 465q0 26 19.5 45t45.5 19t45 -19t19 -45t-19 -45.5t-45 -19.5t-45.5 19.5t-19.5 45.5zM198 110q0 26 19.5 45t45.5 19t45 -19t19 -45t-19 -45.5t-45 -19.5t-45.5 19.5t-19.5 45.5zM35 246v83h457v-83h-457z" />
    <glyph glyph-name="oslash" unicode="&#xf8;" horiz-adv-x="541" 
d="M20 -28l-52 54l69 66q-27 51 -27 115q0 124 75 206.5t188 82.5q84 0 138 -45l61 58l52 -54l-66 -63q28 -50 28 -117q0 -122 -75 -206t-187 -84q-84 0 -140 48zM390 273q0 25 -6 48l-234 -225q32 -27 78 -27q66 0 114 55t48 149zM267 412q-66 0 -113.5 -54.5t-47.5 -148.5
q0 -24 5 -46l233 223q-31 26 -77 26z" />
    <glyph glyph-name="ugrave" unicode="&#xf9;" horiz-adv-x="544" 
d="M318 56q-23 -32 -59 -49t-72 -17q-73 0 -114 42t-41 113q0 27 6 55l60 281h94l-59 -279q-5 -27 -5 -46q0 -86 85 -86q51 0 84.5 37t44.5 93l59 281h93l-75 -356q-11 -50 -11 -109q0 -8 1 -16h-90q-2 10 -2 28q0 15 1 28zM272 543l-94 146h112l56 -146h-74z" />
    <glyph glyph-name="uacute" unicode="&#xfa;" horiz-adv-x="544" 
d="M318 56q-23 -32 -59 -49t-72 -17q-73 0 -114 42t-41 113q0 27 6 55l60 281h94l-59 -279q-5 -27 -5 -46q0 -86 85 -86q51 0 84.5 37t44.5 93l59 281h93l-75 -356q-11 -50 -11 -109q0 -8 1 -16h-90q-2 10 -2 28q0 15 1 28zM487 689l-155 -146h-84l115 146h124z" />
    <glyph glyph-name="ucircumflex" unicode="&#xfb;" horiz-adv-x="544" 
d="M318 56q-23 -32 -59 -49t-72 -17q-73 0 -114 42t-41 113q0 27 6 55l60 281h94l-59 -279q-5 -27 -5 -46q0 -86 85 -86q51 0 84.5 37t44.5 93l59 281h93l-75 -356q-11 -50 -11 -109q0 -8 1 -16h-90q-2 10 -2 28q0 15 1 28zM235 545h-90l131 139h113l71 -139h-85l-52 81z
" />
    <glyph glyph-name="udieresis" unicode="&#xfc;" horiz-adv-x="544" 
d="M318 56q-23 -32 -59 -49t-72 -17q-73 0 -114 42t-41 113q0 27 6 55l60 281h94l-59 -279q-5 -27 -5 -46q0 -86 85 -86q51 0 84.5 37t44.5 93l59 281h93l-75 -356q-11 -50 -11 -109q0 -8 1 -16h-90q-2 10 -2 28q0 15 1 28zM166 614q0 26 19 45.5t45 19.5q23 0 38 -15.5
t15 -37.5q0 -27 -20 -45t-46 -18q-22 0 -36.5 15t-14.5 36zM361 614q0 26 19 45.5t45 19.5q23 0 38 -15.5t15 -37.5q0 -27 -20 -45t-46 -18q-22 0 -36.5 15t-14.5 36z" />
    <glyph glyph-name="yacute" unicode="&#xfd;" horiz-adv-x="504" 
d="M448 689l-155 -146h-84l115 146h124zM78 -190h-108l181 273l-118 398h102l85 -302l188 302h111z" />
    <glyph glyph-name="thorn" unicode="&#xfe;" horiz-adv-x="580" 
d="M-35 -190l194 914h94l-62 -294q56 64 150 64q90 0 136.5 -57.5t46.5 -148.5q0 -130 -70 -215.5t-182 -85.5q-50 0 -93.5 23t-64.5 63l-56 -263h-93zM306 409q-65 0 -112.5 -55t-47.5 -149q0 -63 32 -98.5t88 -35.5q65 0 113.5 56t48.5 150q0 64 -31.5 98t-90.5 34z" />
    <glyph glyph-name="ydieresis" unicode="&#xff;" horiz-adv-x="504" 
d="M133 614q0 26 19 45.5t45 19.5q23 0 38 -15.5t15 -37.5q0 -27 -20 -45t-46 -18q-22 0 -36.5 15t-14.5 36zM328 614q0 26 19 45.5t45 19.5q23 0 38 -15.5t15 -37.5q0 -27 -20 -45t-46 -18q-22 0 -36.5 15t-14.5 36zM78 -190h-108l181 273l-118 398h102l85 -302l188 302
h111z" />
    <glyph glyph-name="Amacron" unicode="&#x100;" horiz-adv-x="654" 
d="M485 0l-32 198h-297l-115 -198h-111l423 709h108l123 -709h-99zM388 599l-179 -310h229zM560 779h-293l18 83h293z" />
    <glyph glyph-name="amacron" unicode="&#x101;" horiz-adv-x="567" 
d="M451 577h-273l17 81h273zM266 414q-74 0 -117.5 -66t-43.5 -146q0 -59 29 -95t85 -36q69 0 114 63t45 156q0 55 -28 89.5t-84 34.5zM424 481h93l-75 -356q-11 -50 -11 -109q0 -8 1 -16h-89q-2 10 -2 28t2 33q-59 -71 -143 -71q-90 0 -140 59.5t-50 151.5q0 120 71 207
t180 87q56 0 94 -21.5t56 -53.5z" />
    <glyph glyph-name="Abreve" unicode="&#x102;" horiz-adv-x="654" 
d="M485 0l-32 198h-297l-115 -198h-111l423 709h108l123 -709h-99zM388 599l-179 -310h229zM421 755q-65 0 -102 32t-37 81q0 6 2 16h78q-1 -4 -1 -8q0 -19 16 -32.5t50 -13.5q39 0 61 16t27 38h79q-16 -54 -60.5 -91.5t-112.5 -37.5z" />
    <glyph glyph-name="abreve" unicode="&#x103;" horiz-adv-x="567" 
d="M308 544q-57 0 -89.5 34t-32.5 83q0 13 3 27h69q-1 -4 -1 -9q0 -23 14.5 -39t46.5 -16q35 0 56.5 19.5t29.5 44.5h77q-13 -60 -57.5 -102t-115.5 -42zM266 414q-74 0 -117.5 -66t-43.5 -146q0 -59 29 -95t85 -36q69 0 114 63t45 156q0 55 -28 89.5t-84 34.5zM424 481h93
l-75 -356q-11 -50 -11 -109q0 -8 1 -16h-89q-2 10 -2 28t2 33q-59 -71 -143 -71q-90 0 -140 59.5t-50 151.5q0 120 71 207t180 87q56 0 94 -21.5t56 -53.5z" />
    <glyph glyph-name="Aogonek" unicode="&#x104;" horiz-adv-x="654" 
d="M388 597l-179 -308h229zM395 -132q0 83 94 132h-4l-32 198h-297l-115 -198h-111l423 709h108l123 -709q-108 -47 -108 -109q0 -19 12.5 -28.5t31.5 -9.5q15 0 33 3l-14 -64q-22 -8 -51 -8q-42 0 -67.5 23t-25.5 61z" />
    <glyph glyph-name="aogonek" unicode="&#x105;" horiz-adv-x="567" 
d="M266 414q-74 0 -117.5 -66t-43.5 -146q0 -59 29 -95t85 -36q69 0 114 63t45 156q0 55 -28 89.5t-84 34.5zM243 -132q0 87 99 135q-1 13 -1 25q0 20 1 33q-59 -71 -142 -71q-90 0 -140 59.5t-50 151.5q0 120 71 207t180 87q56 0 94 -21.5t56 -53.5l13 61h93l-75 -356
q-11 -50 -11 -109q0 -10 1 -16q-108 -47 -108 -109q0 -19 12.5 -28.5t31.5 -9.5q15 0 33 3l-14 -64q-22 -8 -51 -8q-42 0 -67.5 23t-25.5 61z" />
    <glyph glyph-name="Cacute" unicode="&#x106;" horiz-adv-x="719" 
d="M417 724q121 0 194 -63t93 -162l-93 -27q-15 71 -68 116.5t-136 45.5q-125 0 -198.5 -96.5t-73.5 -230.5q0 -108 56 -170.5t153 -62.5q157 0 228 160l86 -35q-44 -101 -127 -157.5t-196 -56.5q-132 0 -216 88.5t-84 227.5q0 100 33 182.5t87.5 133.5t122 79t139.5 28z
M646 878l-153 -119h-97l119 119h131z" />
    <glyph glyph-name="cacute" unicode="&#x107;" horiz-adv-x="498" 
d="M461 689l-155 -146h-84l115 146h124zM468 344l-87 -30q-10 43 -39.5 70.5t-79.5 27.5q-66 0 -114 -53.5t-48 -150.5q0 -64 36 -101.5t95 -37.5q89 0 134 91l80 -35q-72 -140 -218 -140q-101 0 -161.5 62.5t-60.5 159.5q0 126 76 207.5t187 81.5q89 0 136.5 -44.5
t63.5 -107.5z" />
    <glyph glyph-name="Ccircumflex" unicode="&#x108;" horiz-adv-x="719" 
d="M417 724q121 0 194 -63t93 -162l-93 -27q-15 71 -68 116.5t-136 45.5q-125 0 -198.5 -96.5t-73.5 -230.5q0 -108 56 -170.5t153 -62.5q157 0 228 160l86 -35q-44 -101 -127 -157.5t-196 -56.5q-132 0 -216 88.5t-84 227.5q0 100 33 182.5t87.5 133.5t122 79t139.5 28z
M357 759h-87l135 119h120l90 -119h-83l-74 64z" />
    <glyph glyph-name="ccircumflex" unicode="&#x109;" horiz-adv-x="498" 
d="M217 545h-90l131 139h113l71 -139h-85l-52 81zM468 344l-87 -30q-10 43 -39.5 70.5t-79.5 27.5q-66 0 -114 -53.5t-48 -150.5q0 -64 36 -101.5t95 -37.5q89 0 134 91l80 -35q-72 -140 -218 -140q-101 0 -161.5 62.5t-60.5 159.5q0 126 76 207.5t187 81.5
q89 0 136.5 -44.5t63.5 -107.5z" />
    <glyph glyph-name="Cdotaccent" unicode="&#x10a;" horiz-adv-x="719" 
d="M417 724q121 0 194 -63t93 -162l-93 -27q-15 71 -68 116.5t-136 45.5q-125 0 -198.5 -96.5t-73.5 -230.5q0 -108 56 -170.5t153 -62.5q157 0 228 160l86 -35q-44 -101 -127 -157.5t-196 -56.5q-132 0 -216 88.5t-84 227.5q0 100 33 182.5t87.5 133.5t122 79t139.5 28z
M384 814q0 28 21 49t49 21q26 0 42.5 -16.5t16.5 -40.5q0 -29 -21 -50.5t-50 -21.5q-26 0 -42 17t-16 42z" />
    <glyph glyph-name="cdotaccent" unicode="&#x10b;" horiz-adv-x="498" 
d="M230 608q0 28 21 50t50 22q25 0 41.5 -16.5t16.5 -40.5q0 -29 -21 -50.5t-50 -21.5q-25 0 -41.5 16.5t-16.5 40.5zM468 344l-87 -30q-10 43 -39.5 70.5t-79.5 27.5q-66 0 -114 -53.5t-48 -150.5q0 -64 36 -101.5t95 -37.5q89 0 134 91l80 -35q-72 -140 -218 -140
q-101 0 -161.5 62.5t-60.5 159.5q0 126 76 207.5t187 81.5q89 0 136.5 -44.5t63.5 -107.5z" />
    <glyph glyph-name="Ccaron" unicode="&#x10c;" horiz-adv-x="719" 
d="M417 724q121 0 194 -63t93 -162l-93 -27q-15 71 -68 116.5t-136 45.5q-125 0 -198.5 -96.5t-73.5 -230.5q0 -108 56 -170.5t153 -62.5q157 0 228 160l86 -35q-44 -101 -127 -157.5t-196 -56.5q-132 0 -216 88.5t-84 227.5q0 100 33 182.5t87.5 133.5t122 79t139.5 28z
M541 878h93l-140 -119h-120l-85 119h82l69 -64z" />
    <glyph glyph-name="ccaron" unicode="&#x10d;" horiz-adv-x="498" 
d="M397 687h91l-130 -142h-115l-70 142h84l52 -81zM468 344l-87 -30q-10 43 -39.5 70.5t-79.5 27.5q-66 0 -114 -53.5t-48 -150.5q0 -64 36 -101.5t95 -37.5q89 0 134 91l80 -35q-72 -140 -218 -140q-101 0 -161.5 62.5t-60.5 159.5q0 126 76 207.5t187 81.5
q89 0 136.5 -44.5t63.5 -107.5z" />
    <glyph glyph-name="Dcaron" unicode="&#x10e;" horiz-adv-x="691" 
d="M509 878h93l-140 -119h-120l-85 119h82l69 -64zM131 87h145q51 0 100 21.5t90 62t66 105.5t25 144q0 98 -57.5 150t-159.5 52h-95zM276 0h-261l150 709h193q136 0 216.5 -77t80.5 -206q0 -101 -32.5 -184t-86.5 -134.5t-121 -79.5t-139 -28z" />
    <glyph glyph-name="dcaron" unicode="&#x10f;" horiz-adv-x="652" 
d="M266 414q-74 0 -117.5 -66t-43.5 -146q0 -59 29 -95t85 -36q69 0 114 63t45 156q0 55 -28 89.5t-84 34.5zM343 61q-24 -31 -62 -51t-81 -20q-90 0 -140 59.5t-50 151.5q0 120 71 207t180 87q56 0 94 -21.5t56 -53.5l64 304h93l-126 -599q-11 -50 -11 -109q0 -8 1 -16h-89
q-2 10 -2 28q0 16 2 33zM757 724l-102 -179h-72l66 179h108z" />
    <glyph glyph-name="Dcroat" unicode="&#x110;" horiz-adv-x="690" 
d="M15 320l17 82h68l65 307h193q136 0 216.5 -77t80.5 -206q0 -101 -32.5 -184t-86.5 -134.5t-121 -79.5t-139 -28h-261l67 320h-67zM131 87h145q51 0 100 21.5t90 62t66 105.5t25 144q0 99 -56.5 150.5t-160.5 51.5h-95l-47 -220h150l-17 -82h-151z" />
    <glyph glyph-name="dcroat" unicode="&#x111;" horiz-adv-x="567" 
d="M266 414q-74 0 -117.5 -66t-43.5 -146q0 -59 29 -95t85 -36q69 0 114 63t45 156q0 55 -28 89.5t-84 34.5zM200 -10q-90 0 -140 59.5t-50 151.5q0 120 71 207t180 87q56 0 94 -21.5t56 -53.5l28 135h-139l16 76h139l20 93h93l-20 -93h69l-16 -76h-69l-90 -430
q-12 -55 -12 -109q0 -8 1 -16h-89q-2 10 -2 28q0 5 2 33q-59 -71 -142 -71z" />
    <glyph glyph-name="Emacron" unicode="&#x112;" horiz-adv-x="576" 
d="M441 0h-426l150 709h426l-19 -91h-328l-46 -218h297l-20 -92h-297l-46 -217h328zM535 779h-293l18 83h293z" />
    <glyph glyph-name="emacron" unicode="&#x113;" horiz-adv-x="528" 
d="M441 577h-273l17 81h273zM118 290h256q2 8 2 20q0 42 -26 72.5t-81 30.5q-57 0 -97 -36t-54 -87zM459 214h-354q-1 -7 -1 -17q0 -58 35 -93.5t87 -35.5q97 0 142 80l71 -46q-27 -50 -83 -83.5t-128 -33.5q-94 0 -156 57.5t-62 161.5q0 131 79 211.5t185 80.5
q95 0 147 -53t52 -141q0 -43 -14 -88z" />
    <glyph glyph-name="Ebreve" unicode="&#x114;" horiz-adv-x="576" 
d="M441 0h-426l150 709h426l-19 -91h-328l-46 -218h297l-20 -92h-297l-46 -217h328zM382 755q-65 0 -102 32t-37 81q0 6 2 16h78q-1 -4 -1 -8q0 -19 16 -32.5t50 -13.5q39 0 61 16t27 38h79q-16 -54 -60.5 -91.5t-112.5 -37.5z" />
    <glyph glyph-name="ebreve" unicode="&#x115;" horiz-adv-x="528" 
d="M301 544q-57 0 -89.5 34t-32.5 83q0 13 3 27h69q-1 -4 -1 -9q0 -23 14.5 -39t46.5 -16q35 0 56.5 19.5t29.5 44.5h77q-13 -60 -57.5 -102t-115.5 -42zM118 290h256q2 8 2 20q0 42 -26 72.5t-81 30.5q-57 0 -97 -36t-54 -87zM459 214h-354q-1 -7 -1 -17q0 -58 35 -93.5
t87 -35.5q97 0 142 80l71 -46q-27 -50 -83 -83.5t-128 -33.5q-94 0 -156 57.5t-62 161.5q0 131 79 211.5t185 80.5q95 0 147 -53t52 -141q0 -43 -14 -88z" />
    <glyph glyph-name="Edotaccent" unicode="&#x116;" horiz-adv-x="576" 
d="M441 0h-426l150 709h426l-19 -91h-328l-46 -218h297l-20 -92h-297l-46 -217h328zM332 814q0 28 21 49t49 21q26 0 42.5 -16.5t16.5 -40.5q0 -29 -21 -50.5t-50 -21.5q-26 0 -42 17t-16 42z" />
    <glyph glyph-name="edotaccent" unicode="&#x117;" horiz-adv-x="528" 
d="M232 608q0 28 21 50t50 22q25 0 41.5 -16.5t16.5 -40.5q0 -29 -21 -50.5t-50 -21.5q-25 0 -41.5 16.5t-16.5 40.5zM118 290h256q2 8 2 20q0 42 -26 72.5t-81 30.5q-57 0 -97 -36t-54 -87zM459 214h-354q-1 -7 -1 -17q0 -58 35 -93.5t87 -35.5q97 0 142 80l71 -46
q-27 -50 -83 -83.5t-128 -33.5q-94 0 -156 57.5t-62 161.5q0 131 79 211.5t185 80.5q95 0 147 -53t52 -141q0 -43 -14 -88z" />
    <glyph glyph-name="Eogonek" unicode="&#x118;" horiz-adv-x="576" 
d="M252 -132q0 82 93 132h-330l150 709h426l-19 -91h-328l-46 -218h297l-20 -92h-297l-46 -217h328l-19 -91q-108 -47 -108 -109q0 -19 12.5 -28.5t31.5 -9.5q15 0 33 3l-14 -64q-22 -8 -51 -8q-42 0 -67.5 23t-25.5 61z" />
    <glyph glyph-name="eogonek" unicode="&#x119;" horiz-adv-x="528" 
d="M118 290h256q2 8 2 20q0 42 -26 72.5t-81 30.5q-57 0 -97 -36t-54 -87zM125 -132q0 72 71 119q-82 10 -134 66.5t-52 150.5q0 131 79 211.5t185 80.5q95 0 147 -53t52 -141q0 -43 -14 -88h-354q-1 -7 -1 -17q0 -58 35 -93.5t87 -35.5q97 0 142 80l71 -46
q-36 -68 -132 -105q-40 -16 -70.5 -43t-30.5 -63q0 -19 12.5 -28.5t31.5 -9.5q15 0 33 3l-14 -64q-22 -8 -51 -8q-42 0 -67.5 23t-25.5 61z" />
    <glyph glyph-name="Ecaron" unicode="&#x11a;" horiz-adv-x="576" 
d="M441 0h-426l150 709h426l-19 -91h-328l-46 -218h297l-20 -92h-297l-46 -217h328zM494 878h93l-140 -119h-120l-85 119h82l69 -64z" />
    <glyph glyph-name="ecaron" unicode="&#x11b;" horiz-adv-x="528" 
d="M382 687h91l-130 -142h-115l-70 142h84l52 -81zM118 290h256q2 8 2 20q0 42 -26 72.5t-81 30.5q-57 0 -97 -36t-54 -87zM459 214h-354q-1 -7 -1 -17q0 -58 35 -93.5t87 -35.5q97 0 142 80l71 -46q-27 -50 -83 -83.5t-128 -33.5q-94 0 -156 57.5t-62 161.5q0 131 79 211.5
t185 80.5q95 0 147 -53t52 -141q0 -43 -14 -88z" />
    <glyph glyph-name="Gcircumflex" unicode="&#x11c;" horiz-adv-x="740" 
d="M408 634q-124 0 -199 -96t-75 -231q0 -108 56.5 -170.5t154.5 -62.5q80 0 147 50t88 135h-246l18 88h339l-73 -347h-76l8 80q-82 -95 -214 -95q-127 0 -214 86.5t-87 229.5q0 100 33 182.5t88 133.5t122.5 79t139.5 28q121 0 194 -63t93 -162l-93 -27q-15 71 -68 116.5
t-136 45.5zM357 759h-87l135 119h120l90 -119h-83l-74 64z" />
    <glyph glyph-name="gcircumflex" unicode="&#x11d;" horiz-adv-x="565" 
d="M239 545h-90l131 139h113l71 -139h-85l-52 81zM378 293q0 46 -30 81t-88 35q-66 0 -109.5 -48t-43.5 -130q0 -56 30.5 -92.5t88.5 -36.5q69 0 110.5 51.5t41.5 139.5zM-47 -29l89 21v-7q0 -47 29.5 -77.5t86.5 -30.5q135 0 169 166l8 39q-17 -26 -50.5 -42.5t-77.5 -16.5
q-90 0 -142.5 57t-52.5 145q0 113 69 189.5t176 76.5q106 0 149 -74l13 64h96l-90 -435q-53 -251 -271 -251q-95 0 -148 52t-53 124z" />
    <glyph glyph-name="Gbreve" unicode="&#x11e;" horiz-adv-x="740" 
d="M408 634q-124 0 -199 -96t-75 -231q0 -108 56.5 -170.5t154.5 -62.5q80 0 147 50t88 135h-246l18 88h339l-73 -347h-76l8 80q-82 -95 -214 -95q-127 0 -214 86.5t-87 229.5q0 100 33 182.5t88 133.5t122.5 79t139.5 28q121 0 194 -63t93 -162l-93 -27q-15 71 -68 116.5
t-136 45.5zM450 755q-65 0 -102 32t-37 81q0 6 2 16h78q-1 -4 -1 -8q0 -19 16 -32.5t50 -13.5q39 0 61 16t27 38h79q-16 -54 -60.5 -91.5t-112.5 -37.5z" />
    <glyph glyph-name="gbreve" unicode="&#x11f;" horiz-adv-x="565" 
d="M316 544q-57 0 -89.5 34t-32.5 83q0 13 3 27h69q-1 -4 -1 -9q0 -23 14.5 -39t46.5 -16q35 0 56.5 19.5t29.5 44.5h77q-13 -60 -57.5 -102t-115.5 -42zM378 293q0 46 -30 81t-88 35q-66 0 -109.5 -48t-43.5 -130q0 -56 30.5 -92.5t88.5 -36.5q69 0 110.5 51.5t41.5 139.5z
M-47 -29l89 21v-7q0 -47 29.5 -77.5t86.5 -30.5q135 0 169 166l8 39q-17 -26 -50.5 -42.5t-77.5 -16.5q-90 0 -142.5 57t-52.5 145q0 113 69 189.5t176 76.5q106 0 149 -74l13 64h96l-90 -435q-53 -251 -271 -251q-95 0 -148 52t-53 124z" />
    <glyph glyph-name="Gdotaccent" unicode="&#x120;" horiz-adv-x="740" 
d="M408 634q-124 0 -199 -96t-75 -231q0 -108 56.5 -170.5t154.5 -62.5q80 0 147 50t88 135h-246l18 88h339l-73 -347h-76l8 80q-82 -95 -214 -95q-127 0 -214 86.5t-87 229.5q0 100 33 182.5t88 133.5t122.5 79t139.5 28q121 0 194 -63t93 -162l-93 -27q-15 71 -68 116.5
t-136 45.5zM389 814q0 28 20.5 49t49.5 21q26 0 42.5 -16.5t16.5 -40.5q0 -29 -21 -50.5t-50 -21.5q-26 0 -42 17t-16 42z" />
    <glyph glyph-name="gdotaccent" unicode="&#x121;" horiz-adv-x="565" 
d="M262 608q0 28 21 50t50 22q25 0 41.5 -16.5t16.5 -40.5q0 -29 -21 -50.5t-50 -21.5q-25 0 -41.5 16.5t-16.5 40.5zM378 293q0 46 -30 81t-88 35q-66 0 -109.5 -48t-43.5 -130q0 -56 30.5 -92.5t88.5 -36.5q69 0 110.5 51.5t41.5 139.5zM-47 -29l89 21v-7
q0 -47 29.5 -77.5t86.5 -30.5q135 0 169 166l8 39q-17 -26 -50.5 -42.5t-77.5 -16.5q-90 0 -142.5 57t-52.5 145q0 113 69 189.5t176 76.5q106 0 149 -74l13 64h96l-90 -435q-53 -251 -271 -251q-95 0 -148 52t-53 124z" />
    <glyph glyph-name="Gcommaaccent" unicode="&#x122;" horiz-adv-x="740" 
d="M408 634q-124 0 -199 -96t-75 -231q0 -108 56.5 -170.5t154.5 -62.5q80 0 147 50t88 135h-246l18 88h339l-73 -347h-76l8 80q-82 -95 -214 -95q-127 0 -214 86.5t-87 229.5q0 100 33 182.5t88 133.5t122.5 79t139.5 28q121 0 194 -63t93 -162l-93 -27q-15 71 -68 116.5
t-136 45.5zM233 -92q0 24 18.5 40t45.5 16q23 0 41 -16t18 -45q0 -57 -39.5 -87t-85.5 -30q-8 0 -14 1l9 39q60 0 74 41q-6 -4 -18 -4q-22 0 -35.5 12.5t-13.5 32.5z" />
    <glyph glyph-name="gcommaaccent" unicode="&#x123;" horiz-adv-x="565" 
d="M367 596q0 -25 -17.5 -42t-43.5 -17q-22 0 -40.5 17t-18.5 43q0 61 41.5 90.5t88.5 29.5h7l-8 -40h-5q-23 0 -43.5 -11.5t-25.5 -29.5q10 4 19 4q21 0 33.5 -12.5t12.5 -31.5zM378 293q0 46 -30 81t-88 35q-66 0 -109.5 -48t-43.5 -130q0 -56 30.5 -92.5t88.5 -36.5
q69 0 110.5 51.5t41.5 139.5zM-47 -29l89 21v-7q0 -47 29.5 -77.5t86.5 -30.5q135 0 169 166l8 39q-17 -26 -50.5 -42.5t-77.5 -16.5q-90 0 -142.5 57t-52.5 145q0 113 69 189.5t176 76.5q106 0 149 -74l13 64h96l-90 -435q-53 -251 -271 -251q-95 0 -148 52t-53 124z" />
    <glyph glyph-name="Hcircumflex" unicode="&#x124;" horiz-adv-x="708" 
d="M352 759h-87l135 119h120l90 -119h-83l-74 64zM543 0h-98l66 315h-332l-66 -315h-98l150 709h98l-64 -303h332l64 303h98z" />
    <glyph glyph-name="hcircumflex" unicode="&#x125;" horiz-adv-x="555" 
d="M409 0h-94l62 291q4 17 4 37q0 40 -22.5 62t-65.5 22q-53 0 -87.5 -38.5t-46.5 -93.5l-60 -280h-94l154 724h94l-60 -283q48 54 138 54q67 0 107.5 -39t40.5 -105q0 -19 -5 -46zM279 769h-87l135 119h120l90 -119h-83l-74 64z" />
    <glyph glyph-name="Hbar" unicode="&#x126;" horiz-adv-x="708" 
d="M46 513l15 75h78l26 121h98l-26 -121h332l26 121h98l-26 -121h80l-15 -75h-81l-108 -513h-98l66 315h-332l-66 -315h-98l108 513h-77zM199 406h332l22 107h-332z" />
    <glyph glyph-name="hbar" unicode="&#x127;" horiz-adv-x="555" 
d="M409 0h-94l62 291q4 17 4 37q0 40 -22.5 62t-65.5 22q-53 0 -87.5 -38.5t-46.5 -93.5l-60 -280h-94l118 557h-81l17 76h80l20 91h94l-20 -91h127l-17 -76h-126l-24 -116q48 54 138 54q67 0 107.5 -39t40.5 -105q0 -19 -5 -46z" />
    <glyph glyph-name="Itilde" unicode="&#x128;" horiz-adv-x="280" 
d="M406 881q-21 -126 -113 -126q-36 0 -70 24l-12 8q-21 14 -38 14q-31 0 -39 -44h-70q7 64 38 95t76 31q36 0 70 -24l12 -8q21 -14 38 -14q31 0 39 44h69zM115 0h-100l150 709h100z" />
    <glyph glyph-name="itilde" unicode="&#x129;" horiz-adv-x="257" 
d="M99 0h-94l103 481h94zM77 554h-70q7 64 38 95t76 31q34 0 68 -24l12 -8q21 -14 36 -14q31 0 39 44h69q-21 -126 -113 -126q-34 0 -68 24l-12 8q-21 14 -36 14q-31 0 -39 -44z" />
    <glyph glyph-name="Imacron" unicode="&#x12a;" horiz-adv-x="280" 
d="M372 779h-293l18 83h293zM115 0h-100l150 709h100z" />
    <glyph glyph-name="imacron" unicode="&#x12b;" horiz-adv-x="257" 
d="M99 0h-94l103 481h94zM307 577h-273l17 81h273z" />
    <glyph glyph-name="Ibreve" unicode="&#x12c;" horiz-adv-x="280" 
d="M233 755q-65 0 -102 32t-37 81q0 6 2 16h78q-1 -4 -1 -8q0 -19 16 -32.5t50 -13.5q39 0 61 16t27 38h79q-16 -54 -60.5 -91.5t-112.5 -37.5zM115 0h-100l150 709h100z" />
    <glyph glyph-name="ibreve" unicode="&#x12d;" horiz-adv-x="257" 
d="M99 0h-94l103 481h94zM160 544q-57 0 -89.5 34t-32.5 83q0 13 3 27h69q-1 -4 -1 -9q0 -23 14.5 -39t46.5 -16q35 0 56.5 19.5t29.5 44.5h77q-13 -60 -57.5 -102t-115.5 -42z" />
    <glyph glyph-name="Iogonek" unicode="&#x12e;" horiz-adv-x="280" 
d="M-74 -132q0 82 93 132h-4l150 709h100l-150 -709q-108 -47 -108 -109q0 -19 12.5 -28.5t31.5 -9.5q15 0 33 3l-14 -64q-22 -8 -51 -8q-42 0 -67.5 23t-25.5 61z" />
    <glyph glyph-name="iogonek" unicode="&#x12f;" horiz-adv-x="257" 
d="M-9 -109q0 -19 12.5 -28.5t31.5 -9.5q15 0 33 3l-14 -64q-22 -8 -51 -8q-42 0 -67.5 23t-25.5 61q0 86 95 132l103 481h94l-103 -481q-108 -47 -108 -109zM125 659q0 31 23 52.5t51 21.5q27 0 44 -17.5t17 -42.5q0 -30 -23 -52t-51 -22q-27 0 -44 17.5t-17 42.5z" />
    <glyph glyph-name="Idotaccent" unicode="&#x130;" horiz-adv-x="280" 
d="M173 814q0 28 20.5 49t49.5 21q26 0 42.5 -16.5t16.5 -40.5q0 -29 -21 -50.5t-50 -21.5q-26 0 -42 17t-16 42zM115 0h-100l150 709h100z" />
    <glyph glyph-name="dotlessi" unicode="&#x131;" horiz-adv-x="257" 
d="M99 0h-94l103 481h94z" />
    <glyph glyph-name="IJ" unicode="&#x132;" horiz-adv-x="594" 
d="M182 322h-100l85 387h100zM490 709h99l-110 -513q-21 -98 -77 -154t-146 -56q-93 0 -144.5 53t-51.5 138q0 30 8 67l101 15l-7 -29q-6 -26 -6 -48q0 -49 26.5 -78.5t76.5 -29.5q95 0 122 124z" />
    <glyph glyph-name="ij" unicode="&#x133;" horiz-adv-x="481" 
d="M217 -57l116 538h93l-119 -560q-13 -60 -51.5 -93t-93.5 -33q-44 0 -68 14l16 75q18 -6 37 -6q31 0 46.5 15t23.5 50zM350 659q0 31 23 52.5t51 21.5q27 0 44 -17.5t17 -42.5q0 -30 -23 -52t-51 -22q-27 0 -44 17.5t-17 42.5zM125 659q0 31 23 52.5t51 21.5
q27 0 44 -17.5t17 -42.5q0 -30 -23 -52t-51 -22q-27 0 -44 17.5t-17 42.5zM99 0h-94l103 481h94z" />
    <glyph glyph-name="Jcircumflex" unicode="&#x134;" horiz-adv-x="544" 
d="M412 759h-87l135 119h120l90 -119h-83l-74 64zM446 709h99l-110 -513q-21 -98 -77 -154t-146 -56q-93 0 -144.5 53t-51.5 138q0 30 8 67l5 23l100 15l-11 -52q-5 -20 -5 -47q0 -50 26 -79.5t76 -29.5q95 0 122 124z" />
    <glyph glyph-name="jcircumflex" unicode="&#x135;" horiz-adv-x="256" 
d="M99 545h-90l131 139h113l71 -139h-85l-52 81zM-8 -57l116 538h93l-119 -560q-13 -60 -51.5 -93t-93.5 -33q-43 0 -68 14l16 75q18 -6 37 -6q31 0 46.5 15t23.5 50z" />
    <glyph glyph-name="Kcommaaccent" unicode="&#x136;" horiz-adv-x="662" 
d="M222 -92q0 24 18.5 40t45.5 16q23 0 41 -16t18 -45q0 -57 -39.5 -87t-85.5 -30q-8 0 -14 1l9 39q60 0 74 41q-6 -4 -18 -4q-22 0 -35.5 12.5t-13.5 32.5zM465 0l-176 334l-130 -114l-46 -220h-98l150 709h98l-73 -344l392 344h135l-355 -312l214 -397h-111z" />
    <glyph glyph-name="kcommaaccent" unicode="&#x137;" horiz-adv-x="527" 
d="M139 -92q0 24 18.5 40t45.5 16q23 0 41 -16t18 -45q0 -57 -39.5 -87t-85.5 -30q-8 0 -14 1l9 39q60 0 74 41q-6 -4 -18 -4q-22 0 -35.5 12.5t-13.5 32.5zM336 0l-109 228l-98 -80l-31 -148h-93l154 724h93l-94 -440l239 197h140l-238 -194l142 -287h-105z" />
    <glyph glyph-name="kgreenlandic" unicode="&#x138;" horiz-adv-x="527" 
d="M336 0l-109 228l-98 -80l-31 -148h-93l103 481h93l-43 -197l239 197h140l-238 -194l142 -287h-105z" />
    <glyph glyph-name="Lacute" unicode="&#x139;" horiz-adv-x="538" 
d="M425 878l-153 -119h-97l119 119h131zM438 0h-423l150 709h98l-131 -617h325z" />
    <glyph glyph-name="lacute" unicode="&#x13a;" horiz-adv-x="255" 
d="M412 888l-153 -119h-97l119 119h131zM99 0h-94l154 724h94z" />
    <glyph glyph-name="Lcommaaccent" unicode="&#x13b;" horiz-adv-x="538" 
d="M161 -92q0 24 18.5 40t45.5 16q23 0 41 -16t18 -45q0 -57 -39.5 -87t-85.5 -30q-8 0 -14 1l9 39q60 0 74 41q-6 -4 -18 -4q-22 0 -35.5 12.5t-13.5 32.5zM438 0h-423l150 709h98l-131 -617h325z" />
    <glyph glyph-name="lcommaaccent" unicode="&#x13c;" horiz-adv-x="255" 
d="M-31 -92q0 24 18.5 40t45.5 16q23 0 41 -16t18 -45q0 -57 -39.5 -87t-85.5 -30q-8 0 -14 1l9 39q60 0 74 41q-6 -4 -18 -4q-22 0 -35.5 12.5t-13.5 32.5zM99 0h-94l154 724h94z" />
    <glyph glyph-name="Lcaron" unicode="&#x13d;" horiz-adv-x="538" 
d="M438 0h-423l150 709h98l-131 -617h325zM488 760l-105 -190h-76l65 190h116z" />
    <glyph glyph-name="lcaron" unicode="&#x13e;" horiz-adv-x="309" 
d="M436 724l-102 -179h-72l66 179h108zM99 0h-94l154 724h94z" />
    <glyph glyph-name="Ldot" unicode="&#x13f;" horiz-adv-x="538" 
d="M438 0h-423l150 709h98l-131 -617h325zM287 336q0 28 20.5 49t49.5 21q26 0 42.5 -16.5t16.5 -40.5q0 -29 -21 -50.5t-50 -21.5q-26 0 -42 17t-16 42z" />
    <glyph glyph-name="ldot" unicode="&#x140;" horiz-adv-x="355" 
d="M218 303q0 28 21 50t50 22q25 0 41.5 -16.5t16.5 -40.5q0 -29 -21 -50.5t-50 -21.5q-25 0 -41.5 16.5t-16.5 40.5zM99 0h-94l154 724h94z" />
    <glyph glyph-name="Lslash" unicode="&#x141;" horiz-adv-x="538" 
d="M438 0h-423l62 296l-96 -39l18 87l97 39l69 326h98l-60 -283l180 73l-18 -87l-181 -73l-52 -247h325z" />
    <glyph glyph-name="lslash" unicode="&#x142;" horiz-adv-x="289" 
d="M99 0h-94l66 308l-99 -40l19 87l98 40l70 329h94l-61 -288l103 42l-19 -87l-103 -42z" />
    <glyph glyph-name="Nacute" unicode="&#x143;" horiz-adv-x="738" 
d="M629 878l-153 -119h-97l119 119h131zM573 0h-102l-236 574l-122 -574h-98l150 709h117l225 -554l118 554h98z" />
    <glyph glyph-name="nacute" unicode="&#x144;" horiz-adv-x="555" 
d="M493 689l-155 -146h-84l115 146h124zM409 0h-94l62 291q4 20 4 37q0 40 -22.5 62t-65.5 22q-53 0 -87.5 -38.5t-46.5 -93.5l-60 -280h-94l84 396q12 54 12 85h92q0 -20 -6 -53q50 67 149 67q64 0 103.5 -39.5t39.5 -104.5q0 -19 -5 -46z" />
    <glyph glyph-name="Ncommaaccent" unicode="&#x145;" horiz-adv-x="738" 
d="M251 -92q0 24 18.5 40t45.5 16q23 0 41 -16t18 -45q0 -57 -39.5 -87t-85.5 -30q-8 0 -14 1l9 39q60 0 74 41q-6 -4 -18 -4q-22 0 -35.5 12.5t-13.5 32.5zM573 0h-102l-236 574l-122 -574h-98l150 709h117l225 -554l118 554h98z" />
    <glyph glyph-name="ncommaaccent" unicode="&#x146;" horiz-adv-x="555" 
d="M140 -92q0 24 18.5 40t45.5 16q23 0 41 -16t18 -45q0 -57 -39.5 -87t-85.5 -30q-8 0 -14 1l9 39q60 0 74 41q-6 -4 -18 -4q-22 0 -35.5 12.5t-13.5 32.5zM409 0h-94l62 291q4 20 4 37q0 40 -22.5 62t-65.5 22q-53 0 -87.5 -38.5t-46.5 -93.5l-60 -280h-94l84 396
q12 54 12 85h92q0 -20 -6 -53q50 67 149 67q64 0 103.5 -39.5t39.5 -104.5q0 -19 -5 -46z" />
    <glyph glyph-name="Ncaron" unicode="&#x147;" horiz-adv-x="738" 
d="M549 878h93l-140 -119h-120l-85 119h82l69 -64zM573 0h-102l-236 574l-122 -574h-98l150 709h117l225 -554l118 554h98z" />
    <glyph glyph-name="ncaron" unicode="&#x148;" horiz-adv-x="555" 
d="M401 687h91l-130 -142h-115l-70 142h84l52 -81zM409 0h-94l62 291q4 20 4 37q0 40 -22.5 62t-65.5 22q-53 0 -87.5 -38.5t-46.5 -93.5l-60 -280h-94l84 396q12 54 12 85h92q0 -20 -6 -53q50 67 149 67q64 0 103.5 -39.5t39.5 -104.5q0 -19 -5 -46z" />
    <glyph glyph-name="napostrophe" unicode="&#x149;" horiz-adv-x="555" 
d="M119 547l8 40q57 0 75 41q-8 -4 -19 -4q-21 0 -34 13t-13 32q0 26 17.5 41.5t43.5 15.5q24 0 41.5 -15t17.5 -45q0 -51 -37 -85.5t-89 -34.5q-6 0 -11 1zM409 0h-94l62 291q4 20 4 37q0 40 -22.5 62t-65.5 22q-53 0 -87.5 -38.5t-46.5 -93.5l-60 -280h-94l84 396
q12 54 12 85h92q0 -20 -6 -53q50 67 149 67q64 0 103.5 -39.5t39.5 -104.5q0 -19 -5 -46z" />
    <glyph glyph-name="Eng" unicode="&#x14a;" horiz-adv-x="738" 
d="M466 -58l10 47l-241 585l-122 -574h-98l150 709h117l225 -554l118 554h98l-167 -789q-13 -59 -51.5 -92t-93.5 -33q-43 0 -68 14l16 75q15 -6 37 -6q31 0 46.5 15t23.5 49z" />
    <glyph glyph-name="eng" unicode="&#x14b;" horiz-adv-x="555" 
d="M300 -69l77 360q4 18 4 37q0 40 -22.5 62t-65.5 22q-53 0 -87.5 -38.5t-46.5 -93.5l-60 -280h-94l84 396q12 54 12 85h92q0 -20 -6 -53q50 67 149 67q64 0 103.5 -39.5t39.5 -104.5q0 -24 -5 -46l-84 -396q-13 -59 -51.5 -92t-93.5 -33q-43 0 -68 14l16 75q18 -6 37 -6
q31 0 46.5 15t23.5 49z" />
    <glyph glyph-name="Omacron" unicode="&#x14c;" horiz-adv-x="753" 
d="M35 294q0 102 33 186t87 136t120.5 80t136.5 28q139 0 222.5 -85t83.5 -225q0 -102 -33 -185.5t-87 -135.5t-120 -80t-136 -28q-139 0 -223 85t-84 224zM618 404q0 108 -59 169t-153 61q-84 0 -147 -48t-93.5 -122t-30.5 -160q0 -108 59 -168.5t153 -60.5q84 0 147 47.5
t93.5 121.5t30.5 160zM587 779h-293l18 83h293z" />
    <glyph glyph-name="omacron" unicode="&#x14d;" horiz-adv-x="541" 
d="M436 577h-273l17 81h273zM267 412q-66 0 -113.5 -54.5t-47.5 -148.5q0 -64 33 -102t89 -38q66 0 114 55t48 149q0 63 -33 101t-90 38zM486 275q0 -122 -75 -206t-187 -84q-99 0 -156.5 64t-57.5 158q0 124 75 206.5t188 82.5q100 0 156.5 -63t56.5 -158z" />
    <glyph glyph-name="Obreve" unicode="&#x14e;" horiz-adv-x="753" 
d="M35 294q0 102 33 186t87 136t120.5 80t136.5 28q139 0 222.5 -85t83.5 -225q0 -102 -33 -185.5t-87 -135.5t-120 -80t-136 -28q-139 0 -223 85t-84 224zM618 404q0 108 -59 169t-153 61q-84 0 -147 -48t-93.5 -122t-30.5 -160q0 -108 59 -168.5t153 -60.5q84 0 147 47.5
t93.5 121.5t30.5 160zM461 755q-65 0 -102 32t-37 81q0 6 2 16h78q-1 -4 -1 -8q0 -19 16 -32.5t50 -13.5q39 0 61 16t27 38h79q-16 -54 -60.5 -91.5t-112.5 -37.5z" />
    <glyph glyph-name="obreve" unicode="&#x14f;" horiz-adv-x="541" 
d="M289 544q-57 0 -89.5 34t-32.5 83q0 13 3 27h69q-1 -4 -1 -9q0 -23 14.5 -39t46.5 -16q35 0 56.5 19.5t29.5 44.5h77q-13 -60 -57.5 -102t-115.5 -42zM267 412q-66 0 -113.5 -54.5t-47.5 -148.5q0 -64 33 -102t89 -38q66 0 114 55t48 149q0 63 -33 101t-90 38zM486 275
q0 -122 -75 -206t-187 -84q-99 0 -156.5 64t-57.5 158q0 124 75 206.5t188 82.5q100 0 156.5 -63t56.5 -158z" />
    <glyph glyph-name="Ohungarumlaut" unicode="&#x150;" horiz-adv-x="753" 
d="M35 294q0 102 33 186t87 136t120.5 80t136.5 28q139 0 222.5 -85t83.5 -225q0 -102 -33 -185.5t-87 -135.5t-120 -80t-136 -28q-139 0 -223 85t-84 224zM618 404q0 108 -59 169t-153 61q-84 0 -147 -48t-93.5 -122t-30.5 -160q0 -108 59 -168.5t153 -60.5q84 0 147 47.5
t93.5 121.5t30.5 160zM510 878l-118 -119h-73l81 119h110zM661 878l-128 -119h-73l91 119h110z" />
    <glyph glyph-name="ohungarumlaut" unicode="&#x151;" horiz-adv-x="541" 
d="M376 689l-121 -146h-69l82 146h108zM520 689l-131 -146h-69l92 146h108zM267 412q-66 0 -113.5 -54.5t-47.5 -148.5q0 -64 33 -102t89 -38q66 0 114 55t48 149q0 63 -33 101t-90 38zM486 275q0 -122 -75 -206t-187 -84q-99 0 -156.5 64t-57.5 158q0 124 75 206.5
t188 82.5q100 0 156.5 -63t56.5 -158z" />
    <glyph glyph-name="OE" unicode="&#x152;" horiz-adv-x="1103" 
d="M618 404q0 108 -59 169t-153 61q-84 0 -147 -48t-93.5 -122t-30.5 -160q0 -108 59 -168.5t153 -60.5q84 0 147 47.5t93.5 121.5t30.5 160zM968 0h-426l13 60q-95 -75 -213 -75q-139 0 -223 85t-84 224q0 102 33 186t87 136t120.5 80t136.5 28q180 0 253 -141l27 126h426
l-19 -91h-328l-46 -218h297l-20 -92h-297l-46 -217h328z" />
    <glyph glyph-name="oe" unicode="&#x153;" horiz-adv-x="905" 
d="M605 -15q-127 0 -185 94q-78 -94 -196 -94q-99 0 -156.5 64t-57.5 158q0 124 75 206.5t188 82.5q123 0 180 -95q38 45 90 70t108 25q95 0 147 -53t52 -141q0 -43 -14 -88h-354q-1 -7 -1 -17q0 -58 35 -93.5t87 -35.5q97 0 142 80l71 -46q-27 -50 -83 -83.5t-128 -33.5z
M495 290h256q2 8 2 20q0 42 -26 72.5t-81 30.5q-57 0 -97 -36t-54 -87zM390 273q0 63 -33 101t-90 38q-66 0 -113.5 -54.5t-47.5 -148.5q0 -64 33 -102t89 -38q66 0 114 55t48 149z" />
    <glyph glyph-name="Racute" unicode="&#x154;" horiz-adv-x="615" 
d="M561 878l-153 -119h-97l119 119h131zM412 0l-111 294h-126l-62 -294h-98l150 709h230q90 0 142.5 -50.5t52.5 -129.5q0 -89 -52.5 -149.5t-137.5 -78.5l116 -301h-104zM193 381h139q71 0 115 38t44 104q0 45 -29 72t-83 27h-134z" />
    <glyph glyph-name="racute" unicode="&#x155;" horiz-adv-x="364" 
d="M433 689l-155 -146h-84l115 146h124zM347 384q-18 3 -34 3q-61 0 -105 -39t-61 -120l-49 -228h-93l84 396q12 59 12 85h92q0 -44 -9 -75q51 83 158 83q13 0 27 -2z" />
    <glyph glyph-name="Rcommaaccent" unicode="&#x156;" horiz-adv-x="615" 
d="M186 -92q0 24 18.5 40t45.5 16q23 0 41 -16t18 -45q0 -57 -39.5 -87t-85.5 -30q-8 0 -14 1l9 39q60 0 74 41q-6 -4 -18 -4q-22 0 -35.5 12.5t-13.5 32.5zM412 0l-111 294h-126l-62 -294h-98l150 709h230q90 0 142.5 -50.5t52.5 -129.5q0 -89 -52.5 -149.5t-137.5 -78.5
l116 -301h-104zM193 381h139q71 0 115 38t44 104q0 45 -29 72t-83 27h-134z" />
    <glyph glyph-name="rcommaaccent" unicode="&#x157;" horiz-adv-x="364" 
d="M-28 -92q0 24 18.5 40t45.5 16q23 0 41 -16t18 -45q0 -57 -39.5 -87t-85.5 -30q-8 0 -14 1l9 39q60 0 74 41q-6 -4 -18 -4q-22 0 -35.5 12.5t-13.5 32.5zM347 384q-18 3 -34 3q-61 0 -105 -39t-61 -120l-49 -228h-93l84 396q12 59 12 85h92q0 -44 -9 -75q51 83 158 83
q13 0 27 -2z" />
    <glyph glyph-name="Rcaron" unicode="&#x158;" horiz-adv-x="615" 
d="M477 878h93l-140 -119h-120l-85 119h82l69 -64zM412 0l-111 294h-126l-62 -294h-98l150 709h230q90 0 142.5 -50.5t52.5 -129.5q0 -89 -52.5 -149.5t-137.5 -78.5l116 -301h-104zM193 381h139q71 0 115 38t44 104q0 45 -29 72t-83 27h-134z" />
    <glyph glyph-name="rcaron" unicode="&#x159;" horiz-adv-x="364" 
d="M333 687h91l-130 -142h-115l-70 142h84l52 -81zM347 384q-18 3 -34 3q-61 0 -105 -39t-61 -120l-49 -228h-93l84 396q12 59 12 85h92q0 -44 -9 -75q51 83 158 83q13 0 27 -2z" />
    <glyph glyph-name="Sacute" unicode="&#x15a;" horiz-adv-x="581" 
d="M264 73q61 1 98.5 31.5t37.5 79.5q0 69 -76 103l-94 42q-129 57 -129 183q0 89 68.5 150.5t169.5 61.5q61 0 108.5 -20t73 -51.5t38 -64.5t12.5 -65l-93 -18q0 18 -5.5 37t-19 42t-45.5 38t-77 15q-55 0 -92.5 -32.5t-37.5 -79.5q0 -67 66 -98l97 -45q138 -65 138 -187
q0 -86 -67 -148t-171 -62q-128 0 -193.5 71t-65.5 165q0 8 1 15l99 17q-1 -9 -1 -20q0 -67 40 -113.5t120 -46.5zM561 878l-153 -119h-97l119 119h131z" />
    <glyph glyph-name="sacute" unicode="&#x15b;" horiz-adv-x="441" 
d="M443 689l-155 -146h-84l115 146h124zM-10 150l83 19q1 -44 29.5 -74t75.5 -30q37 0 57 19t20 45q0 36 -45 57l-70 32q-86 39 -86 122q0 64 48.5 110t127.5 46q45 0 79 -14t52.5 -36.5t28 -44.5t11.5 -44l-84 -23q-13 83 -96 83q-35 0 -55.5 -18.5t-20.5 -44.5
q0 -37 38 -54l66 -30q100 -45 100 -134q0 -56 -44.5 -103.5t-131.5 -47.5q-90 0 -136.5 51.5t-46.5 113.5z" />
    <glyph glyph-name="Scircumflex" unicode="&#x15c;" horiz-adv-x="581" 
d="M285 759h-87l135 119h120l90 -119h-83l-74 64zM264 73q61 1 98.5 31.5t37.5 79.5q0 69 -76 103l-94 42q-129 57 -129 183q0 89 68.5 150.5t169.5 61.5q61 0 108.5 -20t73 -51.5t38 -64.5t12.5 -65l-93 -18q0 18 -5.5 37t-19 42t-45.5 38t-77 15q-55 0 -92.5 -32.5
t-37.5 -79.5q0 -67 66 -98l97 -45q138 -65 138 -187q0 -86 -67 -148t-171 -62q-128 0 -193.5 71t-65.5 165q0 8 1 15l99 17q-1 -9 -1 -20q0 -67 40 -113.5t120 -46.5z" />
    <glyph glyph-name="scircumflex" unicode="&#x15d;" horiz-adv-x="441" 
d="M191 545h-90l131 139h113l71 -139h-85l-52 81zM-10 150l83 19q1 -44 29.5 -74t75.5 -30q37 0 57 19t20 45q0 36 -45 57l-70 32q-86 39 -86 122q0 64 48.5 110t127.5 46q45 0 79 -14t52.5 -36.5t28 -44.5t11.5 -44l-84 -23q-13 83 -96 83q-35 0 -55.5 -18.5t-20.5 -44.5
q0 -37 38 -54l66 -30q100 -45 100 -134q0 -56 -44.5 -103.5t-131.5 -47.5q-90 0 -136.5 51.5t-46.5 113.5z" />
    <glyph glyph-name="Scedilla" unicode="&#x15e;" horiz-adv-x="581" 
d="M146 -52l50 43q-64 12 -108.5 50t-63.5 83.5t-19 96.5q0 7 1 15l99 17q-1 -11 -1 -20q0 -67 40 -113.5t120 -46.5q61 0 98.5 30.5t37.5 80.5q0 69 -76 103l-94 42q-129 57 -129 183q0 89 68.5 150.5t169.5 61.5q61 0 108.5 -20t73 -51.5t38 -64.5t12.5 -65l-93 -18
q0 18 -5.5 37t-19 42t-45.5 38t-77 15q-55 0 -92.5 -32.5t-37.5 -79.5q0 -67 66 -98l97 -45q138 -65 138 -187q0 -84 -65 -145.5t-166 -64.5l-44 -37q33 -4 50.5 -24.5t17.5 -47.5q0 -39 -32.5 -65.5t-82.5 -26.5q-47 0 -80 22.5t-44 48.5l52 32q21 -48 71 -48q19 0 32.5 9
t13.5 26q0 15 -12.5 24t-30.5 9q-9 0 -14 -1z" />
    <glyph glyph-name="scedilla" unicode="&#x15f;" horiz-adv-x="441" 
d="M190 -14l-45 -38q33 -4 50.5 -24.5t17.5 -47.5q0 -39 -32.5 -65.5t-82.5 -26.5q-47 0 -80 22.5t-44 48.5l52 32q21 -48 71 -48q19 0 32.5 9t13.5 26q0 15 -11.5 24t-31.5 9q-9 0 -14 -1l-22 42l51 44q-62 16 -93.5 62t-31.5 96l83 19q1 -44 29.5 -74t75.5 -30q37 0 57 19
t20 45q0 36 -45 57l-70 32q-86 39 -86 122q0 64 48.5 110t127.5 46q45 0 79 -14t52.5 -36.5t28 -44.5t11.5 -44l-84 -23q-13 83 -96 83q-35 0 -55.5 -18.5t-20.5 -44.5q0 -37 38 -54l66 -30q100 -45 100 -134q0 -53 -40 -99t-119 -51z" />
    <glyph glyph-name="Scaron" unicode="&#x160;" horiz-adv-x="581" 
d="M264 73q61 1 98.5 31.5t37.5 79.5q0 69 -76 103l-94 42q-129 57 -129 183q0 89 68.5 150.5t169.5 61.5q61 0 108.5 -20t73 -51.5t38 -64.5t12.5 -65l-93 -18q0 18 -5.5 37t-19 42t-45.5 38t-77 15q-55 0 -92.5 -32.5t-37.5 -79.5q0 -67 66 -98l97 -45q138 -65 138 -187
q0 -86 -67 -148t-171 -62q-128 0 -193.5 71t-65.5 165q0 8 1 15l99 17q-1 -9 -1 -20q0 -67 40 -113.5t120 -46.5zM477 878h93l-140 -119h-120l-85 119h82l69 -64z" />
    <glyph glyph-name="scaron" unicode="&#x161;" horiz-adv-x="441" 
d="M360 687h91l-130 -142h-115l-70 142h84l52 -81zM-10 150l83 19q1 -44 29.5 -74t75.5 -30q37 0 57 19t20 45q0 36 -45 57l-70 32q-86 39 -86 122q0 64 48.5 110t127.5 46q45 0 79 -14t52.5 -36.5t28 -44.5t11.5 -44l-84 -23q-13 83 -96 83q-35 0 -55.5 -18.5t-20.5 -44.5
q0 -37 38 -54l66 -30q100 -45 100 -134q0 -56 -44.5 -103.5t-131.5 -47.5q-90 0 -136.5 51.5t-46.5 113.5z" />
    <glyph glyph-name="Tcommaaccent" unicode="&#x162;" horiz-adv-x="566" 
d="M177 0h-14l131 619h-229l19 90h547l-19 -90h-220l-131 -619l-61 -52q33 -4 50.5 -24.5t17.5 -47.5q0 -39 -32.5 -65.5t-82.5 -26.5q-48 0 -81 22t-43 49l52 32q21 -48 71 -48q19 0 32.5 9t13.5 26q0 15 -11.5 24t-31.5 9q-9 0 -14 -1l-22 42z" />
    <glyph glyph-name="tcommaaccent" unicode="&#x163;" horiz-adv-x="337" 
d="M59 101q0 20 4 37l55 258h-88l18 85h14q83 0 99 78l16 74h86l-33 -152h97l-18 -85h-97l-53 -253q-3 -13 -3 -23q0 -43 54 -43q16 0 32 2l-16 -77q-9 -5 -34 -6l-57 -48q33 -4 50.5 -24.5t17.5 -47.5q0 -39 -32.5 -65.5t-82.5 -26.5q-48 0 -81 22t-43 49l52 32
q21 -48 71 -48q19 0 32.5 9t13.5 26q0 15 -11.5 24t-31.5 9q-9 0 -14 -1l-22 42l65 57q-60 24 -60 96z" />
    <glyph glyph-name="Tcaron" unicode="&#x164;" horiz-adv-x="566" 
d="M612 619h-220l-131 -619h-98l131 619h-229l19 90h547zM476 878h93l-140 -119h-120l-85 119h82l69 -64z" />
    <glyph glyph-name="tcaron" unicode="&#x165;" horiz-adv-x="337" 
d="M482 745l-102 -179h-72l66 179h108zM59 101q0 20 4 37l55 258h-88l18 85h14q83 0 99 78l16 74h86l-33 -152h97l-18 -85h-97l-53 -253q-3 -13 -3 -23q0 -43 54 -43q16 0 32 2l-16 -77q-18 -7 -51 -7q-53 0 -84.5 28t-31.5 78z" />
    <glyph glyph-name="Tbar" unicode="&#x166;" horiz-adv-x="566" 
d="M612 619h-220l-52 -247h122l-18 -81h-122l-61 -291h-98l61 291h-116l18 81h116l52 247h-229l19 90h547z" />
    <glyph glyph-name="tbar" unicode="&#x167;" horiz-adv-x="337" 
d="M212 396l-24 -112h102l-16 -76h-102l-13 -65q-3 -13 -3 -23q0 -43 54 -43q16 0 32 2l-16 -77q-18 -7 -51 -7q-53 0 -84.5 28t-31.5 78q0 20 4 37l15 70h-85l16 76h85l24 112h-88l18 85h14q83 0 99 78l16 74h86l-33 -152h97l-18 -85h-97z" />
    <glyph glyph-name="Utilde" unicode="&#x168;" horiz-adv-x="666" 
d="M562 709h99l-104 -493q-23 -110 -94 -170.5t-175 -60.5q-107 0 -169.5 55.5t-62.5 155.5q0 38 8 74l93 439h94l-92 -451q-6 -28 -6 -54q0 -60 35 -94t105 -34q65 0 108.5 39t58.5 110zM598 881q-21 -126 -113 -126q-36 0 -70 24l-12 8q-21 14 -38 14q-31 0 -39 -44h-70
q7 64 38 95t76 31q36 0 70 -24l12 -8q21 -14 38 -14q31 0 39 44h69z" />
    <glyph glyph-name="utilde" unicode="&#x169;" horiz-adv-x="544" 
d="M318 56q-23 -32 -59 -49t-72 -17q-73 0 -114 42t-41 113q0 27 6 55l60 281h94l-59 -279q-5 -27 -5 -46q0 -86 85 -86q51 0 84.5 37t44.5 93l59 281h93l-75 -356q-11 -50 -11 -109q0 -8 1 -16h-90q-2 10 -2 28q0 15 1 28zM220 554h-70q7 64 38 95t76 31q34 0 68 -24l12 -8
q21 -14 36 -14q31 0 39 44h69q-21 -126 -113 -126q-34 0 -68 24l-12 8q-21 14 -36 14q-31 0 -39 -44z" />
    <glyph glyph-name="Umacron" unicode="&#x16a;" horiz-adv-x="666" 
d="M562 709h99l-104 -493q-23 -110 -94 -170.5t-175 -60.5q-107 0 -169.5 55.5t-62.5 155.5q0 38 8 74l93 439h94l-92 -451q-6 -28 -6 -54q0 -60 35 -94t105 -34q65 0 108.5 39t58.5 110zM566 779h-293l18 83h293z" />
    <glyph glyph-name="umacron" unicode="&#x16b;" horiz-adv-x="544" 
d="M318 56q-23 -32 -59 -49t-72 -17q-73 0 -114 42t-41 113q0 27 6 55l60 281h94l-59 -279q-5 -27 -5 -46q0 -86 85 -86q51 0 84.5 37t44.5 93l59 281h93l-75 -356q-11 -50 -11 -109q0 -8 1 -16h-90q-2 10 -2 28q0 15 1 28zM449 577h-273l17 81h273z" />
    <glyph glyph-name="Ubreve" unicode="&#x16c;" horiz-adv-x="666" 
d="M562 709h99l-104 -493q-23 -110 -94 -170.5t-175 -60.5q-107 0 -169.5 55.5t-62.5 155.5q0 38 8 74l93 439h94l-92 -451q-6 -28 -6 -54q0 -60 35 -94t105 -34q65 0 108.5 39t58.5 110zM418 755q-65 0 -102 32t-37 81q0 6 2 16h78q-1 -4 -1 -8q0 -19 16 -32.5t50 -13.5
q39 0 61 16t27 38h79q-16 -54 -60.5 -91.5t-112.5 -37.5z" />
    <glyph glyph-name="ubreve" unicode="&#x16d;" horiz-adv-x="544" 
d="M318 56q-23 -32 -59 -49t-72 -17q-73 0 -114 42t-41 113q0 27 6 55l60 281h94l-59 -279q-5 -27 -5 -46q0 -86 85 -86q51 0 84.5 37t44.5 93l59 281h93l-75 -356q-11 -50 -11 -109q0 -8 1 -16h-90q-2 10 -2 28q0 15 1 28zM304 544q-57 0 -89.5 34t-32.5 83q0 13 3 27h69
q-1 -4 -1 -9q0 -23 14.5 -39t46.5 -16q35 0 56.5 19.5t29.5 44.5h77q-13 -60 -57.5 -102t-115.5 -42z" />
    <glyph glyph-name="Uring" unicode="&#x16e;" horiz-adv-x="666" 
d="M562 709h99l-104 -493q-23 -110 -94 -170.5t-175 -60.5q-107 0 -169.5 55.5t-62.5 155.5q0 38 8 74l93 439h94l-92 -451q-6 -28 -6 -54q0 -60 35 -94t105 -34q65 0 108.5 39t58.5 110zM428 895q-20 0 -35.5 -14t-15.5 -36q0 -19 11.5 -30.5t31.5 -11.5q22 0 37 14t15 36
q0 18 -12.5 30t-31.5 12zM313 837q0 52 37 86.5t85 34.5q43 0 73 -29.5t30 -70.5q0 -46 -36 -82.5t-84 -36.5q-44 0 -74.5 28.5t-30.5 69.5z" />
    <glyph glyph-name="uring" unicode="&#x16f;" horiz-adv-x="544" 
d="M318 56q-23 -32 -59 -49t-72 -17q-73 0 -114 42t-41 113q0 27 6 55l60 281h94l-59 -279q-5 -27 -5 -46q0 -86 85 -86q51 0 84.5 37t44.5 93l59 281h93l-75 -356q-11 -50 -11 -109q0 -8 1 -16h-90q-2 10 -2 28q0 15 1 28zM326 750q43 0 73 -29.5t30 -70.5q0 -46 -36 -82.5
t-84 -36.5q-44 0 -74.5 28.5t-30.5 69.5q0 52 37 86.5t85 34.5zM268 637q0 -19 11.5 -30.5t31.5 -11.5q22 0 37 14t15 36q0 18 -12.5 30t-31.5 12q-20 0 -35.5 -14t-15.5 -36z" />
    <glyph glyph-name="Uhungarumlaut" unicode="&#x170;" horiz-adv-x="666" 
d="M562 709h99l-104 -493q-23 -110 -94 -170.5t-175 -60.5q-107 0 -169.5 55.5t-62.5 155.5q0 38 8 74l93 439h94l-92 -451q-6 -28 -6 -54q0 -60 35 -94t105 -34q65 0 108.5 39t58.5 110zM485 878l-118 -119h-73l81 119h110zM636 878l-128 -119h-73l91 119h110z" />
    <glyph glyph-name="uhungarumlaut" unicode="&#x171;" horiz-adv-x="544" 
d="M318 56q-23 -32 -59 -49t-72 -17q-73 0 -114 42t-41 113q0 27 6 55l60 281h94l-59 -279q-5 -27 -5 -46q0 -86 85 -86q51 0 84.5 37t44.5 93l59 281h93l-75 -356q-11 -50 -11 -109q0 -8 1 -16h-90q-2 10 -2 28q0 15 1 28zM368 689l-121 -146h-69l82 146h108zM512 689
l-131 -146h-69l92 146h108z" />
    <glyph glyph-name="Uogonek" unicode="&#x172;" horiz-adv-x="666" 
d="M193 -132q0 70 69 118q-96 7 -151 61.5t-55 148.5q0 38 8 74l93 439h94l-92 -451q-6 -28 -6 -54q0 -60 35 -94t105 -34q65 0 108.5 39t58.5 110l102 484h99l-104 -493q-36 -167 -177 -217q-41 -15 -73.5 -43t-32.5 -65q0 -19 12.5 -28.5t31.5 -9.5q15 0 33 3l-14 -64
q-22 -8 -51 -8q-42 0 -67.5 23t-25.5 61z" />
    <glyph glyph-name="uogonek" unicode="&#x173;" horiz-adv-x="544" 
d="M218 -132q0 83 101 135q-2 17 -2 28q0 15 1 25q-23 -32 -59 -49t-72 -17q-73 0 -114 42t-41 113q0 27 6 55l60 281h94l-59 -279q-5 -27 -5 -46q0 -86 85 -86q51 0 84.5 37t44.5 93l59 281h93l-75 -356q-12 -55 -12 -109v-16q-108 -47 -108 -109q0 -19 12.5 -28.5
t31.5 -9.5q15 0 33 3l-14 -64q-22 -8 -51 -8q-42 0 -67.5 23t-25.5 61z" />
    <glyph glyph-name="Wcircumflex" unicode="&#x174;" horiz-adv-x="952" 
d="M478 759h-87l135 119h120l90 -119h-83l-74 64zM495 709h103l63 -561l252 561h99l-327 -709h-97l-63 575l-280 -575h-100l-55 709h95l39 -555z" />
    <glyph glyph-name="wcircumflex" unicode="&#x175;" horiz-adv-x="768" 
d="M335 545h-90l131 139h113l71 -139h-85l-52 81zM349 481h99l46 -359l181 359h103l-255 -481h-97l-48 364l-190 -364h-99l-49 481h90l31 -358z" />
    <glyph glyph-name="Ycircumflex" unicode="&#x176;" horiz-adv-x="611" 
d="M257 305l-162 404h103l123 -311l228 311h117l-313 -410l-62 -299h-98zM291 759h-87l135 119h120l90 -119h-83l-74 64z" />
    <glyph glyph-name="ycircumflex" unicode="&#x177;" horiz-adv-x="504" 
d="M206 545h-90l131 139h113l71 -139h-85l-52 81zM78 -190h-108l181 273l-118 398h102l85 -302l188 302h111z" />
    <glyph glyph-name="Ydieresis" unicode="&#x178;" horiz-adv-x="611" 
d="M226 813q0 28 19 46.5t47 18.5q23 0 37.5 -15t14.5 -37q0 -28 -19.5 -47t-45.5 -19q-23 0 -38 15t-15 38zM416 813q0 28 19 46.5t47 18.5q23 0 37.5 -15t14.5 -37q0 -28 -19.5 -47t-45.5 -19q-23 0 -38 15t-15 38zM257 305l-162 404h103l123 -311l228 311h117l-313 -410
l-62 -299h-98z" />
    <glyph glyph-name="Zacute" unicode="&#x179;" horiz-adv-x="614" 
d="M499 0h-529l20 96l510 523h-389l19 90h514l-20 -93l-512 -525h406zM560 878l-153 -119h-97l119 119h131z" />
    <glyph glyph-name="zacute" unicode="&#x17a;" horiz-adv-x="473" 
d="M449 689l-155 -146h-84l115 146h124zM359 0h-389l18 84l327 312h-252l18 85h372l-18 -85l-327 -311h269z" />
    <glyph glyph-name="Zdotaccent" unicode="&#x17b;" horiz-adv-x="614" 
d="M499 0h-529l20 96l510 523h-389l19 90h514l-20 -93l-512 -525h406zM333 814q0 28 20.5 49t49.5 21q26 0 42.5 -16.5t16.5 -40.5q0 -29 -21 -50.5t-50 -21.5q-26 0 -42 17t-16 42z" />
    <glyph glyph-name="zdotaccent" unicode="&#x17c;" horiz-adv-x="473" 
d="M222 608q0 28 21 50t50 22q25 0 41.5 -16.5t16.5 -40.5q0 -29 -21 -50.5t-50 -21.5q-25 0 -41.5 16.5t-16.5 40.5zM359 0h-389l18 84l327 312h-252l18 85h372l-18 -85l-327 -311h269z" />
    <glyph glyph-name="Zcaron" unicode="&#x17d;" horiz-adv-x="614" 
d="M499 0h-529l20 96l510 523h-389l19 90h514l-20 -93l-512 -525h406zM499 878h93l-140 -119h-120l-85 119h82l69 -64z" />
    <glyph glyph-name="zcaron" unicode="&#x17e;" horiz-adv-x="473" 
d="M365 687h91l-130 -142h-115l-70 142h84l52 -81zM359 0h-389l18 84l327 312h-252l18 85h372l-18 -85l-327 -311h269z" />
    <glyph glyph-name="uni018F" unicode="&#x18f;" horiz-adv-x="767" 
d="M411 724q136 0 228.5 -87.5t92.5 -229.5q0 -100 -35.5 -182.5t-92 -134t-124 -79t-134.5 -27.5q-82 0 -151.5 34t-114.5 105.5t-45 167.5q0 44 8 84h588q0 4 0.5 14t0.5 15q0 108 -65 168.5t-164 60.5q-77 0 -143 -39t-98 -105l-77 41q42 89 131.5 141.5t194.5 52.5z
M356 73q82 0 156 55t104 157h-485q1 -99 65.5 -155.5t159.5 -56.5z" />
    <glyph glyph-name="florin" unicode="&#x192;" horiz-adv-x="481" 
d="M106 20l76 378h-111v83h127l23 113q14 72 60 108.5t105 36.5q44 0 74 -10v-83q-21 7 -52 7q-78 0 -97 -92l-16 -80h129v-83h-146l-82 -411q-14 -72 -60 -108.5t-105 -36.5q-45 0 -77 10v83q24 -7 56 -7q78 0 96 92z" />
    <glyph glyph-name="uni01B5" unicode="&#x1b5;" horiz-adv-x="614" 
d="M499 0h-529l20 96l226 232h-136l18 85h201l201 206h-389l19 90h514l-20 -93l-198 -203h140l-18 -85h-205l-231 -237h406z" />
    <glyph glyph-name="uni01B6" unicode="&#x1b6;" horiz-adv-x="473" 
d="M32 211l17 76h152l114 109h-252l18 85h372l-18 -85l-115 -109h89l-17 -76h-152l-132 -126h269l-18 -85h-389l18 84l133 127h-89z" />
    <glyph glyph-name="Aringacute" unicode="&#x1fa;" horiz-adv-x="654" 
d="M388 597l-179 -308h229zM417 801q-20 0 -35.5 -14t-15.5 -36q0 -19 11.5 -30.5t31.5 -11.5q22 0 37 14t15 36q0 18 -12.5 30t-31.5 12zM620 1021l-153 -119h-97l119 119h131zM302 743q0 52 37 86.5t85 34.5q43 0 73 -29.5t30 -70.5q0 -63 -58 -101l115 -663h-99l-32 198
h-297l-115 -198h-111l402 674q-30 27 -30 69z" />
    <glyph glyph-name="aringacute" unicode="&#x1fb;" horiz-adv-x="567" 
d="M341 747q43 0 73 -29.5t30 -70.5q0 -46 -36 -82.5t-84 -36.5q-44 0 -74.5 28.5t-30.5 69.5q0 52 37 86.5t85 34.5zM283 634q0 -19 11.5 -30.5t31.5 -11.5q22 0 37 14t15 36q0 18 -12.5 30t-31.5 12q-20 0 -35.5 -14t-15.5 -36zM558 929l-155 -146h-84l115 146h124z
M266 414q-74 0 -117.5 -66t-43.5 -146q0 -59 29 -95t85 -36q69 0 114 63t45 156q0 55 -28 89.5t-84 34.5zM424 481h93l-75 -356q-11 -50 -11 -109q0 -8 1 -16h-89q-2 10 -2 28t2 33q-59 -71 -143 -71q-90 0 -140 59.5t-50 151.5q0 120 71 207t180 87q56 0 94 -21.5t56 -53.5
z" />
    <glyph glyph-name="AEacute" unicode="&#x1fc;" horiz-adv-x="1019" 
d="M575 91h328l-19 -91h-426l40 191h-281l-163 -191h-124l615 709h489l-19 -91h-328l-46 -218h297l-20 -92h-297zM292 279h225l74 350zM827 878l-153 -119h-97l119 119h131z" />
    <glyph glyph-name="aeacute" unicode="&#x1fd;" horiz-adv-x="853" 
d="M313 284q47 2 47 50q0 34 -28 58.5t-81 24.5q-43 0 -76 -23t-44 -61l-81 26q20 63 79 100t133 37q112 0 160 -74q74 74 177 74q95 0 147 -53t52 -141q0 -43 -14 -88h-354q-1 -7 -1 -17q0 -58 35 -93.5t87 -35.5q97 0 142 80l71 -46q-27 -50 -83 -83.5t-128 -33.5
q-63 0 -112.5 27.5t-75.5 78.5q-71 -106 -195 -106q-80 0 -126 39t-46 100q0 67 50.5 110t124.5 45zM95 129q0 -31 24 -48.5t59 -17.5q53 0 100 37.5t59 115.5l-158 -7q-35 -2 -59.5 -22t-24.5 -58zM594 413q-57 0 -97 -36t-54 -87h256q2 8 2 20q0 42 -26 72.5t-81 30.5z
M622 689l-155 -146h-84l115 146h124z" />
    <glyph glyph-name="Oslashacute" unicode="&#x1fe;" horiz-adv-x="753" 
d="M639 878l-153 -119h-97l119 119h131zM35 294q0 102 33 186t87 136t120.5 80t136.5 28q125 0 206 -70l77 77l59 -57l-82 -83q46 -74 46 -177q0 -102 -33 -185.5t-87 -135.5t-120 -80t-136 -28q-124 0 -204 68l-73 -74l-59 57l78 78q-49 75 -49 180zM135 304q0 -66 23 -115
l391 395q-56 50 -143 50q-84 0 -147 -48t-93.5 -122t-30.5 -160zM618 404q0 64 -21 112l-389 -393q54 -48 139 -48q84 0 147 47.5t93.5 121.5t30.5 160z" />
    <glyph glyph-name="oslashacute" unicode="&#x1ff;" horiz-adv-x="541" 
d="M485 689l-155 -146h-84l115 146h124zM20 -28l-52 54l69 66q-27 51 -27 115q0 124 75 206.5t188 82.5q84 0 138 -45l61 58l52 -54l-66 -63q28 -50 28 -117q0 -122 -75 -206t-187 -84q-84 0 -140 48zM390 273q0 25 -6 48l-234 -225q32 -27 78 -27q66 0 114 55t48 149z
M267 412q-66 0 -113.5 -54.5t-47.5 -148.5q0 -24 5 -46l233 223q-31 26 -77 26z" />
    <glyph glyph-name="Scommaaccent" unicode="&#x218;" horiz-adv-x="581" 
d="M264 73q61 1 98.5 31.5t37.5 79.5q0 69 -76 103l-94 42q-129 57 -129 183q0 89 68.5 150.5t169.5 61.5q61 0 108.5 -20t73 -51.5t38 -64.5t12.5 -65l-93 -18q0 18 -5.5 37t-19 42t-45.5 38t-77 15q-55 0 -92.5 -32.5t-37.5 -79.5q0 -67 66 -98l97 -45q138 -65 138 -187
q0 -86 -67 -148t-171 -62q-128 0 -193.5 71t-65.5 165q0 8 1 15l99 17q-1 -9 -1 -20q0 -67 40 -113.5t120 -46.5zM148 -92q0 24 18.5 40t45.5 16q23 0 41 -16t18 -45q0 -57 -39.5 -87t-85.5 -30q-8 0 -14 1l9 39q60 0 74 41q-6 -4 -18 -4q-22 0 -35.5 12.5t-13.5 32.5z" />
    <glyph glyph-name="scommaaccent" unicode="&#x219;" horiz-adv-x="441" 
d="M74 -92q0 24 18.5 40t45.5 16q23 0 41 -16t18 -45q0 -57 -39.5 -87t-85.5 -30q-8 0 -14 1l9 39q60 0 74 41q-6 -4 -18 -4q-22 0 -35.5 12.5t-13.5 32.5zM-10 150l83 19q1 -44 29.5 -74t75.5 -30q37 0 57 19t20 45q0 36 -45 57l-70 32q-86 39 -86 122q0 64 48.5 110
t127.5 46q45 0 79 -14t52.5 -36.5t28 -44.5t11.5 -44l-84 -23q-13 83 -96 83q-35 0 -55.5 -18.5t-20.5 -44.5q0 -37 38 -54l66 -30q100 -45 100 -134q0 -56 -44.5 -103.5t-131.5 -47.5q-90 0 -136.5 51.5t-46.5 113.5z" />
    <glyph glyph-name="uni021A" unicode="&#x21a;" horiz-adv-x="566" 
d="M612 619h-220l-131 -619h-98l131 619h-229l19 90h547zM128 -92q0 24 18.5 40t45.5 16q23 0 41 -16t18 -45q0 -57 -39.5 -87t-85.5 -30q-8 0 -14 1l9 39q60 0 74 41q-6 -4 -18 -4q-22 0 -35.5 12.5t-13.5 32.5z" />
    <glyph glyph-name="uni021B" unicode="&#x21b;" horiz-adv-x="337" 
d="M48 -92q0 24 18.5 40t45.5 16q23 0 41 -16t18 -45q0 -57 -39.5 -87t-85.5 -30q-8 0 -14 1l9 39q60 0 74 41q-6 -4 -18 -4q-22 0 -35.5 12.5t-13.5 32.5zM59 101q0 20 4 37l55 258h-88l18 85h14q83 0 99 78l16 74h86l-33 -152h97l-18 -85h-97l-53 -253q-3 -13 -3 -23
q0 -43 54 -43q16 0 32 2l-16 -77q-18 -7 -51 -7q-53 0 -84.5 28t-31.5 78z" />
    <glyph glyph-name="dotlessj" unicode="&#x237;" horiz-adv-x="256" 
d="M-8 -57l116 538h93l-119 -560q-13 -60 -51.5 -93t-93.5 -33q-43 0 -68 14l16 75q18 -6 37 -6q31 0 46.5 15t23.5 50z" />
    <glyph glyph-name="uni0259" unicode="&#x259;" horiz-adv-x="532" 
d="M10 195q0 40 8 69h371q0 149 -131 149q-95 0 -142 -81l-72 38q31 57 89.5 91.5t129.5 34.5q103 0 158.5 -63t55.5 -160q0 -132 -72.5 -210t-181.5 -78q-96 0 -154.5 60t-58.5 150zM377 188h-273q-1 -4 -1 -11q0 -49 33.5 -79.5t88.5 -30.5q50 0 92.5 29.5t59.5 91.5z" />
    <glyph glyph-name="circumflex" unicode="&#x2c6;" horiz-adv-x="355" 
d="M155 545h-90l131 139h113l71 -139h-85l-52 81z" />
    <glyph glyph-name="caron" unicode="&#x2c7;" horiz-adv-x="355" 
d="M289 687h91l-130 -142h-115l-70 142h84l52 -81z" />
    <glyph glyph-name="uni02C9" unicode="&#x2c9;" horiz-adv-x="330" 
d="M338 577h-273l17 81h273z" />
    <glyph glyph-name="breve" unicode="&#x2d8;" horiz-adv-x="335" 
d="M187 544q-57 0 -89.5 34t-32.5 83q0 13 3 27h69q-1 -4 -1 -9q0 -23 14.5 -39t46.5 -16q35 0 56.5 19.5t29.5 44.5h77q-13 -60 -57.5 -102t-115.5 -42z" />
    <glyph glyph-name="dotaccent" unicode="&#x2d9;" horiz-adv-x="169" 
d="M65 608q0 28 21 50t50 22q25 0 41.5 -16.5t16.5 -40.5q0 -29 -21 -50.5t-50 -21.5q-25 0 -41.5 16.5t-16.5 40.5z" />
    <glyph glyph-name="ring" unicode="&#x2da;" horiz-adv-x="265" 
d="M187 750q43 0 73 -29.5t30 -70.5q0 -46 -36 -82.5t-84 -36.5q-44 0 -74.5 28.5t-30.5 69.5q0 52 37 86.5t85 34.5zM129 637q0 -19 11.5 -30.5t31.5 -11.5q22 0 37 14t15 36q0 18 -12.5 30t-31.5 12q-20 0 -35.5 -14t-15.5 -36z" />
    <glyph glyph-name="ogonek" unicode="&#x2db;" horiz-adv-x="233" 
d="M27 -216q-42 0 -67.5 23t-25.5 61q0 97 127 148l62 -16q-108 -47 -108 -109q0 -19 12.5 -28.5t31.5 -9.5q15 0 33 3l-14 -64q-22 -8 -51 -8z" />
    <glyph glyph-name="tilde" unicode="&#x2dc;" horiz-adv-x="378" 
d="M135 554h-70q7 64 38 95t76 31q34 0 68 -24l12 -8q21 -14 36 -14q31 0 39 44h69q-21 -126 -113 -126q-34 0 -68 24l-12 8q-21 14 -36 14q-31 0 -39 -44z" />
    <glyph glyph-name="hungarumlaut" unicode="&#x2dd;" horiz-adv-x="374" 
d="M255 689l-121 -146h-69l82 146h108zM399 689l-131 -146h-69l92 146h108z" />
    <glyph glyph-name="uni0394" unicode="&#x394;" horiz-adv-x="657" 
d="M497 90l-193 507l-190 -507h383zM-25 0l278 709h105l279 -709h-662z" />
    <glyph glyph-name="uni03A9" unicode="&#x3a9;" horiz-adv-x="816" 
d="M408 636q-100 0 -176.5 -66.5t-76.5 -181.5q0 -101 63.5 -169.5t146.5 -86.5v-132h-305v88h199q-84 30 -144 110t-60 189q0 153 104 245t249 92t249 -92t104 -245q0 -109 -60.5 -189t-144.5 -110h200v-88h-305v132q83 18 146.5 86.5t63.5 169.5q0 115 -76.5 181.5
t-176.5 66.5z" />
    <glyph glyph-name="uni03BC" unicode="&#x3bc;" horiz-adv-x="577" 
d="M65 -190v671h95v-289q0 -54 26.5 -89t82.5 -35t85 33.5t29 89.5v290h94v-392q0 -49 5 -89h-90q-4 22 -4 58q-19 -36 -58 -54.5t-84 -18.5q-49 0 -87 20v-195h-94z" />
    <glyph glyph-name="pi" unicode="&#x3c0;" horiz-adv-x="625" 
d="M480 399v-277q0 -49 54 -49q18 0 31 4v-72q-29 -12 -61 -12q-58 0 -88 34.5t-30 84.5v287h-165v-399h-94v399h-82v82h518v-82h-83z" />
    <glyph glyph-name="Wgrave" unicode="&#x1e80;" horiz-adv-x="952" 
d="M518 759l-107 119h118l75 -119h-86zM495 709h103l63 -561l252 561h99l-327 -709h-97l-63 575l-280 -575h-100l-55 709h95l39 -555z" />
    <glyph glyph-name="wgrave" unicode="&#x1e81;" horiz-adv-x="768" 
d="M371 543l-94 146h112l56 -146h-74zM349 481h99l46 -359l181 359h103l-255 -481h-97l-48 364l-190 -364h-99l-49 481h90l31 -358z" />
    <glyph glyph-name="Wacute" unicode="&#x1e82;" horiz-adv-x="952" 
d="M721 878l-153 -119h-97l119 119h131zM495 709h103l63 -561l252 561h99l-327 -709h-97l-63 575l-280 -575h-100l-55 709h95l39 -555z" />
    <glyph glyph-name="wacute" unicode="&#x1e83;" horiz-adv-x="768" 
d="M600 689l-155 -146h-84l115 146h124zM349 481h99l46 -359l181 359h103l-255 -481h-97l-48 364l-190 -364h-99l-49 481h90l31 -358z" />
    <glyph glyph-name="Wdieresis" unicode="&#x1e84;" horiz-adv-x="952" 
d="M337 813q0 28 19 46.5t47 18.5q23 0 37.5 -15t14.5 -37q0 -28 -19.5 -47t-45.5 -19q-23 0 -38 15t-15 38zM642 813q0 28 19 46.5t47 18.5q23 0 37.5 -15t14.5 -37q0 -28 -19.5 -47t-45.5 -19q-23 0 -38 15t-15 38zM495 709h103l63 -561l252 561h99l-327 -709h-97l-63 575
l-280 -575h-100l-55 709h95l39 -555z" />
    <glyph glyph-name="wdieresis" unicode="&#x1e85;" horiz-adv-x="768" 
d="M243 614q0 26 19 45.5t45 19.5q23 0 38 -15.5t15 -37.5q0 -27 -20 -45t-46 -18q-22 0 -36.5 15t-14.5 36zM478 614q0 26 19 45.5t45 19.5q23 0 38 -15.5t15 -37.5q0 -27 -20 -45t-46 -18q-22 0 -36.5 15t-14.5 36zM349 481h99l46 -359l181 359h103l-255 -481h-97l-48 364
l-190 -364h-99l-49 481h90l31 -358z" />
    <glyph glyph-name="uni1E8A" unicode="&#x1e8a;" horiz-adv-x="627" 
d="M299 270l-232 -270h-122l311 356l-162 353h107l123 -275l235 275h123l-315 -361l161 -348h-108zM317 814q0 28 20.5 49t49.5 21q26 0 42.5 -16.5t16.5 -40.5q0 -29 -21 -50.5t-50 -21.5q-26 0 -42 17t-16 42z" />
    <glyph glyph-name="uni1E8B" unicode="&#x1e8b;" horiz-adv-x="495" 
d="M215 174l-159 -174h-121l235 246l-126 235h103l86 -167l152 167h120l-227 -238l131 -243h-103zM218 608q0 28 21 50t50 22q25 0 41.5 -16.5t16.5 -40.5q0 -29 -21 -50.5t-50 -21.5q-25 0 -41.5 16.5t-16.5 40.5z" />
    <glyph glyph-name="Ygrave" unicode="&#x1ef2;" horiz-adv-x="611" 
d="M257 305l-162 404h103l123 -311l228 311h117l-313 -410l-62 -299h-98zM335 759l-107 119h118l75 -119h-86z" />
    <glyph glyph-name="ygrave" unicode="&#x1ef3;" horiz-adv-x="504" 
d="M269 543l-94 146h112l56 -146h-74zM78 -190h-108l181 273l-118 398h102l85 -302l188 302h111z" />
    <glyph glyph-name="uni2007" unicode="&#x2007;" horiz-adv-x="604" 
 />
    <glyph glyph-name="uni2008" unicode="&#x2008;" horiz-adv-x="262" 
 />
    <glyph glyph-name="uni200B" unicode="&#x200b;" horiz-adv-x="0" 
 />
    <glyph glyph-name="endash" unicode="&#x2013;" horiz-adv-x="639" 
d="M552 246h-512l17 82h512z" />
    <glyph glyph-name="emdash" unicode="&#x2014;" horiz-adv-x="1100" 
d="M1003 246h-953l17 82h953z" />
    <glyph glyph-name="quoteleft" unicode="&#x2018;" horiz-adv-x="234" 
d="M226 518q0 -30 -21.5 -50.5t-53.5 -20.5q-31 0 -51 20.5t-20 55.5q0 74 53.5 132.5t130.5 62.5l-10 -50q-39 -7 -69 -34.5t-38 -62.5q6 4 21 4q25 0 41.5 -15.5t16.5 -41.5z" />
    <glyph glyph-name="quoteright" unicode="&#x2019;" horiz-adv-x="219" 
d="M103 647q0 30 21.5 50.5t53.5 20.5q30 0 50.5 -20t20.5 -56q0 -74 -53.5 -132.5t-130.5 -62.5l10 50q39 7 69 34.5t38 62.5q-6 -4 -21 -4q-25 0 -41.5 15.5t-16.5 41.5z" />
    <glyph glyph-name="quotesinglbase" unicode="&#x201a;" horiz-adv-x="224" 
d="M-17 52q0 30 21.5 50.5t53.5 20.5q30 0 50.5 -20.5t20.5 -55.5q0 -74 -53.5 -132.5t-130.5 -62.5l10 50q39 7 69 34.5t38 62.5q-6 -4 -21 -4q-25 0 -41.5 15.5t-16.5 41.5z" />
    <glyph glyph-name="quotedblleft" unicode="&#x201c;" horiz-adv-x="408" 
d="M401 526q0 -30 -20 -49t-52 -19q-29 0 -48.5 19.5t-19.5 53.5q0 71 51 126.5t126 60.5l-10 -48q-36 -7 -65.5 -34t-37.5 -59q5 3 20 3q24 0 40 -14.5t16 -39.5zM220 526q0 -30 -20 -49t-52 -19q-29 0 -48.5 19.5t-19.5 53.5q0 71 51 126.5t126 60.5l-10 -48
q-36 -7 -65.5 -34t-37.5 -59q4 3 20 3q24 0 40 -14.5t16 -39.5z" />
    <glyph glyph-name="quotedblright" unicode="&#x201d;" horiz-adv-x="393" 
d="M102 647q0 29 20.5 48.5t51.5 19.5q29 0 48.5 -19.5t19.5 -53.5q0 -71 -51 -127t-126 -60l10 48q37 7 66 33.5t37 59.5q-4 -3 -20 -3q-24 0 -40 14.5t-16 39.5zM283 647q0 29 20.5 48.5t51.5 19.5q29 0 48.5 -19.5t19.5 -53.5q0 -71 -51 -127t-126 -60l10 48
q37 7 66 33.5t37 59.5q-5 -3 -20 -3q-24 0 -40 14.5t-16 39.5z" />
    <glyph glyph-name="quotedblbase" unicode="&#x201e;" horiz-adv-x="388" 
d="M-18 50q0 29 20.5 48.5t51.5 19.5q29 0 48.5 -19.5t19.5 -53.5q0 -71 -51 -127t-126 -60l10 48q37 7 66 33.5t37 59.5q-4 -3 -20 -3q-24 0 -40 14.5t-16 39.5zM153 50q0 29 20.5 48.5t51.5 19.5q29 0 48.5 -19.5t19.5 -53.5q0 -71 -51 -127t-126 -60l10 48q37 7 66 33.5
t37 59.5q-5 -3 -20 -3q-24 0 -40 14.5t-16 39.5z" />
    <glyph glyph-name="dagger" unicode="&#x2020;" horiz-adv-x="414" 
d="M236 709h82l-32 -149h128l-18 -81h-127l-67 -317h-82l67 317h-127l18 81h126z" />
    <glyph glyph-name="daggerdbl" unicode="&#x2021;" horiz-adv-x="434" 
d="M178 0h-82l31 149h-127l17 81h127l53 249h-127l18 81h126l32 149h82l-32 -149h128l-18 -81h-127l-53 -249h127l-17 -81h-127z" />
    <glyph glyph-name="bullet" unicode="&#x2022;" horiz-adv-x="559" 
d="M60 289q0 86 60.5 147t146.5 61t146.5 -61t60.5 -147q0 -85 -61 -146t-146 -61t-146 61t-61 146z" />
    <glyph glyph-name="ellipsis" unicode="&#x2026;" horiz-adv-x="871" 
d="M76 -5q-27 0 -44 16.5t-17 40.5q0 29 21.5 51t51.5 22q27 0 43.5 -16.5t16.5 -41.5q0 -30 -21.5 -51t-50.5 -21zM367 -5q-27 0 -44 16.5t-17 40.5q0 29 21.5 51t51.5 22q27 0 43.5 -16.5t16.5 -41.5q0 -30 -21.5 -51t-50.5 -21zM659 -5q-27 0 -44 16.5t-17 40.5
q0 29 21.5 51t51.5 22q27 0 43.5 -16.5t16.5 -41.5q0 -30 -21.5 -51t-50.5 -21z" />
    <glyph glyph-name="perthousand" unicode="&#x2030;" horiz-adv-x="1011" 
d="M208 422q34 0 59.5 25.5t25.5 65.5q0 30 -19 48.5t-51 18.5q-33 0 -58 -26t-25 -63q0 -30 18.5 -49.5t49.5 -19.5zM200 344q-62 0 -102.5 40.5t-40.5 100.5q0 71 51.5 122.5t123.5 51.5q61 0 102.5 -41.5t41.5 -101.5q0 -72 -54 -122t-122 -50zM549 74q34 0 59.5 25.5
t25.5 65.5q0 30 -19 48.5t-51 18.5q-33 0 -58 -26t-25 -63q0 -30 18.5 -49.5t49.5 -19.5zM732 648l-604 -648h-97l606 648h95zM784 74q34 0 59.5 25.5t25.5 65.5q0 30 -19 48.5t-51 18.5q-33 0 -58 -26t-25 -63q0 -30 18.5 -49.5t49.5 -19.5zM776 -4q-72 0 -112 51
q-53 -51 -123 -51q-62 0 -102.5 40.5t-40.5 100.5q0 71 51.5 122.5t123.5 51.5q69 0 111 -52q52 52 124 52q61 0 102.5 -41.5t41.5 -101.5q0 -72 -54 -122t-122 -50z" />
    <glyph glyph-name="guilsinglleft" unicode="&#x2039;" horiz-adv-x="284" 
d="M206 99h-93l-98 194l171 188h103l-176 -197z" />
    <glyph glyph-name="guilsinglright" unicode="&#x203a;" horiz-adv-x="284" 
d="M48 481h93l98 -194l-171 -188h-103l176 197z" />
    <glyph glyph-name="uni2042" unicode="&#x2042;" horiz-adv-x="814" 
d="M512 709l-23 -121l117 38l8 -65l-119 -38l56 -93l-59 -42l-56 99l-92 -98l-50 42l93 95l-105 37l32 63l103 -38l19 121h76zM235 311l-23 -121l117 38l8 -65l-119 -38l56 -93l-59 -42l-56 99l-92 -98l-50 42l93 95l-105 37l32 63l103 -38l19 121h76zM647 311l-23 -121
l117 38l8 -65l-119 -38l56 -93l-59 -42l-56 99l-92 -98l-50 42l93 95l-105 37l32 63l103 -38l19 121h76z" />
    <glyph glyph-name="fraction" unicode="&#x2044;" horiz-adv-x="541" 
d="M621 648l-604 -648h-97l606 648h95z" />
    <glyph glyph-name="uni2051" unicode="&#x2051;" horiz-adv-x="441" 
d="M333 709l-23 -121l117 38l8 -65l-119 -38l56 -93l-59 -42l-56 99l-92 -98l-50 42l93 95l-105 37l32 63l103 -38l19 121h76zM235 311l-23 -121l117 38l8 -65l-119 -38l56 -93l-59 -42l-56 99l-92 -98l-50 42l93 95l-105 37l32 63l103 -38l19 121h76z" />
    <glyph glyph-name="uni2070" unicode="&#x2070;" horiz-adv-x="411" 
d="M60 473q0 58 17.5 111t60.5 92.5t104 39.5q64 0 99 -38.5t35 -98.5q0 -100 -47 -171t-134 -71q-59 0 -97 36.5t-38 99.5zM130 475q0 -31 18 -51t51 -20q35 0 60.5 30t35.5 67.5t10 75.5q0 31 -16 51.5t-52 20.5q-40 0 -66 -36.5t-33.5 -72.5t-7.5 -65z" />
    <glyph glyph-name="uni2074" unicode="&#x2074;" horiz-adv-x="427" 
d="M60 420l16 85l206 204h88l-48 -224h65l-14 -65h-64l-1 -6q-6 -25 -15 -70h-76l16 76h-173zM246 485l31 137l-138 -137h107z" />
    <glyph glyph-name="uni2075" unicode="&#x2075;" horiz-adv-x="407" 
d="M55 456l76 7q0 -26 15.5 -43t44.5 -17q28 0 48 16.5t20 47.5q0 27 -16.5 41.5t-42.5 14.5q-28 0 -49 -16l-64 36l72 166h213l-13 -66h-158l-31 -72q20 12 55 12q51 0 81.5 -28t30.5 -79q0 -58 -42.5 -98.5t-105.5 -40.5q-57 0 -95.5 33.5t-38.5 85.5z" />
    <glyph glyph-name="uni2076" unicode="&#x2076;" horiz-adv-x="390" 
d="M376 693l-27 -56q-29 16 -72 16q-39 0 -74 -22.5t-50 -62.5q24 24 75 24q54 0 85.5 -30.5t31.5 -80.5q0 -65 -46.5 -104.5t-107.5 -39.5q-56 0 -96 38.5t-40 107.5q0 97 62 165.5t160 68.5q68 0 99 -24zM207 528q-30 0 -51.5 -19t-21.5 -49q0 -27 17.5 -42.5t44.5 -15.5
q28 0 49 18.5t21 52.5q0 25 -16 40t-43 15z" />
    <glyph glyph-name="uni2077" unicode="&#x2077;" horiz-adv-x="368" 
d="M393 709l-14 -64q-168 -115 -224 -301h-80q14 61 45.5 117.5t66.5 94t58 58t37 29.5h-190l13 66h288z" />
    <glyph glyph-name="uni2078" unicode="&#x2078;" horiz-adv-x="396" 
d="M187 603q0 -18 12.5 -29.5t32.5 -11.5q25 0 44 13t19 39q0 17 -12 28.5t-36 12.5q-27 0 -43.5 -14t-16.5 -38zM142 443q0 -21 17.5 -33t42.5 -12q31 0 49.5 15t18.5 42q0 19 -15.5 32t-42.5 13q-30 0 -50 -16t-20 -41zM198 337q-63 0 -98 28t-35 71q0 33 25 60t69 38
q-20 8 -33.5 28t-13.5 39q0 50 38.5 82.5t103.5 32.5q52 0 84.5 -25.5t32.5 -66.5q0 -31 -19.5 -57t-56.5 -39q22 -8 37 -29t15 -43q0 -52 -43 -85.5t-106 -33.5z" />
    <glyph glyph-name="uni2079" unicode="&#x2079;" horiz-adv-x="407" 
d="M50 373l30 57q35 -25 84 -25q39 0 72 23t42 65q-27 -31 -72 -31q-54 0 -89.5 31.5t-35.5 83.5q0 63 45 101.5t108 38.5q57 0 95 -35.5t38 -103.5q0 -107 -53.5 -173.5t-153.5 -66.5q-68 0 -110 35zM217 525q29 0 49 20.5t20 51.5q0 25 -17 40.5t-40 15.5q-28 0 -48.5 -19
t-20.5 -52q0 -26 16 -41.5t41 -15.5z" />
    <glyph glyph-name="uni2080" unicode="&#x2080;" horiz-adv-x="411" 
d="M25 57q0 58 17.5 111t60.5 92.5t104 39.5q64 0 99 -38.5t35 -98.5q0 -100 -47 -171t-134 -71q-59 0 -97 36.5t-38 99.5zM95 59q0 -31 18 -51t51 -20q35 0 60.5 30t35.5 67.5t10 75.5q0 31 -16 51.5t-52 20.5q-40 0 -66 -36.5t-33.5 -72.5t-7.5 -65z" />
    <glyph glyph-name="uni2081" unicode="&#x2081;" horiz-adv-x="290" 
d="M136 -72h-77l56 250h-80l10 51q36 1 63.5 18.5t38.5 45.5h68z" />
    <glyph glyph-name="uni2082" unicode="&#x2082;" horiz-adv-x="381" 
d="M115 94l63 28q57 25 57 65q0 19 -13.5 33.5t-37.5 14.5q-30 0 -48 -19.5t-18 -57.5h-75q0 67 39.5 104t103.5 37q60 0 93.5 -31.5t33.5 -76.5q0 -84 -96 -125l-76 -33q-31 -13 -42 -40h184l-14 -65h-274q12 118 120 166z" />
    <glyph glyph-name="uni2083" unicode="&#x2083;" horiz-adv-x="425" 
d="M138 100l-26 60l114 69h-160l14 65h260l-14 -74l-114 -67q36 -7 60.5 -35t24.5 -64q0 -54 -40 -93t-107 -39q-57 0 -96 31.5t-39 83.5q0 9 2 19l69 5q-1 -4 -1 -11q0 -25 18 -43.5t46 -18.5q31 0 51.5 17t20.5 47q0 24 -17.5 38t-41.5 14q-14 0 -24 -4z" />
    <glyph glyph-name="uni2084" unicode="&#x2084;" horiz-adv-x="427" 
d="M5 4l16 85l206 204h88l-48 -224h65l-14 -65h-64l-1 -6q-6 -25 -15 -70h-76l16 76h-173zM191 69l31 137l-138 -137h107z" />
    <glyph glyph-name="uni2085" unicode="&#x2085;" horiz-adv-x="407" 
d="M5 40l76 7q0 -26 15.5 -43t44.5 -17q28 0 48 16.5t20 47.5q0 27 -16.5 41.5t-42.5 14.5q-28 0 -49 -16l-64 36l72 166h213l-13 -66h-158l-31 -72q20 12 55 12q51 0 81.5 -28t30.5 -79q0 -58 -42.5 -98.5t-105.5 -40.5q-57 0 -95.5 33.5t-38.5 85.5z" />
    <glyph glyph-name="uni2086" unicode="&#x2086;" horiz-adv-x="390" 
d="M326 277l-27 -56q-29 16 -72 16q-39 0 -74 -22.5t-50 -62.5q24 24 75 24q54 0 85.5 -30.5t31.5 -80.5q0 -65 -46.5 -104.5t-107.5 -39.5q-56 0 -96 38.5t-40 107.5q0 97 62 165.5t160 68.5q68 0 99 -24zM157 112q-30 0 -51.5 -19t-21.5 -49q0 -27 17.5 -42.5t44.5 -15.5
q28 0 49 18.5t21 52.5q0 25 -16 40t-43 15z" />
    <glyph glyph-name="uni2087" unicode="&#x2087;" horiz-adv-x="368" 
d="M343 293l-14 -64q-168 -115 -224 -301h-80q14 61 45.5 117.5t66.5 94t58 58t37 29.5h-190l13 66h288z" />
    <glyph glyph-name="uni2088" unicode="&#x2088;" horiz-adv-x="396" 
d="M137 187q0 -18 12.5 -29.5t32.5 -11.5q25 0 44 13t19 39q0 17 -12 28.5t-36 12.5q-27 0 -43.5 -14t-16.5 -38zM92 27q0 -21 17.5 -33t42.5 -12q31 0 49.5 15t18.5 42q0 19 -15.5 32t-42.5 13q-30 0 -50 -16t-20 -41zM148 -79q-63 0 -98 28t-35 71q0 33 25 60t69 38
q-20 8 -33.5 28t-13.5 39q0 50 38.5 82.5t103.5 32.5q52 0 84.5 -25.5t32.5 -66.5q0 -31 -19.5 -57t-56.5 -39q22 -8 37 -29t15 -43q0 -52 -43 -85.5t-106 -33.5z" />
    <glyph glyph-name="uni2089" unicode="&#x2089;" horiz-adv-x="407" 
d="M15 -43l30 57q35 -25 84 -25q39 0 72 23t42 65q-27 -31 -72 -31q-54 0 -89.5 31.5t-35.5 83.5q0 63 45 101.5t108 38.5q57 0 95 -35.5t38 -103.5q0 -107 -53.5 -173.5t-153.5 -66.5q-68 0 -110 35zM182 109q29 0 49 20.5t20 51.5q0 25 -17 40.5t-40 15.5q-28 0 -48.5 -19
t-20.5 -52q0 -26 16 -41.5t41 -15.5z" />
    <glyph glyph-name="Euro" unicode="&#x20ac;" horiz-adv-x="689" 
d="M50 365l17 78h87q46 106 142.5 163t198.5 57q129 0 199 -67l-57 -71q-55 52 -150 52q-67 0 -128.5 -34.5t-98.5 -99.5h316l-54 -78h-292q-10 -43 -10 -83h255l-54 -80h-190q21 -63 75 -97.5t126 -34.5q81 0 134 38l33 -74q-75 -49 -177 -49t-184 58t-107 159h-116l17 80
h90q0 41 8 83h-80z" />
    <glyph glyph-name="uni2113" unicode="&#x2113;" horiz-adv-x="470" 
d="M96 127q0 32 19 112q-31 -7 -70 -10l18 87q39 7 73 19l48 230q14 68 54.5 106t95.5 38q58 0 89.5 -32t31.5 -86q0 -87 -66 -176.5t-172 -140.5l-20 -95q-5 -25 -5 -37q0 -60 71 -60q45 0 76 21l-18 -85q-7 -8 -28.5 -15.5t-46.5 -7.5q-75 0 -112.5 36t-37.5 96zM277 556
l-35 -165q119 83 119 195q0 36 -32 36q-39 0 -52 -66z" />
    <glyph glyph-name="trademark" unicode="&#x2122;" horiz-adv-x="874" 
d="M364 641h-112l-63 -297h-76l63 297h-112l14 68h300zM770 344h-72l49 233l-147 -233h-59l-52 230l-49 -230h-76l77 365h91l56 -254l158 254h101z" />
    <glyph glyph-name="Omega" unicode="&#x2126;" horiz-adv-x="816" 
d="M408 636q-100 0 -176.5 -66.5t-76.5 -181.5q0 -101 63.5 -169.5t146.5 -86.5v-132h-305v88h199q-84 30 -144 110t-60 189q0 153 104 245t249 92t249 -92t104 -245q0 -109 -60.5 -189t-144.5 -110h200v-88h-305v132q83 18 146.5 86.5t63.5 169.5q0 115 -76.5 181.5
t-176.5 66.5z" />
    <glyph glyph-name="uni2160" unicode="&#x2160;" horiz-adv-x="493" 
d="M112 648h396l-18 -88h-151l-100 -472h150l-18 -88h-396l18 88h150l100 472h-149z" />
    <glyph glyph-name="uni2161" unicode="&#x2161;" horiz-adv-x="757" 
d="M112 648h660l-18 -88h-141l-100 -472h140l-18 -88h-660l18 88h140l100 472h-139zM229 88h188l100 472h-188z" />
    <glyph glyph-name="uni2162" unicode="&#x2162;" horiz-adv-x="1031" 
d="M692 88l99 472h-183l-99 -472h183zM413 88l99 472h-183l-99 -472h183zM-25 0l18 88h141l99 472h-139l18 88h934l-18 -88h-141l-99 -472h139l-18 -88h-934z" />
    <glyph glyph-name="uni2163" unicode="&#x2163;" horiz-adv-x="982" 
d="M94 560l18 88h895l-18 -88h-115l-264 -472h279l-18 -88h-896l18 88h130l100 472h-129zM319 560l-100 -472h241l-61 472h-80zM502 560l46 -419l226 419h-272z" />
    <glyph glyph-name="uni2164" unicode="&#x2164;" horiz-adv-x="765" 
d="M-17 88h265l-61 472h-108l18 88h693l-18 -88h-110l-264 -472h269l-18 -88h-684zM290 560l46 -419l226 419h-272z" />
    <glyph glyph-name="uni2165" unicode="&#x2165;" horiz-adv-x="982" 
d="M84 560l18 88h895l-18 -88h-130l-100 -472h130l-18 -88h-896l18 88h275l-61 472h-113zM672 560l-264 -472h245l100 472h-81zM300 560l46 -419l226 419h-272z" />
    <glyph glyph-name="uni2166" unicode="&#x2166;" horiz-adv-x="1270" 
d="M345 141l227 419h-272zM653 88l99 472h-81l-263 -472h245zM931 88l99 472h-182l-99 -472h182zM1148 0h-1183l18 88h274l-59 472h-115l18 88h1183l-18 -88h-140l-99 -472h139z" />
    <glyph glyph-name="uni2167" unicode="&#x2167;" horiz-adv-x="1529" 
d="M94 560l18 88h1432l-18 -88h-136l-100 -472h135l-18 -88h-1432l18 88h270l-56 472h-113zM852 560l-100 -472h173l100 472h-173zM1121 560l-100 -472h173l100 472h-173zM672 560l-259 -472h243l100 472h-84zM309 560l42 -419l222 419h-264z" />
    <glyph glyph-name="uni2168" unicode="&#x2168;" horiz-adv-x="952" 
d="M94 560l18 88h865l-18 -88h-105l-222 -243l112 -229h115l-18 -88h-866l18 88h130l100 472h-129zM525 317l-120 243h-86l-100 -472h93zM515 560l79 -168l150 168h-229zM561 243l-142 -155h216z" />
    <glyph glyph-name="uni2169" unicode="&#x2169;" horiz-adv-x="733" 
d="M306 317l-120 243h-102l18 88h656l-18 -88h-105l-222 -243l112 -229h115l-18 -88h-657l18 88h110zM296 560l79 -168l150 168h-229zM342 243l-142 -155h216z" />
    <glyph glyph-name="uni216C" unicode="&#x216c;" horiz-adv-x="623" 
d="M112 648h366l-18 -88h-141l-100 -472h212l41 193h96l-59 -281h-534l18 88h130l100 472h-129z" />
    <glyph glyph-name="uni216D" unicode="&#x216d;" horiz-adv-x="711" 
d="M621 648h95l-48 -224h-95q-3 65 -57.5 107.5t-128.5 42.5q-98 0 -172 -77.5t-74 -222.5q0 -93 56.5 -147.5t141.5 -54.5q82 0 131 41.5t61 98.5l4 19h95l-49 -231h-93l10 52q-65 -67 -168 -67q-118 0 -201.5 81t-83.5 208q0 92 32 168t84 123t113.5 72.5t124.5 25.5
q148 0 204 -98z" />
    <glyph glyph-name="uni216E" unicode="&#x216e;" horiz-adv-x="737" 
d="M325 560l-101 -472h82q110 0 190 80.5t80 223.5q0 81 -46 124.5t-121 43.5h-84zM-25 0l18 88h136l99 472h-134l16 88h312q109 0 179.5 -65.5t70.5 -187.5q0 -95 -32.5 -173t-85 -125t-114 -72t-124.5 -25h-341z" />
    <glyph glyph-name="uni216F" unicode="&#x216f;" horiz-adv-x="1036" 
d="M308 88l-18 -88h-315l18 88h118l99 472h-116l18 88h252l100 -515l321 515h266l-18 -88h-123l-99 -472h121l-18 -88h-315l18 88h100l90 428l-328 -516h-76l-108 518l-90 -430h103z" />
    <glyph glyph-name="arrowleft" unicode="&#x2190;" horiz-adv-x="1026" 
d="M221 102l-221 185l221 186v-144h735v-83h-735v-144z" />
    <glyph glyph-name="arrowup" unicode="&#x2191;" horiz-adv-x="449" 
d="M240 800l199 -245h-158v-703h-83v703h-158z" />
    <glyph glyph-name="arrowright" unicode="&#x2192;" horiz-adv-x="1026" 
d="M982 287l-252 -211v169h-696v83h696v171z" />
    <glyph glyph-name="arrowdown" unicode="&#x2193;" horiz-adv-x="449" 
d="M422 90l-212 -252l-211 252h169v696h83v-696h171z" />
    <glyph glyph-name="uni2196" unicode="&#x2196;" horiz-adv-x="874" 
d="M55 709h292l-116 -117l543 -542l-59 -58l-543 541l-117 -118v294z" />
    <glyph glyph-name="uni2197" unicode="&#x2197;" horiz-adv-x="773" 
d="M381 709h292v-294l-118 118l-542 -541l-59 58l543 542z" />
    <glyph glyph-name="uni2198" unicode="&#x2198;" horiz-adv-x="874" 
d="M774 0h-292l116 117l-543 542l59 58l542 -542l118 119v-294z" />
    <glyph glyph-name="uni2199" unicode="&#x2199;" horiz-adv-x="764" 
d="M337 0h-292v294l117 -119l543 542l59 -58l-543 -542z" />
    <glyph glyph-name="uni21A9" unicode="&#x21a9;" horiz-adv-x="833" 
d="M398 581v83h189q91 0 155.5 -59t64.5 -150q0 -90 -64.5 -149.5t-155.5 -59.5h-368v-144l-221 185l221 186v-144h363q59 0 101 34t42 92t-42 92t-105 34h-180z" />
    <glyph glyph-name="uni21B0" unicode="&#x21b0;" horiz-adv-x="775" 
d="M271 353l-221 185l221 186v-144h414v-580h-83v497h-331v-144z" />
    <glyph glyph-name="uni21B1" unicode="&#x21b1;" horiz-adv-x="720" 
d="M118 0h-83v580h464v144l221 -186l-221 -185v144h-381v-497z" />
    <glyph glyph-name="uni21B2" unicode="&#x21b2;" horiz-adv-x="760" 
d="M592 709h83v-580h-464v-144l-221 186l221 185v-144h381v497z" />
    <glyph glyph-name="uni21B3" unicode="&#x21b3;" horiz-adv-x="840" 
d="M549 356l221 -185l-221 -186v144h-464v580h83v-497h381v144z" />
    <glyph glyph-name="uni21B4" unicode="&#x21b4;" horiz-adv-x="814" 
d="M55 626v83h580v-504h144l-186 -221l-185 221h144v421h-497z" />
    <glyph glyph-name="uni21C6" unicode="&#x21c6;" horiz-adv-x="1106" 
d="M276 355l-221 185l221 186v-144h755v-83h-755v-144zM1051 170l-221 -185v144h-755v83h755v144z" />
    <glyph glyph-name="partialdiff" unicode="&#x2202;" horiz-adv-x="653" 
d="M272 638q-76 0 -140 -31l-32 74q74 43 180 43q40 0 78.5 -9t81 -34.5t74 -65.5t52.5 -109t21 -158q0 -170 -71 -266.5t-204 -96.5q-99 0 -170 62t-71 174q0 104 71.5 167.5t174.5 63.5q116 0 171 -57q-20 243 -216 243zM331 369q-78 0 -121 -44t-43 -110t44.5 -104.5
t105.5 -38.5q44 0 78.5 19.5t52.5 50.5t27.5 59.5t11.5 55.5q2 26 2 40q-25 33 -67.5 52.5t-90.5 19.5z" />
    <glyph glyph-name="Delta" unicode="&#x2206;" horiz-adv-x="657" 
d="M497 90l-193 507l-190 -507h383zM-25 0l278 709h105l279 -709h-662z" />
    <glyph glyph-name="product" unicode="&#x220f;" horiz-adv-x="687" 
d="M594 0h-95v622h-314v-622h-98v709h507v-709z" />
    <glyph glyph-name="summation" unicode="&#x2211;" horiz-adv-x="567" 
d="M40 0v86l273 271l-273 266v86h497v-90h-365l269 -262l-278 -267h374v-90h-497z" />
    <glyph glyph-name="minus" unicode="&#x2212;" horiz-adv-x="533" 
d="M42 248v79h423v-79h-423z" />
    <glyph glyph-name="uni2215" unicode="&#x2215;" horiz-adv-x="386" 
d="M371 648h95l-446 -648h-95z" />
    <glyph glyph-name="uni2219" unicode="&#x2219;" horiz-adv-x="272" 
d="M55 276q0 32 23 55t55 23q29 0 46.5 -18t17.5 -44q0 -32 -23 -54.5t-54 -22.5q-29 0 -47 18t-18 43z" />
    <glyph glyph-name="radical" unicode="&#x221a;" horiz-adv-x="665" 
d="M712 780h-119l-266 -780h-91l-189 529h108l127 -374l235 713h195v-88z" />
    <glyph glyph-name="infinity" unicode="&#x221e;" horiz-adv-x="811" 
d="M45 290q0 72 49.5 120.5t124.5 48.5q97 0 184 -108q88 108 179 108q75 0 124.5 -48.5t49.5 -120.5t-49.5 -120t-124.5 -48q-101 0 -183 106q-91 -106 -180 -106q-75 0 -124.5 48t-49.5 120zM221 379q-42 0 -67.5 -25.5t-25.5 -64.5t25.5 -64t67.5 -25q35 0 64.5 22
t64.5 65q-27 33 -42 48.5t-38.5 29.5t-48.5 14zM580 200q42 0 67.5 25t25.5 64t-25.5 64.5t-67.5 25.5q-24 0 -48 -13.5t-38.5 -28t-42.5 -46.5q37 -46 66 -68.5t63 -22.5z" />
    <glyph glyph-name="integral" unicode="&#x222b;" horiz-adv-x="310" 
d="M91 -33v584q0 74 42.5 116t116.5 42h37v-86h-30q-34 0 -53 -20t-19 -59v-585q0 -74 -41 -116.5t-114 -42.5h-43v86h31q33 0 53 21t20 60z" />
    <glyph glyph-name="approxequal" unicode="&#x2248;" horiz-adv-x="654" 
d="M513 429l51 -45q-58 -83 -146 -83q-48 0 -100 30l-47 26q-32 17 -62 17q-52 0 -91 -45l-53 47q59 85 143 85q46 0 103 -31l46 -25q35 -20 70 -20q49 0 86 44zM513 235l51 -45q-58 -83 -146 -83q-48 0 -100 30l-47 26q-32 17 -62 17q-52 0 -91 -45l-53 47q59 85 143 85
q46 0 103 -31l46 -25q35 -20 70 -20q49 0 86 44z" />
    <glyph glyph-name="notequal" unicode="&#x2260;" horiz-adv-x="619" 
d="M65 346v77h295l73 99h96l-73 -99h72v-77h-129l-85 -116h214v-79h-273l-73 -100h-96l73 100h-94v79h152l86 116h-238z" />
    <glyph glyph-name="lessequal" unicode="&#x2264;" horiz-adv-x="567" 
d="M65 51v79h412v-79h-412zM65 304v85l412 146v-84l-307 -104l307 -104v-84z" />
    <glyph glyph-name="greaterequal" unicode="&#x2265;" horiz-adv-x="567" 
d="M477 130v-79h-412v79h412zM477 389v-85l-412 -145v84l307 104l-307 104v84z" />
    <glyph glyph-name="dotmath" unicode="&#x22c5;" horiz-adv-x="272" 
d="M55 276q0 32 23 55t55 23q29 0 46.5 -18t17.5 -44q0 -32 -23 -54.5t-54 -22.5q-29 0 -47 18t-18 43z" />
    <glyph glyph-name="uni24C5" unicode="&#x24c5;" horiz-adv-x="826" 
d="M40 355q0 153 106.5 261t257.5 108q152 0 259.5 -108.5t107.5 -260.5q0 -153 -107.5 -261.5t-259.5 -108.5q-151 0 -257.5 108.5t-106.5 261.5zM118 355q0 -126 83 -211.5t203 -85.5t203 85.5t83 211.5t-83 211t-203 85t-203 -85t-83 -211zM374 367h52q41 0 65 19.5
t24 56.5q0 51 -63 51h-50zM443 303h-83l-30 -146h-73l85 401h132q51 0 83 -33.5t32 -78.5q0 -61 -42 -102t-104 -41z" />
    <glyph glyph-name="filledbox" unicode="&#x25a0;" horiz-adv-x="879" 
d="M85 0v709h709v-709h-709z" />
    <glyph glyph-name="H22073" unicode="&#x25a1;" horiz-adv-x="879" 
d="M794 0h-709v709h709v-709zM167 633v-558h545v558h-545z" />
    <glyph glyph-name="uni25AF" unicode="&#x25af;" horiz-adv-x="555" 
d="M5 0v709h545v-709h-545zM84 79h387v551h-387v-551z" />
    <glyph glyph-name="triagup" unicode="&#x25b2;" horiz-adv-x="847" 
d="M360 724l417 -724h-837z" />
    <glyph glyph-name="uni25B3" unicode="&#x25b3;" horiz-adv-x="847" 
d="M-60 0l420 724l417 -724h-837zM359 561l-283 -486h564z" />
    <glyph glyph-name="lozenge" unicode="&#x25ca;" horiz-adv-x="556" 
d="M278 112l140 242l-140 243l-141 -243zM319 0h-82l-202 354l202 355h82l202 -355z" />
    <glyph glyph-name="circle" unicode="&#x25cb;" horiz-adv-x="846" 
d="M791 354q0 -154 -108.5 -262t-262.5 -108t-262 108t-108 262t108 262.5t262 108.5t262.5 -108.5t108.5 -262.5zM708 354q0 121 -84 206t-204 85t-204 -85t-84 -206t84 -206t204 -85t204 85t84 206z" />
    <glyph glyph-name="H18533" unicode="&#x25cf;" horiz-adv-x="846" 
d="M50 354q0 154 108 262.5t262 108.5t262.5 -108.5t108.5 -262.5t-108.5 -262t-262.5 -108t-262 108t-108 262z" />
    <glyph glyph-name="uni262E" unicode="&#x262e;" horiz-adv-x="826" 
d="M771 355q0 -153 -107.5 -261.5t-259.5 -108.5q-151 0 -257.5 108.5t-106.5 261.5t106.5 261t257.5 108q152 0 259.5 -108.5t107.5 -260.5zM690 355q0 114 -70 196t-176 97v-240l206 -207q40 72 40 154zM118 355q0 -83 39 -152l205 205v240q-106 -15 -175 -97t-69 -196z
M444 61q90 12 156 75l-156 156v-231zM207 137q64 -64 155 -76v231z" />
    <glyph glyph-name="uni2713" unicode="&#x2713;" horiz-adv-x="780" 
d="M870 670l-638 -687l-282 315l60 57l226 -247l574 621z" />
    <glyph glyph-name="uni2715" unicode="&#x2715;" horiz-adv-x="774" 
d="M93 -5l-58 58l294 301l-294 301l59 58l293 -300l293 300l59 -58l-295 -301l295 -301l-58 -58l-294 300z" />
    <glyph glyph-name="uni2780" unicode="&#x2780;" horiz-adv-x="826" 
d="M40 355q0 153 106.5 261t257.5 108q152 0 259.5 -108.5t107.5 -260.5q0 -153 -107.5 -261.5t-259.5 -108.5q-151 0 -257.5 108.5t-106.5 261.5zM118 355q0 -126 83 -211.5t203 -85.5t203 85.5t83 211.5t-83 211t-203 85t-203 -85t-83 -211zM451 173h-77v245h-86v52
q36 1 61.5 20.5t30.5 47.5h71v-365z" />
    <glyph glyph-name="uni2781" unicode="&#x2781;" horiz-adv-x="826" 
d="M404 724q152 0 259.5 -108.5t107.5 -260.5q0 -153 -107.5 -261.5t-259.5 -108.5q-151 0 -257.5 108.5t-106.5 261.5t106.5 261t257.5 108zM118 355q0 -126 83 -211.5t203 -85.5t203 85.5t83 211.5t-83 211t-203 85t-203 -85t-83 -211zM353 336l60 37q43 26 43 63
q0 21 -14.5 35.5t-39.5 14.5q-26 0 -41.5 -16t-15.5 -42q0 -12 3 -26h-74q-3 15 -3 31q0 49 36 83t96 34q59 0 95 -33.5t36 -81.5q0 -66 -70 -110l-72 -45q-27 -18 -31 -37h175v-65h-268v10q0 96 85 148z" />
    <glyph glyph-name="uni2782" unicode="&#x2782;" horiz-adv-x="826" 
d="M40 355q0 153 106.5 261t257.5 108q152 0 259.5 -108.5t107.5 -260.5q0 -153 -107.5 -261.5t-259.5 -108.5q-151 0 -257.5 108.5t-106.5 261.5zM118 355q0 -126 83 -211.5t203 -85.5t203 85.5t83 211.5t-83 211t-203 85t-203 -85t-83 -211zM369 339l-29 56l93 77h-169v65
h271v-63l-100 -78q46 -4 77 -33t31 -78q0 -51 -40.5 -86t-104.5 -35q-61 0 -99 30t-48 73l67 27q5 -29 26.5 -46.5t52.5 -17.5q30 0 49 15.5t19 39.5q0 29 -20 43.5t-48 14.5q-14 0 -28 -4z" />
    <glyph glyph-name="uni2783" unicode="&#x2783;" horiz-adv-x="826" 
d="M40 355q0 153 106.5 261t257.5 108q152 0 259.5 -108.5t107.5 -260.5q0 -153 -107.5 -261.5t-259.5 -108.5q-151 0 -257.5 108.5t-106.5 261.5zM118 355q0 -126 83 -211.5t203 -85.5t203 85.5t83 211.5t-83 211t-203 85t-203 -85t-83 -211zM230 250v73l177 220h85v-228
h64v-65h-64v-72h-77v72h-185zM415 315v139l-111 -139h111z" />
    <glyph glyph-name="uni2784" unicode="&#x2784;" horiz-adv-x="826" 
d="M40 355q0 153 106.5 261t257.5 108q152 0 259.5 -108.5t107.5 -260.5q0 -153 -107.5 -261.5t-259.5 -108.5q-151 0 -257.5 108.5t-106.5 261.5zM118 355q0 -126 83 -211.5t203 -85.5t203 85.5t83 211.5t-83 211t-203 85t-203 -85t-83 -211zM252 255l66 30
q7 -26 26.5 -41.5t46.5 -15.5q30 0 48.5 16t18.5 45q0 30 -18.5 46t-48.5 16q-37 0 -64 -27l-64 24l49 187h204v-66h-154l-23 -86q25 28 73 28q56 0 90 -32.5t34 -86.5q0 -55 -39 -92t-106 -37q-52 0 -90.5 27.5t-48.5 64.5z" />
    <glyph glyph-name="uni2785" unicode="&#x2785;" horiz-adv-x="826" 
d="M40 355q0 153 106.5 261t257.5 108q152 0 259.5 -108.5t107.5 -260.5q0 -153 -107.5 -261.5t-259.5 -108.5q-151 0 -257.5 108.5t-106.5 261.5zM118 355q0 -126 83 -211.5t203 -85.5t203 85.5t83 211.5t-83 211t-203 85t-203 -85t-83 -211zM523 527l-18 -57
q-29 13 -62 13q-49 0 -82 -27t-41 -78q13 19 38 31t53 12q59 0 94.5 -33.5t35.5 -92.5q0 -57 -42 -93t-105 -36q-61 0 -106 43t-45 124q0 96 54.5 154.5t139.5 58.5q54 0 86 -19zM326 294q0 -29 20.5 -46t48.5 -17q27 0 47.5 17t20.5 46t-20.5 46t-47.5 17q-28 0 -48.5 -17
t-20.5 -46z" />
    <glyph glyph-name="uni2786" unicode="&#x2786;" horiz-adv-x="826" 
d="M40 355q0 153 106.5 261t257.5 108q152 0 259.5 -108.5t107.5 -260.5q0 -153 -107.5 -261.5t-259.5 -108.5q-151 0 -257.5 108.5t-106.5 261.5zM118 355q0 -126 83 -211.5t203 -85.5t203 85.5t83 211.5t-83 211t-203 85t-203 -85t-83 -211zM554 533v-69
q-19 -13 -37.5 -31.5t-45 -53.5t-46 -90t-25.5 -121h-82q5 55 21 106.5t35 85t37 59t31 37.5l12 11h-197v66h297z" />
    <glyph glyph-name="uni2787" unicode="&#x2787;" horiz-adv-x="826" 
d="M40 355q0 153 106.5 261t257.5 108q152 0 259.5 -108.5t107.5 -260.5q0 -153 -107.5 -261.5t-259.5 -108.5q-151 0 -257.5 108.5t-106.5 261.5zM118 355q0 -126 83 -211.5t203 -85.5t203 85.5t83 211.5t-83 211t-203 85t-203 -85t-83 -211zM403 390q26 0 41.5 13t15.5 35
q0 20 -15.5 32.5t-41.5 12.5t-41.5 -12.5t-15.5 -32.5q0 -22 15.5 -35t41.5 -13zM403 230q32 0 49.5 13.5t17.5 36.5q0 22 -17.5 36t-49.5 14t-49.5 -14t-17.5 -36q0 -23 17.5 -36.5t49.5 -13.5zM403 166q-68 0 -106.5 30.5t-38.5 77.5q0 27 18 50.5t50 35.5q-26 11 -41 33
t-15 47q0 46 37.5 75.5t95.5 29.5t95.5 -29.5t37.5 -75.5q0 -25 -15 -47t-41 -33q32 -12 50 -35.5t18 -50.5q0 -47 -38.5 -77.5t-106.5 -30.5z" />
    <glyph glyph-name="uni2788" unicode="&#x2788;" horiz-adv-x="826" 
d="M40 355q0 153 106.5 261t257.5 108q152 0 259.5 -108.5t107.5 -260.5q0 -153 -107.5 -261.5t-259.5 -108.5q-151 0 -257.5 108.5t-106.5 261.5zM118 355q0 -126 83 -211.5t203 -85.5t203 85.5t83 211.5t-83 211t-203 85t-203 -85t-83 -211zM276 183l18 59q29 -13 62 -13
q51 0 84 25.5t39 77.5q-13 -19 -38 -31t-53 -12q-57 0 -93.5 34t-36.5 92q0 56 42 92.5t105 36.5q61 0 105 -43t44 -124q0 -101 -53 -157t-139 -56q-54 0 -86 19zM471 415q0 29 -20 46.5t-49 17.5q-28 0 -48 -17t-20 -47t20 -47t48 -17q29 0 49 17.5t20 46.5z" />
    <glyph glyph-name="uniE000" unicode="&#xe000;" horiz-adv-x="814" 
d="M221 -16l-186 221h144v504h580v-83h-497v-421h144z" />
    <glyph glyph-name="uni21B5" unicode="&#xe001;" horiz-adv-x="1080" 
d="M224 145l-179 210h131q1 153 109 261t260 108q97 0 182 -47l-37 -74q-68 38 -144 38q-120 0 -203 -83.5t-83 -202.5h143zM914 354q-1 -154 -109 -261.5t-260 -107.5q-97 0 -182 47l37 74q68 -38 144 -38q120 0 203 83.5t83 202.5h-138l179 210l179 -210h-136z" />
    <glyph glyph-name="uniE002" unicode="&#xe002;" horiz-adv-x="949" 
d="M561 354l179 210l179 -210h-130q0 -153 -108 -261t-262 -108q-153 0 -261 108t-108 261q0 154 108 262t261 108q97 0 182 -47l-37 -74q-68 38 -144 38q-120 0 -203 -83.5t-83 -203.5t83 -204t203 -84t202.5 84t82.5 204h-144z" />
    <glyph glyph-name="uniFB00" unicode="&#xfb00;" horiz-adv-x="618" 
d="M617 643q-67 0 -84 -77l-18 -85h109l-18 -83h-109l-84 -398h-97l84 398h-189l-84 -398h-97l84 398h-81l18 83h81l21 100q31 148 172 148q43 0 64 -14l-18 -80q-20 8 -40 8q-67 0 -84 -77l-18 -85h189l21 100q31 148 172 148q43 0 64 -14l-18 -80q-20 8 -40 8z" />
    <glyph glyph-name="fi" unicode="&#xfb01;" horiz-adv-x="591" 
d="M211 398l-84 -398h-97l84 398h-81l18 83h81l21 100q31 148 172 148q43 0 64 -14l-18 -80q-20 8 -40 8q-67 0 -84 -77l-18 -85h307l-103 -481h-94l85 398h-213zM459 659q0 31 23 52.5t51 21.5q27 0 44 -17.5t17 -42.5q0 -30 -23 -52t-51 -22q-27 0 -44 17.5t-17 42.5z" />
    <glyph glyph-name="fl" unicode="&#xfb02;" horiz-adv-x="590" 
d="M331 643q-67 0 -84 -77l-18 -85h213l52 243h94l-154 -724h-94l85 398h-214l-84 -398h-97l84 398h-81l18 83h81l21 100q31 148 172 148q43 0 64 -14l-18 -80q-20 8 -40 8z" />
    <glyph glyph-name="uniFB03" unicode="&#xfb03;" horiz-adv-x="870" 
d="M738 659q0 31 23 52.5t51 21.5q27 0 44 -17.5t17 -42.5q0 -30 -23 -52t-51 -22q-27 0 -44 17.5t-17 42.5zM617 643q-67 0 -84 -77l-18 -85h300l-103 -481h-94l85 398h-206l-84 -398h-97l84 398h-189l-84 -398h-97l84 398h-81l18 83h81l21 100q31 148 172 148q43 0 64 -14
l-18 -80q-20 8 -40 8q-67 0 -84 -77l-18 -85h189l21 100q31 148 172 148q43 0 64 -14l-18 -80q-20 8 -40 8z" />
    <glyph glyph-name="uniFB04" unicode="&#xfb04;" horiz-adv-x="875" 
d="M617 643q-67 0 -84 -77l-18 -85h212l52 243h94l-154 -724h-94l85 398h-213l-84 -398h-97l84 398h-189l-84 -398h-97l84 398h-81l18 83h81l21 100q31 148 172 148q43 0 64 -14l-18 -80q-20 8 -40 8q-67 0 -84 -77l-18 -85h189l21 100q31 148 172 148q43 0 64 -14l-18 -80
q-20 8 -40 8z" />
    <glyph glyph-name="uniFEFF" unicode="&#xfeff;" horiz-adv-x="0" 
 />
    <glyph glyph-name="i.latn_TRK" horiz-adv-x="257" 
d="M125 659q0 31 23 52.5t51 21.5q27 0 44 -17.5t17 -42.5q0 -30 -23 -52t-51 -22q-27 0 -44 17.5t-17 42.5zM99 0h-94l103 481h94z" />
    <glyph glyph-name="Ldot.latn_CAT" horiz-adv-x="538" 
d="M438 0h-423l150 709h98l-131 -617h325zM287 336q0 28 20.5 49t49.5 21q26 0 42.5 -16.5t16.5 -40.5q0 -29 -21 -50.5t-50 -21.5q-26 0 -42 17t-16 42z" />
    <glyph glyph-name="ldot.latn_CAT" horiz-adv-x="355" 
d="M218 303q0 28 21 50t50 22q25 0 41.5 -16.5t16.5 -40.5q0 -29 -21 -50.5t-50 -21.5q-25 0 -41.5 16.5t-16.5 40.5zM99 0h-94l154 724h94z" />
    <glyph glyph-name="zero.numr" horiz-adv-x="411" 
d="M55 412q0 58 17.5 111t60.5 92.5t104 39.5q64 0 99 -38.5t35 -98.5q0 -100 -47 -171t-134 -71q-59 0 -97 36.5t-38 99.5zM125 414q0 -31 18 -51t51 -20q35 0 60.5 30t35.5 67.5t10 75.5q0 31 -16 51.5t-52 20.5q-40 0 -66 -36.5t-33.5 -72.5t-7.5 -65z" />
    <glyph glyph-name="one.numr" horiz-adv-x="290" 
d="M166 283h-77l56 250h-80l10 51q36 1 63.5 18.5t38.5 45.5h68z" />
    <glyph glyph-name="two.numr" horiz-adv-x="388" 
d="M165 449l63 28q57 25 57 65q0 19 -13.5 33.5t-37.5 14.5q-30 0 -48 -19.5t-18 -57.5h-75q0 67 39.5 104t103.5 37q60 0 93.5 -31.5t33.5 -76.5q0 -84 -96 -125l-76 -33q-31 -13 -42 -40h184l-14 -65h-274q12 118 120 166z" />
    <glyph glyph-name="three.numr" horiz-adv-x="425" 
d="M188 454l-26 60l114 69h-160l14 65h260l-14 -74l-114 -67q36 -7 60.5 -35t24.5 -64q0 -54 -40 -93t-107 -39q-57 0 -96 31.5t-39 83.5q0 9 2 19l69 5q-1 -4 -1 -11q0 -25 18 -43.5t46 -18.5q31 0 51.5 17t20.5 47q0 24 -17.5 38t-41.5 14q-14 0 -24 -4z" />
    <glyph glyph-name="four.numr" horiz-adv-x="427" 
d="M55 359l16 85l206 204h88l-48 -224h65l-14 -65h-64l-1 -6q-6 -25 -15 -70h-76l16 76h-173zM241 424l31 137l-138 -137h107z" />
    <glyph glyph-name="five.numr" horiz-adv-x="407" 
d="M55 395l76 7q0 -26 15.5 -43t44.5 -17q28 0 48 16.5t20 47.5q0 27 -16.5 41.5t-42.5 14.5q-28 0 -49 -16l-64 36l72 166h213l-13 -66h-158l-31 -72q20 12 55 12q51 0 81.5 -28t30.5 -79q0 -58 -42.5 -98.5t-105.5 -40.5q-57 0 -95.5 33.5t-38.5 85.5z" />
    <glyph glyph-name="six.numr" horiz-adv-x="390" 
d="M376 632l-27 -56q-29 16 -72 16q-39 0 -74 -22.5t-50 -62.5q24 24 75 24q54 0 85.5 -30.5t31.5 -80.5q0 -65 -46.5 -104.5t-107.5 -39.5q-56 0 -96 38.5t-40 107.5q0 97 62 165.5t160 68.5q68 0 99 -24zM207 467q-30 0 -51.5 -19t-21.5 -49q0 -27 17.5 -42.5t44.5 -15.5
q28 0 49 18.5t21 52.5q0 25 -16 40t-43 15z" />
    <glyph glyph-name="seven.numr" horiz-adv-x="368" 
d="M383 648l-14 -64q-168 -115 -224 -301h-80q14 61 45.5 117.5t66.5 94t58 58t37 29.5h-190l13 66h288z" />
    <glyph glyph-name="eight.numr" horiz-adv-x="396" 
d="M177 542q0 -18 12.5 -29.5t32.5 -11.5q25 0 44 13t19 39q0 17 -12 28.5t-36 12.5q-27 0 -43.5 -14t-16.5 -38zM132 382q0 -21 17.5 -33t42.5 -12q31 0 49.5 15t18.5 42q0 19 -15.5 32t-42.5 13q-30 0 -50 -16t-20 -41zM188 276q-63 0 -98 28t-35 71q0 33 25 60t69 38
q-20 8 -33.5 28t-13.5 39q0 50 38.5 82.5t103.5 32.5q52 0 84.5 -25.5t32.5 -66.5q0 -31 -19.5 -57t-56.5 -39q22 -8 37 -29t15 -43q0 -52 -43 -85.5t-106 -33.5z" />
    <glyph glyph-name="nine.numr" horiz-adv-x="407" 
d="M50 310l30 57q35 -25 84 -25q39 0 72 23t42 65q-27 -31 -72 -31q-54 0 -89.5 31.5t-35.5 83.5q0 63 45 101.5t108 38.5q57 0 95 -35.5t38 -103.5q0 -107 -53.5 -173.5t-153.5 -66.5q-68 0 -110 35zM217 462q29 0 49 20.5t20 51.5q0 25 -17 40.5t-40 15.5q-28 0 -48.5 -19
t-20.5 -52q0 -26 16 -41.5t41 -15.5z" />
    <glyph glyph-name="zero.dnom" horiz-adv-x="411" 
d="M35 129q0 58 17.5 111t60.5 92.5t104 39.5q64 0 99 -38.5t35 -98.5q0 -100 -47 -171t-134 -71q-59 0 -97 36.5t-38 99.5zM105 131q0 -31 18 -51t51 -20q35 0 60.5 30t35.5 67.5t10 75.5q0 31 -16 51.5t-52 20.5q-40 0 -66 -36.5t-33.5 -72.5t-7.5 -65z" />
    <glyph glyph-name="one.dnom" horiz-adv-x="290" 
d="M136 0h-77l56 250h-80l10 51q36 1 63.5 18.5t38.5 45.5h68z" />
    <glyph glyph-name="two.dnom" horiz-adv-x="381" 
d="M125 166l63 28q57 25 57 65q0 19 -13.5 33.5t-37.5 14.5q-30 0 -48 -19.5t-18 -57.5h-75q0 67 39.5 104t103.5 37q60 0 93.5 -31.5t33.5 -76.5q0 -84 -96 -125l-76 -33q-31 -13 -42 -40h184l-14 -65h-274q12 118 120 166z" />
    <glyph glyph-name="three.dnom" horiz-adv-x="425" 
d="M148 172l-26 60l114 69h-160l14 65h260l-14 -74l-114 -67q36 -7 60.5 -35t24.5 -64q0 -54 -40 -93t-107 -39q-57 0 -96 31.5t-39 83.5q0 9 2 19l69 5q-1 -4 -1 -11q0 -25 18 -43.5t46 -18.5q31 0 51.5 17t20.5 47q0 24 -17.5 38t-41.5 14q-14 0 -24 -4z" />
    <glyph glyph-name="four.dnom" horiz-adv-x="427" 
d="M5 76l16 85l206 204h88l-48 -224h65l-14 -65h-64l-1 -6q-6 -25 -15 -70h-76l16 76h-173zM191 141l31 137l-138 -137h107z" />
    <glyph glyph-name="five.dnom" horiz-adv-x="407" 
d="M15 112l76 7q0 -26 15.5 -43t44.5 -17q28 0 48 16.5t20 47.5q0 27 -16.5 41.5t-42.5 14.5q-28 0 -49 -16l-64 36l72 166h213l-13 -66h-158l-31 -72q20 12 55 12q51 0 81.5 -28t30.5 -79q0 -58 -42.5 -98.5t-105.5 -40.5q-57 0 -95.5 33.5t-38.5 85.5z" />
    <glyph glyph-name="six.dnom" horiz-adv-x="390" 
d="M336 349l-27 -56q-29 16 -72 16q-39 0 -74 -22.5t-50 -62.5q24 24 75 24q54 0 85.5 -30.5t31.5 -80.5q0 -65 -46.5 -104.5t-107.5 -39.5q-56 0 -96 38.5t-40 107.5q0 97 62 165.5t160 68.5q68 0 99 -24zM167 184q-30 0 -51.5 -19t-21.5 -49q0 -27 17.5 -42.5t44.5 -15.5
q28 0 49 18.5t21 52.5q0 25 -16 40t-43 15z" />
    <glyph glyph-name="seven.dnom" horiz-adv-x="368" 
d="M343 365l-14 -64q-168 -115 -224 -301h-80q14 61 45.5 117.5t66.5 94t58 58t37 29.5h-190l13 66h288z" />
    <glyph glyph-name="eight.dnom" horiz-adv-x="396" 
d="M137 259q0 -18 12.5 -29.5t32.5 -11.5q25 0 44 13t19 39q0 17 -12 28.5t-36 12.5q-27 0 -43.5 -14t-16.5 -38zM92 99q0 -21 17.5 -33t42.5 -12q31 0 49.5 15t18.5 42q0 19 -15.5 32t-42.5 13q-30 0 -50 -16t-20 -41zM148 -7q-63 0 -98 28t-35 71q0 33 25 60t69 38
q-20 8 -33.5 28t-13.5 39q0 50 38.5 82.5t103.5 32.5q52 0 84.5 -25.5t32.5 -66.5q0 -31 -19.5 -57t-56.5 -39q22 -8 37 -29t15 -43q0 -52 -43 -85.5t-106 -33.5z" />
    <glyph glyph-name="nine.dnom" horiz-adv-x="407" 
d="M15 29l30 57q35 -25 84 -25q39 0 72 23t42 65q-27 -31 -72 -31q-54 0 -89.5 31.5t-35.5 83.5q0 63 45 101.5t108 38.5q57 0 95 -35.5t38 -103.5q0 -107 -53.5 -173.5t-153.5 -66.5q-68 0 -110 35zM182 181q29 0 49 20.5t20 51.5q0 25 -17 40.5t-40 15.5q-28 0 -48.5 -19
t-20.5 -52q0 -26 16 -41.5t41 -15.5z" />
    <glyph glyph-name="space.frac" horiz-adv-x="52" 
 />
    <glyph glyph-name="a.ordn" horiz-adv-x="463" 
d="M242 592q-49 0 -77.5 -43t-28.5 -96q0 -39 19.5 -62.5t56.5 -23.5q44 0 74 40.5t30 102.5q0 37 -19 59.5t-55 22.5zM349 648h73l-53 -256q-7 -32 -7 -61v-22h-70q-1 7 -1 21q0 11 1 22q-39 -50 -97 -50q-63 0 -98.5 42.5t-35.5 107.5q0 86 50 146t126 60q74 0 104 -52z
" />
    <glyph glyph-name="b.ordn" horiz-adv-x="485" 
d="M160 309h-73l107 507h73l-41 -196q36 38 99 38t97.5 -42t34.5 -106q0 -90 -51 -150t-129 -60q-37 0 -66 17.5t-40 44.5zM297 591q-43 0 -73.5 -37.5t-30.5 -97.5q0 -40 21 -64.5t57 -24.5q43 0 76.5 37t33.5 99q0 42 -22.5 65t-61.5 23z" />
    <glyph glyph-name="c.ordn" horiz-adv-x="433" 
d="M392 549l-69 -22q-14 64 -79 64q-44 0 -76 -35.5t-32 -98.5q0 -42 24 -66.5t63 -24.5q60 0 88 59l63 -26q-21 -44 -60 -72t-94 -28q-72 0 -115.5 44t-43.5 113q0 89 55 146t133 57q63 0 98 -32.5t45 -77.5z" />
    <glyph glyph-name="d.ordn" horiz-adv-x="464" 
d="M242 592q-49 0 -77.5 -43t-28.5 -96q0 -39 19.5 -62.5t56.5 -23.5q44 0 74 40.5t30 102.5q0 37 -19 59.5t-55 22.5zM292 352q-39 -50 -97 -50q-63 0 -98.5 42.5t-35.5 107.5q0 86 50 146t126 60q74 0 103 -50l43 208h75l-89 -424q-7 -32 -7 -61v-22h-70q-1 7 -1 21
q0 11 1 22z" />
    <glyph glyph-name="e.ordn" horiz-adv-x="436" 
d="M142 515h170q0 1 0.5 5t0.5 7q0 27 -18 47.5t-54 20.5q-38 0 -63.5 -23t-35.5 -57zM378 458h-245q-1 -4 -1 -10q0 -38 23.5 -61.5t59.5 -23.5q63 0 91 52l58 -33q-19 -36 -58.5 -59.5t-91.5 -23.5q-67 0 -111 41.5t-44 113.5q0 91 55.5 148t129.5 57q68 0 106 -38.5
t38 -100.5q0 -30 -10 -62z" />
    <glyph glyph-name="f.ordn" horiz-adv-x="341" 
d="M309 583h-76l-57 -274h-77l58 274h-58l14 65h58l14 66q23 106 125 106q32 0 48 -11l-13 -63q-12 6 -29 6q-46 0 -58 -52l-11 -52h76z" />
    <glyph glyph-name="g.ordn" horiz-adv-x="461" 
d="M346 513q0 31 -20.5 54t-57.5 23q-44 0 -72.5 -31.5t-28.5 -84.5q0 -38 20 -61.5t59 -23.5q44 0 72 33.5t28 90.5zM50 292l70 15q0 -33 18.5 -54.5t58.5 -21.5q88 0 113 108l6 26q-27 -39 -87 -39q-63 0 -100 40t-37 102q0 80 48.5 133.5t123.5 53.5t103 -50l9 43h75
l-64 -308q-36 -174 -191 -174q-70 0 -108 37.5t-38 88.5z" />
    <glyph glyph-name="h.ordn" horiz-adv-x="460" 
d="M360 308h-75l43 202q2 8 2 24q0 57 -58 57q-34 0 -57 -25.5t-30 -60.5l-42 -197h-75l108 507h75l-42 -196q34 38 95 38q48 0 76.5 -28t28.5 -75q0 -16 -4 -34z" />
    <glyph glyph-name="i.ordn" horiz-adv-x="269" 
d="M167 767q0 23 16.5 39.5t38.5 16.5q21 0 33.5 -13t12.5 -32q0 -23 -17 -39t-38 -16q-20 0 -33 13t-13 31zM157 309h-75l73 339h74z" />
    <glyph glyph-name="j.ordn" horiz-adv-x="279" 
d="M103 275l81 373h74l-83 -390q-10 -44 -38 -68t-69 -24q-30 0 -52 11l13 59l5 -1q4 -1 11 -2.5t14 -1.5q35 1 44 44zM196 767q0 23 16.5 39.5t38.5 16.5q20 0 33 -13t13 -32q0 -23 -17 -39t-39 -16q-19 0 -32 13t-13 31z" />
    <glyph glyph-name="k.ordn" horiz-adv-x="423" 
d="M292 309l-73 152l-63 -52l-21 -100h-74l108 507h74l-64 -300l157 132h109l-168 -139l98 -200h-83z" />
    <glyph glyph-name="l.ordn" horiz-adv-x="246" 
d="M143 309h-75l108 507h75z" />
    <glyph glyph-name="m.ordn" horiz-adv-x="657" 
d="M350 309h-74l44 209q2 14 2 20q0 54 -56 54q-63 0 -79 -79l-44 -204h-74l60 280q7 33 7 59h73q0 -18 -3 -35q36 45 96 45q64 0 87 -54q42 54 118 54q42 0 70 -28t28 -74q0 -14 -3 -31l-46 -216h-75l44 209q3 12 3 22q0 24 -14 38t-42 14q-31 0 -51.5 -22t-27.5 -57z" />
    <glyph glyph-name="n.ordn" horiz-adv-x="460" 
d="M371 309h-75l43 202q3 12 3 24q0 57 -59 57q-34 0 -57 -25.5t-30 -60.5l-42 -197h-75l60 280q7 33 7 59h73q0 -20 -3 -36q34 46 102 46q46 0 74 -28t28 -75q0 -10 -4 -34z" />
    <glyph glyph-name="o.ordn" horiz-adv-x="455" 
d="M243 591q-44 0 -75 -36.5t-31 -96.5q0 -42 22 -67t58 -25q43 0 75 36t32 98q0 42 -21.5 66.5t-59.5 24.5zM400 502q0 -85 -53 -144t-133 -59q-70 0 -111.5 44.5t-41.5 111.5q0 88 54 146t133 58q71 0 111.5 -45t40.5 -112z" />
    <glyph glyph-name="p.ordn" horiz-adv-x="481" 
d="M288 590q-44 0 -75 -37t-31 -97q0 -42 21.5 -65.5t58.5 -23.5q42 0 74.5 37t32.5 99q0 42 -21.5 64.5t-59.5 22.5zM211 611q38 46 104 46q63 0 96.5 -41t33.5 -106q0 -90 -50 -150t-128 -60q-35 0 -64.5 15.5t-43.5 41.5l-39 -181h-74l88 413q8 38 8 59h73q0 -22 -4 -37z
" />
    <glyph glyph-name="q.ordn" horiz-adv-x="480" 
d="M426 648l-100 -472h-75l35 163q-37 -37 -87 -37q-63 1 -100 43.5t-37 106.5q0 85 50.5 145t126.5 60q75 0 105 -49l8 40h74zM244 591q-49 0 -78 -42.5t-29 -95.5q0 -39 21 -62.5t59 -23.5q44 0 73.5 39.5t29.5 100.5q0 39 -19 61.5t-57 22.5z" />
    <glyph glyph-name="r.ordn" horiz-adv-x="282" 
d="M300 571q-14 3 -27 3q-87 0 -110 -105l-35 -160h-74l60 280q7 33 7 59h74q0 -31 -6 -49q33 53 108 53q14 0 20 -1z" />
    <glyph glyph-name="s.ordn" horiz-adv-x="387" 
d="M64 414l65 14q0 -30 18 -49.5t49 -19.5q24 0 37 12.5t13 29.5q0 23 -30 37l-45 21q-65 30 -65 89q0 45 35 78t91 33q62 0 91 -32t32 -68l-66 -16q0 21 -16 38.5t-46 17.5q-22 0 -35.5 -12t-13.5 -29q0 -24 25 -35l45 -20q72 -33 72 -97q0 -40 -32.5 -73.5t-93.5 -33.5
q-67 0 -98.5 36t-31.5 79z" />
    <glyph glyph-name="t.ordn" horiz-adv-x="314" 
d="M221 581l-34 -166q-2 -12 -2 -16q0 -29 37 -29q17 0 23 3l-13 -62q-15 -5 -38 -5q-40 0 -63.5 21t-23.5 57q0 12 3 26l37 171h-62l14 67h11q56 0 69 55l11 50h68l-22 -105h67l-14 -67h-68z" />
    <glyph glyph-name="u.ordn" horiz-adv-x="422" 
d="M254 347q-32 -46 -89 -46q-52 0 -81 30t-29 80q0 20 4 39l42 198h75l-41 -196q-3 -15 -3 -29q0 -57 56 -57q33 0 55 24t29 60l42 198h74l-54 -256q-7 -32 -7 -61v-22h-73q-1 7 -1 17q0 12 1 21z" />
    <glyph glyph-name="v.ordn" horiz-adv-x="384" 
d="M409 648l-200 -339h-73l-60 339h77l35 -248l137 248h84z" />
    <glyph glyph-name="w.ordn" horiz-adv-x="584" 
d="M285 648h79l30 -241l120 241h80l-177 -339h-77l-32 248l-129 -248h-78l-34 339h72l21 -240z" />
    <glyph glyph-name="x.ordn" horiz-adv-x="413" 
d="M239 424l-105 -115h-94l164 174l-88 165h82l57 -111l100 111h93l-159 -169l92 -170h-82z" />
    <glyph glyph-name="y.ordn" horiz-adv-x="403" 
d="M140 176h-85l124 190l-80 282h80l55 -205l127 205h87z" />
    <glyph glyph-name="z.ordn" horiz-adv-x="410" 
d="M334 309h-277l14 66l219 207h-169l14 66h266l-14 -65l-221 -208h182z" />
    <glyph glyph-name="space.tf" 
 />
    <glyph glyph-name="numbersign.tf" 
d="M43 405v76h104l36 167h84l-36 -167h112l36 167h84l-36 -167h95v-76h-111l-34 -160h96v-76h-113l-36 -169h-84l36 169h-112l-36 -169h-84l36 169h-86v76h103l34 160h-88zM215 405l-34 -160h112l34 160h-112z" />
    <glyph glyph-name="dollar.tf" 
d="M149 -104l23 107q-79 18 -119 76t-40 127q0 4 1 13l86 14q-1 -9 -1 -16q0 -47 22.5 -84t66.5 -51l46 211l-23 12q-112 59 -112 161q0 79 59.5 132t150.5 54l22 100h73l-23 -110q68 -18 102 -67.5t34 -100.5l-82 -17q0 17 -4.5 34.5t-21.5 39t-45 32.5l-45 -214l15 -7
q122 -65 122 -163q0 -76 -60 -130.5t-153 -54.5l-20 -98h-74zM187 477q0 -59 62 -92l3 -2l41 191q-46 -3 -76 -30.5t-30 -66.5zM365 172q0 50 -65 87l-39 -184q47 5 75 31t29 66z" />
    <glyph glyph-name="percent.tf" 
d="M244 532q0 25 -15.5 40t-41.5 15q-28 0 -49 -21t-21 -52q0 -25 15.5 -41t41.5 -16q28 0 49 21t21 54zM194 657q52 0 87.5 -35.5t35.5 -86.5q0 -61 -46 -103.5t-104 -42.5q-52 0 -86.5 34.5t-34.5 85.5q0 60 43.5 104t104.5 44zM543 547l-20 -98l-489 -321l20 96zM428 139
q0 25 -15.5 40t-41.5 15q-28 0 -49 -21t-21 -52q0 -25 15.5 -41t41.5 -16q28 0 49 21t21 54zM501 142q0 -61 -46 -103.5t-104 -42.5q-52 0 -86.5 34.5t-34.5 85.5q0 60 43.5 104t104.5 44q52 0 87.5 -35.5t35.5 -86.5z" />
    <glyph glyph-name="plus.tf" 
d="M296 248v-197h-82v197h-187v79h187v195h82v-195h188v-79h-188z" />
    <glyph glyph-name="comma.tf" 
d="M149 63q0 37 26.5 62.5t65.5 25.5q37 0 62 -25.5t25 -69.5q0 -91 -65.5 -163t-160.5 -77l12 62q47 9 85 43t47 77q-7 -5 -26 -5q-30 0 -50.5 19.5t-20.5 50.5z" />
    <glyph glyph-name="period.tf" 
d="M209 -6q-32 0 -53 20.5t-21 49.5q0 37 26 63.5t63 26.5q33 0 53.5 -20.5t20.5 -50.5q0 -38 -26 -63.5t-63 -25.5z" />
    <glyph glyph-name="zero.tf" 
d="M104 222q0 -148 124 -148q52 0 92 39t61 98t31 116t10 105q0 144 -125 144q-48 0 -85 -31.5t-56.5 -74.5t-32 -96.5t-16 -89.5t-3.5 -62zM221 -15q-104 0 -159 63.5t-55 167.5q0 72 17 146t50.5 143.5t94 113.5t138.5 44q102 0 157.5 -64.5t55.5 -166.5q0 -63 -11.5 -125
t-35.5 -120.5t-58.5 -103t-84.5 -71.5t-109 -27z" />
    <glyph glyph-name="one.tf" 
d="M25 88h169l81 380h-152l13 63q61 5 113 36.5t74 80.5h86l-119 -560h188l-18 -88h-453z" />
    <glyph glyph-name="two.tf" 
d="M-28 0q21 192 209 282l121 58q60 29 89.5 61.5t29.5 76.5q0 43 -27.5 72t-82.5 29q-64 0 -102.5 -42.5t-38.5 -115.5v-8l-95 8v7q0 99 65 167t175 68q100 0 152.5 -49.5t52.5 -125.5q0 -144 -166 -223l-144 -68q-80 -38 -106 -106h354l-19 -91h-467z" />
    <glyph glyph-name="three.tf" 
d="M209 312l-37 91l231 156h-316l18 89h437l-23 -113l-218 -146q65 -6 111 -53t46 -121q0 -93 -68 -161.5t-177 -68.5q-104 0 -163.5 60t-59.5 141q0 19 2 29l96 11q-2 -9 -2 -27q0 -53 32.5 -90.5t92.5 -37.5q63 0 104.5 38t41.5 99q0 55 -35 81.5t-82 26.5q-17 0 -31 -4z
" />
    <glyph glyph-name="four.tf" 
d="M-14 146l24 116l361 386h127l-90 -411h106l-19 -91h-106l-28 -146h-95l28 146h-308zM313 237l67 305l-282 -305h215z" />
    <glyph glyph-name="five.tf" 
d="M5 191q0 7 1 10l95 18q-1 -6 -1 -16q0 -55 32 -93.5t95 -38.5q59 0 101.5 40t42.5 109q0 53 -32 85t-87 32q-61 0 -105 -36l-88 56l139 291h347l-19 -90h-277l-78 -162q41 24 100 24q89 0 144.5 -50.5t55.5 -138.5q0 -103 -70 -174.5t-176 -71.5q-99 0 -159.5 57.5
t-60.5 148.5z" />
    <glyph glyph-name="six.tf" 
d="M560 631l-36 -77q-53 24 -115 24q-100 0 -169 -55.5t-95 -151.5q56 58 152 58q93 0 148 -52.5t55 -138.5q0 -114 -76.5 -183.5t-180.5 -69.5q-92 0 -156 64t-64 177q0 115 45 213.5t134 161t205 62.5q101 0 153 -32zM273 345q-64 0 -106 -42t-42 -106q0 -55 36 -90.5
t90 -35.5q60 0 104 41.5t44 111.5q0 56 -34 88.5t-92 32.5z" />
    <glyph glyph-name="seven.tf" 
d="M39 558l19 90h503l-20 -94q-31 -21 -58.5 -43t-79 -73t-93 -107t-86.5 -144.5t-74 -186.5h-102q21 81 53.5 155.5t68 129t73.5 101.5t71.5 77.5t60.5 52.5t43 32l16 10h-395z" />
    <glyph glyph-name="eight.tf" 
d="M290 370q58 0 96.5 33t38.5 86q0 39 -28.5 66.5t-76.5 27.5q-64 0 -101.5 -33.5t-37.5 -86.5q0 -39 29.5 -66t79.5 -27zM105 167q0 -46 34.5 -73.5t91.5 -27.5q61 0 102.5 34t41.5 88q0 45 -31.5 74t-90.5 29q-64 0 -106 -34t-42 -90zM473 187q0 -91 -71 -146.5
t-179 -55.5q-105 0 -161 50t-56 125q0 63 42.5 111t118.5 64q-33 13 -57.5 50t-24.5 78q0 90 68 145t166 55q95 0 149 -46t54 -116q0 -62 -38.5 -108.5t-107.5 -64.5q46 -15 71.5 -54t25.5 -87z" />
    <glyph glyph-name="nine.tf" 
d="M129 429q0 -55 34 -88t90 -33q63 0 103 41t40 105q0 55 -35 89t-87 34q-58 0 -101.5 -39.5t-43.5 -108.5zM-38 38l40 76q59 -41 140 -41q101 0 167 61.5t76 160.5q-47 -71 -155 -71q-84 0 -142.5 53.5t-58.5 141.5q0 110 75 177t178 67q98 0 159 -61t61 -179
q0 -194 -94 -316t-266 -122q-117 0 -180 53z" />
    <glyph glyph-name="colon.tf" 
d="M199 -11q-31 0 -51 19.5t-20 48.5q0 35 25 60t60 25q32 0 51.5 -19.5t19.5 -48.5q0 -35 -25.5 -60t-59.5 -25zM273 336q-31 0 -51 20t-20 48q0 35 25 60t60 25q32 0 51.5 -19.5t19.5 -48.5q0 -35 -25.5 -60t-59.5 -25z" />
    <glyph glyph-name="semicolon.tf" 
d="M283 336q-31 0 -51 20t-20 48q0 35 25 60t60 25q32 0 51.5 -19.5t19.5 -48.5q0 -35 -25.5 -60t-59.5 -25zM141 60q0 34 24.5 57.5t59.5 23.5t58 -23t23 -64q0 -84 -60.5 -150.5t-148.5 -71.5l12 58q43 7 78 39t44 71q-8 -4 -25 -4q-28 0 -46.5 17.5t-18.5 46.5z" />
    <glyph glyph-name="less.tf" 
d="M61 244v85l412 206v-95l-310 -153l310 -153v-95z" />
    <glyph glyph-name="equal.tf" 
d="M28 346v77h463v-77h-463zM28 151v79h463v-79h-463z" />
    <glyph glyph-name="greater.tf" 
d="M473 329v-85l-412 -205v95l312 153l-312 153v95z" />
    <glyph glyph-name="cent.tf" 
d="M171 0l21 100q-66 19 -103.5 72t-37.5 125q0 113 68.5 188t170.5 80l18 84h76l-19 -91q103 -27 130 -134l-83 -28q-17 61 -64 81l-65 -308q72 7 113 84l77 -33q-29 -56 -81 -92.5t-126 -37.5l-19 -90h-76zM141 297q0 -86 68 -117l65 305q-56 -9 -94.5 -58t-38.5 -130z
" />
    <glyph glyph-name="sterling.tf" horiz-adv-x="597" 
d="M43 273l18 86h74q-11 59 -11 88q0 92 58.5 154t152.5 62q83 0 131.5 -42.5t48.5 -116.5q0 -19 -4 -33l-93 -14q3 17 3 32q0 37 -23.5 62.5t-66.5 25.5q-50 0 -80.5 -32.5t-30.5 -91.5q0 -25 13 -94h193l-18 -86h-167q-3 -61 -38.5 -110.5t-95.5 -75.5h210q49 0 80 31
t39 79l88 -18q-15 -84 -69.5 -131.5t-133.5 -47.5h-342l20 104q70 20 106.5 65.5t39.5 103.5h-102z" />
    <glyph glyph-name="currency.tf" 
d="M62 239q0 65 37 120l-75 78l60 59l75 -78q54 35 116 35q60 0 111 -31l72 74l60 -59l-70 -73q41 -57 41 -125t-39 -123l68 -71l-59 -59l-70 72q-52 -33 -114 -33q-64 0 -119 37l-73 -76l-59 59l73 76q-35 54 -35 118zM145 239q0 -58 37.5 -95t92.5 -37t91.5 37t36.5 95
q0 57 -36.5 94t-91.5 37t-92.5 -37t-37.5 -94z" />
    <glyph glyph-name="yen.tf" 
d="M29 306l15 71h122l-106 271h110l92 -262l194 262h113l-213 -271h122l-15 -71h-169l-17 -80h169l-16 -72h-168l-32 -154h-97l32 154h-169l16 72h168l17 80h-168z" />
    <glyph glyph-name="section.tf" 
d="M5 0l91 8q-5 -23 -5 -39q0 -44 25 -70t76 -26q44 0 76.5 27t32.5 75q0 45 -40 75l-90 64q-49 35 -76.5 70.5t-27.5 81.5q0 55 35.5 92t78.5 51q-61 49 -61 126q0 84 64 136.5t149 52.5q88 0 136 -46t48 -115q0 -22 -4 -42l-92 -9q5 23 5 40q0 43 -25.5 68.5t-73.5 25.5
q-46 0 -79.5 -28t-33.5 -73t43 -74l89 -65q33 -24 52.5 -41.5t35.5 -46t16 -60.5q0 -55 -35.5 -95.5t-76.5 -52.5q60 -52 60 -125q0 -85 -64 -137t-150 -52q-87 0 -135 45.5t-48 114.5q0 23 4 44zM313 311l-86 64q-24 -7 -46 -33t-22 -59q0 -43 44 -74l86 -64q24 6 47 32.5
t23 58.5q0 42 -46 75z" />
    <glyph glyph-name="logicalnot.tf" 
d="M476 149h-84v195h-349v82h433v-277z" />
    <glyph glyph-name="plusminus.tf" 
d="M298 309v-134h-82v134h-177v77h177v136h82v-136h178v-77h-178zM39 51v79h437v-79h-437z" />
    <glyph glyph-name="multiply.tf" 
d="M105 56l-56 56l169 175l-168 175l57 57l167 -174l167 174l57 -56l-169 -175l170 -176l-56 -57l-170 175z" />
    <glyph glyph-name="divide.tf" 
d="M21 246v83h457v-83h-457zM184 110q0 26 19.5 45t45.5 19t45 -19t19 -45t-19 -45.5t-45 -19.5t-45.5 19.5t-19.5 45.5zM184 465q0 26 19.5 45t45.5 19t45 -19t19 -45t-19 -45.5t-45 -19.5t-45.5 19.5t-19.5 45.5z" />
    <glyph glyph-name="florin.tf" 
d="M151 20l76 378h-111v83h127l23 113q14 72 60 108.5t105 36.5q44 0 74 -10v-83q-21 7 -52 7q-78 0 -97 -92l-16 -80h129v-83h-146l-82 -411q-14 -72 -60 -108.5t-105 -36.5q-45 0 -77 10v83q25 -7 56 -7q78 0 96 92z" />
    <glyph glyph-name="uni2007.tf" 
 />
    <glyph glyph-name="uni2008.tf" 
 />
    <glyph glyph-name="perthousand.tf" 
d="M155 103q0 -20 12.5 -33t32.5 -13q23 0 39.5 17t16.5 44q0 20 -12.5 32t-33.5 12q-22 0 -38.5 -17.5t-16.5 -41.5zM39 529q0 53 37.5 90.5t91.5 37.5q46 0 77 -31t31 -76q0 -54 -38.5 -91.5t-90.5 -37.5q-47 0 -77.5 31t-30.5 77zM193 -8q-46 0 -76.5 30.5t-30.5 75.5
q0 53 38.5 91.5t92.5 38.5q52 0 78 -39q34 39 88 39q46 0 77 -31t31 -76q0 -54 -38.5 -91.5t-89.5 -37.5q-54 0 -82 39q-37 -39 -88 -39zM520 578l-21 -98l-480 -301l21 96zM422 118q0 20 -12.5 32t-33.5 12q-22 0 -38.5 -17.5t-16.5 -41.5q0 -20 12.5 -33t32.5 -13
q23 0 39.5 17t16.5 44zM161 591q-22 0 -38.5 -17.5t-16.5 -41.5q0 -20 12.5 -33t32.5 -13q23 0 39.5 17t16.5 44q0 20 -12.5 32t-33.5 12z" />
    <glyph glyph-name="Euro.tf" 
d="M41 365l17 78h76q44 99 131 160.5t199 61.5q76 0 139 -30l-42 -77q-46 20 -106 20q-65 0 -125.5 -34.5t-95.5 -100.5h267l-41 -78h-255q-9 -37 -9 -83h229l-41 -80h-176q21 -62 75 -94.5t125 -32.5q23 0 55 5l5 -84q-27 -8 -66 -8q-102 0 -185 56.5t-108 157.5h-103
l17 80h77q0 42 9 83h-68z" />
    <glyph glyph-name="minus.tf" 
d="M45 248v79h423v-79h-423z" />
    <glyph glyph-name="approxequal.tf" 
d="M403 235l51 -45q-58 -83 -146 -83q-48 0 -100 30l-47 26q-32 17 -62 17q-52 0 -91 -45l-53 47q59 85 143 85q46 0 103 -31l46 -25q35 -20 70 -20q49 0 86 44zM403 429l51 -45q-58 -83 -146 -83q-48 0 -100 30l-47 26q-32 17 -62 17q-52 0 -91 -45l-53 47q59 85 143 85
q46 0 103 -31l46 -25q35 -20 70 -20q49 0 86 44z" />
    <glyph glyph-name="notequal.tf" 
d="M33 346v77h295l73 99h96l-73 -99h72v-77h-129l-85 -116h214v-79h-272l-74 -100h-96l74 100h-95v79h153l85 116h-238z" />
    <glyph glyph-name="lessequal.tf" 
d="M60 51v79h412v-79h-412zM60 304v85l412 146v-84l-307 -104l307 -104v-84z" />
    <glyph glyph-name="greaterequal.tf" 
d="M458 130v-79h-412v79h412zM458 389v-85l-412 -145v84l307 104l-307 104v84z" />
    <glyph glyph-name="parenleft.case" horiz-adv-x="283" 
d="M31 248q0 168 72 308.5t216 231.5l43 -54q-124 -89 -188 -208t-64 -281q0 -153 88 -293l-62 -43q-45 65 -75 154t-30 185z" />
    <glyph glyph-name="parenright.case" horiz-adv-x="283" 
d="M252 449q0 -164 -73.5 -303.5t-214.5 -236.5l-43 54q122 98 187 214.5t65 274.5q0 153 -88 293l62 43q45 -65 75 -154t30 -185z" />
    <glyph glyph-name="hyphen.case" horiz-adv-x="358" 
d="M301 296h-271l17 82h271z" />
    <glyph glyph-name="bracketleft.case" horiz-adv-x="288" 
d="M188 -90h-193l189 891h193l-16 -76h-111l-157 -740h111z" />
    <glyph glyph-name="bracketright.case" horiz-adv-x="288" 
d="M103 -90h-192l15 75h111l157 740h-111l16 76h193z" />
    <glyph glyph-name="braceleft.case" horiz-adv-x="353" 
d="M36 313l18 86q48 0 85 23.5t48 75.5l24 115q22 105 74 145.5t145 40.5h13l-16 -75h-13q-50 0 -79 -25t-41 -80l-31 -142q-12 -52 -45.5 -85.5t-84.5 -40.5q37 -7 57.5 -35.5t20.5 -69.5q0 -11 -4 -35l-25 -121q-4 -19 -4 -38q0 -67 79 -67h13l-16 -75h-13
q-69 0 -107.5 35.5t-38.5 99.5q0 24 6 51l24 114q3 15 3 27q0 38 -26 57t-66 19z" />
    <glyph glyph-name="braceright.case" horiz-adv-x="354" 
d="M317 396l-18 -86q-49 0 -86 -23.5t-47 -75.5l-24 -115q-22 -105 -74 -145.5t-145 -40.5h-13l16 75h13q51 0 79 24.5t41 80.5l31 142q11 52 44.5 86t85.5 40q-36 9 -57 37.5t-21 68.5q0 17 4 34l25 121q4 19 4 37q0 68 -79 68h-13l16 75h13q69 0 107 -36t38 -100
q0 -27 -5 -50l-24 -114q-3 -15 -3 -28q0 -38 26 -56.5t66 -18.5z" />
    <glyph glyph-name="exclamdown.case" horiz-adv-x="304" 
d="M214 506l-79 -506h-120l132 506h67zM274 656q0 -30 -21 -51.5t-51 -21.5q-27 0 -43.5 16.5t-16.5 41.5q0 30 21.5 51.5t49.5 21.5q27 0 44 -16.5t17 -41.5z" />
    <glyph glyph-name="guillemotleft.case" horiz-adv-x="477" 
d="M206 149h-93l-98 194l171 188h103l-176 -197zM399 149h-93l-98 194l171 188h103l-176 -197z" />
    <glyph glyph-name="uni00AD.case" horiz-adv-x="358" 
d="M305 313h-271l17 82h271z" />
    <glyph glyph-name="guillemotright.case" horiz-adv-x="492" 
d="M53 531h93l98 -194l-171 -188h-103l176 197zM261 531h93l98 -194l-171 -188h-103l176 197z" />
    <glyph glyph-name="questiondown.case" horiz-adv-x="502" 
d="M256 509h86q-10 -126 -120 -191l-51 -30q-75 -44 -75 -117q0 -40 27 -67.5t80 -27.5q70 0 107 45.5t37 111.5l95 -13q-4 -103 -71.5 -167.5t-177.5 -64.5q-92 0 -145 49t-53 119q0 129 138 207l54 31q64 36 69 115zM381 659q0 -30 -21 -51.5t-51 -21.5q-27 0 -43.5 16.5
t-16.5 41.5q0 30 21.5 51.5t49.5 21.5q27 0 44 -16.5t17 -41.5z" />
    <glyph glyph-name="endash.case" horiz-adv-x="639" 
d="M552 296h-512l17 82h512z" />
    <glyph glyph-name="emdash.case" horiz-adv-x="1100" 
d="M1003 296h-953l17 82h953z" />
    <glyph glyph-name="guilsinglleft.case" horiz-adv-x="284" 
d="M206 149h-93l-98 194l171 188h103l-176 -197z" />
    <glyph glyph-name="guilsinglright.case" horiz-adv-x="284" 
d="M53 531h93l98 -194l-171 -188h-103l176 197z" />
    <glyph glyph-name="G.ss01" horiz-adv-x="740" 
d="M418 725q119 0 193 -63t94 -162l-93 -27q-15 72 -67.5 116.5t-136.5 44.5q-125 0 -199.5 -96t-74.5 -230q0 -108 58 -170.5t156 -62.5q87 0 149 48t82 128h-268l19 88h363q-9 -153 -102 -253.5t-246 -100.5q-136 0 -223 89t-87 228q0 100 33 182.5t88 133.5t122.5 79
t139.5 28z" />
    <glyph glyph-name="Gcircumflex.ss01" horiz-adv-x="740" 
d="M418 725q119 0 193 -63t94 -162l-93 -27q-15 72 -67.5 116.5t-136.5 44.5q-125 0 -199.5 -96t-74.5 -230q0 -108 58 -170.5t156 -62.5q87 0 149 48t82 128h-268l19 88h363q-9 -153 -102 -253.5t-246 -100.5q-136 0 -223 89t-87 228q0 100 33 182.5t88 133.5t122.5 79
t139.5 28zM333 759h-87l135 119h120l90 -119h-83l-74 64z" />
    <glyph glyph-name="Gbreve.ss01" horiz-adv-x="740" 
d="M418 725q119 0 193 -63t94 -162l-93 -27q-15 72 -67.5 116.5t-136.5 44.5q-125 0 -199.5 -96t-74.5 -230q0 -108 58 -170.5t156 -62.5q87 0 149 48t82 128h-268l19 88h363q-9 -153 -102 -253.5t-246 -100.5q-136 0 -223 89t-87 228q0 100 33 182.5t88 133.5t122.5 79
t139.5 28zM442 755q-65 0 -102 32t-37 81q0 6 2 16h78q-1 -4 -1 -8q0 -19 16 -32.5t50 -13.5q39 0 61 16t27 38h79q-16 -54 -60.5 -91.5t-112.5 -37.5z" />
    <glyph glyph-name="Gdotaccent.ss01" horiz-adv-x="740" 
d="M418 725q119 0 193 -63t94 -162l-93 -27q-15 72 -67.5 116.5t-136.5 44.5q-125 0 -199.5 -96t-74.5 -230q0 -108 58 -170.5t156 -62.5q87 0 149 48t82 128h-268l19 88h363q-9 -153 -102 -253.5t-246 -100.5q-136 0 -223 89t-87 228q0 100 33 182.5t88 133.5t122.5 79
t139.5 28zM379 814q0 28 20.5 49t49.5 21q26 0 42.5 -16.5t16.5 -40.5q0 -29 -21 -50.5t-50 -21.5q-26 0 -42 17t-16 42z" />
    <glyph glyph-name="Gcommaaccent.ss01" horiz-adv-x="740" 
d="M418 725q119 0 193 -63t94 -162l-93 -27q-15 72 -67.5 116.5t-136.5 44.5q-125 0 -199.5 -96t-74.5 -230q0 -108 58 -170.5t156 -62.5q87 0 149 48t82 128h-268l19 88h363q-9 -153 -102 -253.5t-246 -100.5q-136 0 -223 89t-87 228q0 100 33 182.5t88 133.5t122.5 79
t139.5 28zM265 -92q0 24 18.5 40t45.5 16q23 0 41 -16t18 -45q0 -57 -39.5 -87t-85.5 -30q-8 0 -14 1l9 39q60 0 74 41q-6 -4 -18 -4q-22 0 -35.5 12.5t-13.5 32.5z" />
    <glyph glyph-name="r.ss03" horiz-adv-x="347" 
d="M201 481l-14 -61q8 31 30.5 48.5t49.5 17.5q29 0 47 -18.5t18 -44.5q0 -33 -23.5 -56t-55.5 -23q-29 0 -47.5 18t-18.5 44v13l-88 -419h-94l102 481h94z" />
    <glyph glyph-name="racute.ss03" horiz-adv-x="347" 
d="M201 481l-14 -61q8 31 30.5 48.5t49.5 17.5q29 0 47 -18.5t18 -44.5q0 -33 -23.5 -56t-55.5 -23q-29 0 -47.5 18t-18.5 44v13l-88 -419h-94l102 481h94zM382 689l-155 -146h-84l115 146h124z" />
    <glyph glyph-name="rcommaaccent.ss03" horiz-adv-x="347" 
d="M201 481l-14 -61q8 31 30.5 48.5t49.5 17.5q29 0 47 -18.5t18 -44.5q0 -33 -23.5 -56t-55.5 -23q-29 0 -47.5 18t-18.5 44v13l-88 -419h-94l102 481h94zM-26 -92q0 24 18.5 40t45.5 16q23 0 41 -16t18 -45q0 -57 -39.5 -87t-85.5 -30q-8 0 -14 1l9 39q60 0 74 41
q-6 -4 -18 -4q-22 0 -35.5 12.5t-13.5 32.5z" />
    <glyph glyph-name="rcaron.ss03" horiz-adv-x="347" 
d="M201 481l-14 -61q8 31 30.5 48.5t49.5 17.5q29 0 47 -18.5t18 -44.5q0 -33 -23.5 -56t-55.5 -23q-29 0 -47.5 18t-18.5 44v13l-88 -419h-94l102 481h94zM321 687h91l-130 -142h-115l-70 142h84l52 -81z" />
    <glyph glyph-name="ampersand.ss04" horiz-adv-x="681" 
d="M638 212h-99q-21 -97 -94 -162t-177 -65q-109 0 -176 57.5t-67 142.5q0 100 63 157t141 67q-74 41 -74 124q0 80 61 135.5t143 55.5t135 -47t53 -118q0 -19 -2 -29l-98 -12q2 18 2 25q0 41 -24 66t-70 25q-40 0 -70.5 -27.5t-30.5 -73.5q0 -39 29.5 -62.5t74.5 -23.5
l-19 -88h-33q-20 0 -42.5 -4t-47.5 -15.5t-44 -28.5t-32 -45.5t-13 -64.5q0 -50 38 -86.5t110 -36.5q59 0 104 36.5t62 97.5h-101l18 89h298z" />
    <glyph glyph-name="one.ss05" horiz-adv-x="426" 
d="M-27 88h141l81 380h-142l13 63q60 5 107.5 36t69.5 81h86l-119 -560h161l-18 -88h-398z" />
    <glyph glyph-name="registered.ss06" horiz-adv-x="429" 
d="M60 526q0 78 55.5 133.5t133.5 55.5t134 -55.5t56 -133.5t-56 -133.5t-134 -55.5t-133.5 55.5t-55.5 133.5zM109 526q0 -60 40.5 -101.5t99.5 -41.5t100 41.5t41 101.5t-41 101.5t-100 41.5t-99.5 -41.5t-40.5 -101.5zM239 539h16q33 0 33 25q0 20 -28 20h-11zM230 497
l-14 -66h-51l41 196h70q29 0 45.5 -16t16.5 -39q0 -25 -14 -43.5t-34 -23.5l25 -74h-52l-18 66h-15z" />
    <glyph glyph-name="caron.alt" horiz-adv-x="214" 
d="M239 724l-102 -179h-72l66 179h108z" />
    <glyph glyph-name="commaaccent" horiz-adv-x="177" 
d="M65 547l8 40q57 0 75 41q-8 -4 -19 -4q-21 0 -34 13t-13 32q0 26 17.5 41.5t43.5 15.5q24 0 41.5 -15t17.5 -45q0 -51 -37 -85.5t-89 -34.5q-6 0 -11 1z" />
    <glyph glyph-name="commaturn" horiz-adv-x="177" 
d="M185 596q0 -25 -17.5 -42t-43.5 -17q-22 0 -40.5 17t-18.5 43q0 61 41.5 90.5t88.5 29.5h7l-8 -40h-5q-23 0 -43.5 -11.5t-25.5 -29.5q10 4 19 4q21 0 33.5 -12.5t12.5 -31.5z" />
    <glyph glyph-name="dieresis.narrow" horiz-adv-x="288" 
d="M65 615q0 24 16.5 42t41.5 18q21 0 35 -13.5t14 -34.5q0 -25 -17.5 -41.5t-41.5 -16.5q-22 0 -35 13t-13 33zM206 615q0 24 16.5 42t41.5 18q22 0 35.5 -13.5t13.5 -34.5q0 -25 -17.5 -41.5t-41.5 -16.5q-22 0 -35 13t-13 33z" />
    <glyph glyph-name="dieresis.uc.narrow" horiz-adv-x="301" 
d="M65 813q0 25 17 42t43 17q20 0 33 -13.5t13 -32.5q0 -26 -17.5 -43t-41.5 -17q-20 0 -33.5 13.5t-13.5 33.5zM220 813q0 25 17 42t43 17q20 0 33 -13.5t13 -32.5q0 -26 -17.5 -43t-41.5 -17q-20 0 -33.5 13.5t-13.5 33.5z" />
    <glyph glyph-name="grave.uc" horiz-adv-x="233" 
d="M172 759l-107 119h118l75 -119h-86z" />
    <glyph glyph-name="dieresis.uc" horiz-adv-x="388" 
d="M65 813q0 28 19 46.5t47 18.5q23 0 37.5 -15t14.5 -37q0 -28 -19.5 -47t-45.5 -19q-23 0 -38 15t-15 38zM295 813q0 28 19 46.5t47 18.5q23 0 37.5 -15t14.5 -37q0 -28 -19.5 -47t-45.5 -19q-23 0 -38 15t-15 38z" />
    <glyph glyph-name="macron.uc" horiz-adv-x="351" 
d="M358 779h-293l18 83h293z" />
    <glyph glyph-name="acute.uc" horiz-adv-x="290" 
d="M315 878l-153 -119h-97l119 119h131z" />
    <glyph glyph-name="circumflex.uc" horiz-adv-x="385" 
d="M152 759h-87l135 119h120l90 -119h-83l-74 64z" />
    <glyph glyph-name="caron.uc" horiz-adv-x="385" 
d="M317 878h93l-140 -119h-120l-85 119h82l69 -64z" />
    <glyph glyph-name="breve.uc" horiz-adv-x="352" 
d="M204 755q-65 0 -102 32t-37 81q0 6 2 16h78q-1 -4 -1 -8q0 -19 16 -32.5t50 -13.5q39 0 61 16t27 38h79q-16 -54 -60.5 -91.5t-112.5 -37.5z" />
    <glyph glyph-name="dotaccent.uc" horiz-adv-x="169" 
d="M65 814q0 28 20.5 49t49.5 21q26 0 42.5 -16.5t16.5 -40.5q0 -29 -21 -50.5t-50 -21.5q-26 0 -42 17t-16 42z" />
    <glyph glyph-name="ring.uc" horiz-adv-x="265" 
d="M180 895q-20 0 -35.5 -14t-15.5 -36q0 -19 11.5 -30.5t31.5 -11.5q22 0 37 14t15 36q0 18 -12.5 30t-31.5 12zM65 837q0 52 37 86.5t85 34.5q43 0 73 -29.5t30 -70.5q0 -46 -36 -82.5t-84 -36.5q-44 0 -74.5 28.5t-30.5 69.5z" />
    <glyph glyph-name="tilde.uc" horiz-adv-x="382" 
d="M407 881q-21 -126 -113 -126q-36 0 -70 24l-12 8q-21 14 -38 14q-31 0 -39 -44h-70q7 64 38 95t76 31q36 0 70 -24l12 -8q21 -14 38 -14q31 0 39 44h69z" />
    <glyph glyph-name="hungarumlaut.uc" horiz-adv-x="382" 
d="M256 878l-118 -119h-73l81 119h110zM407 878l-128 -119h-73l91 119h110z" />
    <glyph glyph-name="caron.alt.uc" horiz-adv-x="221" 
d="M246 760l-105 -190h-76l65 190h116z" />
    <glyph glyph-name="undercommaaccent" horiz-adv-x="224" 
d="M-14 -92q0 24 18.5 40t45.5 16q23 0 41 -16t18 -45q0 -57 -39.5 -87t-85.5 -30q-8 0 -14 1l9 39q60 0 74 41q-6 -4 -18 -4q-22 0 -35.5 12.5t-13.5 32.5z" />
    </font>
</defs>
</svg>
